<svg width="1920" height="1080" viewBox="0 0 1920 1080" fill="none" xmlns="http://www.w3.org/2000/svg">
<path d="M243.518 836.558C254.232 822.765 267.396 812.403 282.793 804.326C283.379 804.015 283.966 803.703 284.57 803.382C294.996 798.085 305.95 794.585 317.352 792.111C317.755 792.022 318.158 791.933 318.573 791.841C342.617 786.627 369.761 788.73 391.878 799.772C392.394 800.028 392.91 800.283 393.442 800.546C394.853 801.277 396.227 802.048 397.599 802.85C398.181 803.188 398.762 803.526 399.361 803.874C414.529 813.002 426.248 826.945 430.766 844.235C431.496 847.529 431.966 850.848 432.349 854.198C432.413 854.724 432.478 855.25 432.545 855.792C433.791 870.531 428.536 885.361 421.091 897.811C420.692 898.48 420.303 899.155 419.921 899.834C419.453 900.657 418.944 901.456 418.428 902.25C418.061 902.268 417.694 902.285 417.316 902.303C417.19 902.625 417.065 902.948 416.937 903.281C415.636 905.965 413.487 908.127 411.56 910.379C411.201 910.807 411.201 910.807 410.836 911.244C391.527 934.199 360.352 947.779 330.93 950.962C301.401 953.435 272.579 948.276 249.332 928.905C221.584 904.667 222.673 864.782 243.518 836.558ZM259.73 920.421C276.593 935.184 300.789 939.594 322.54 938.529C341.579 937.2 360.651 932.145 376.974 922.038C377.647 921.658 378.321 921.283 378.997 920.91C384.411 917.892 389.04 914.166 393.702 910.101C394.015 909.831 394.329 909.562 394.652 909.284C397.191 907.121 397.191 907.121 399.588 904.806C399.571 904.439 399.554 904.072 399.536 903.693C400.612 903.091 400.612 903.091 401.71 902.476C401.692 902.109 401.675 901.742 401.657 901.363C402.025 901.346 402.392 901.329 402.77 901.311C404.479 899.297 405.966 897.111 407.491 894.956C408.024 894.218 408.024 894.218 408.567 893.466C412.81 887.345 418.414 878.144 418.055 870.482C417.366 870.574 416.676 870.666 415.966 870.761C398.488 873.084 381.001 875.036 363.448 876.685C361.024 876.913 358.601 877.146 356.178 877.379C344.766 878.477 333.356 879.569 321.92 880.382C321.29 880.428 320.661 880.474 320.012 880.521C319.473 880.559 318.935 880.596 318.38 880.635C316.964 880.745 316.964 880.745 315.403 881.426C312.769 881.699 310.557 881.759 308.118 880.652C306.913 878.501 306.465 876.477 306.692 874.027C308.189 870.397 310.487 868.093 313.516 865.691C313.921 865.36 314.326 865.029 314.744 864.688C315.951 863.706 317.166 862.735 318.386 861.769C318.874 861.381 318.874 861.381 319.372 860.986C320.56 860.047 321.75 859.111 322.945 858.181C326.249 855.604 329.462 852.918 332.686 850.241C335.256 848.111 337.846 846.015 340.485 843.969C343.435 841.678 346.278 839.276 349.108 836.838C352.598 833.834 356.094 830.856 359.744 828.045C360.324 827.598 360.903 827.151 361.5 826.691C379.678 812.89 379.678 812.89 386.305 811.744C385.069 810.508 384 809.825 382.366 809.214C381.934 809.053 381.503 808.891 381.058 808.725C380.596 808.559 380.134 808.393 379.657 808.222C379.177 808.048 378.697 807.875 378.202 807.696C350.911 798.069 319.826 801.308 293.777 813.28C291.384 814.431 289.049 815.673 286.731 816.967C286.334 817.188 285.937 817.409 285.528 817.636C276.06 822.95 267.937 829.394 260.353 837.163C259.92 837.601 259.487 838.038 259.04 838.488C247.917 850.144 240.739 865.917 240.714 882.127C241.229 897.661 248.389 910.171 259.73 920.421ZM333.113 866.655C335.637 866.459 338.16 866.258 340.683 866.056C341.397 866.001 342.112 865.946 342.847 865.889C343.538 865.833 344.229 865.777 344.941 865.72C345.576 865.67 346.21 865.619 346.863 865.568C348.608 865.375 350.272 865.057 351.98 864.656C351.844 864.345 351.709 864.034 351.57 863.714C350.291 860.63 349.266 857.817 350.318 854.487C350.902 853.553 350.902 853.553 351.989 852.945C352.567 851.793 352.567 851.793 352.997 850.667C354.87 850.9 355.649 851.43 356.997 852.71C357.556 852.868 358.115 853.026 358.692 853.188C358.388 850.626 358.084 848.064 357.77 845.424C355.829 845.515 355.711 845.712 354.456 847.072C354.14 847.408 353.824 847.743 353.498 848.089C353.161 848.453 352.823 848.817 352.475 849.193C347.189 854.748 341.462 859.61 335.38 864.272C334.606 864.869 333.845 865.482 333.087 866.099C333.096 866.282 333.105 866.466 333.113 866.655ZM372.594 828.558C373.329 828.898 374.065 829.235 374.802 829.57C375.212 829.758 375.622 829.946 376.045 830.139C377.125 830.653 377.125 830.653 378.263 830.523C378.445 829.997 378.627 829.471 378.815 828.929C379.97 826.737 380.735 826.154 383.036 825.281C385.233 825.255 386.528 825.383 388.394 826.563C388.863 826.771 389.333 826.979 389.817 827.193C391.104 826.607 392.376 825.988 393.634 825.342C395.608 825.327 396.602 825.447 398.19 826.627C398.741 826.963 398.741 826.963 399.303 827.307C400.691 826.893 400.691 826.893 402.033 826.063C402.943 825.649 403.853 825.235 404.763 824.82C403.086 822.338 401.273 820.515 398.865 818.718C398.537 818.47 398.21 818.222 397.872 817.967C392.535 813.888 392.535 813.888 386.305 811.744C386.393 812.382 386.393 812.382 386.483 813.034C386.436 814.526 386.436 814.526 385.696 815.388C385.344 815.638 384.992 815.887 384.629 816.144C380.172 819.534 376.146 823.695 372.568 828.002C372.577 828.185 372.585 828.369 372.594 828.558ZM381.418 862.161C384.102 861.901 386.785 861.637 389.468 861.369C390.376 861.278 391.285 861.189 392.194 861.102C402.869 860.361 402.869 860.361 412.978 857.336C414.711 857.268 414.711 857.268 416.5 857.381C417.098 857.414 417.695 857.448 418.311 857.483C418.763 857.515 419.215 857.547 419.681 857.58C419.277 852.689 418.905 848.277 416.804 843.774C416.155 843.919 415.506 844.064 414.838 844.214C412.974 844.554 412.192 844.492 410.262 844.01C408.486 843.407 408.486 843.407 407.268 844.264C405.963 845.746 405.983 846.724 405.88 848.677C405.638 851.365 405.4 853.048 403.388 854.998C401.712 856.126 400.447 856.389 398.438 856.449C397.732 856.477 397.732 856.477 397.011 856.505C395.744 856.477 394.628 856.317 393.399 856.023C393.25 856.531 393.25 856.531 393.098 857.048C392.052 858.9 391.107 859.327 389.13 860.127C387.54 860.247 385.983 860.275 384.389 860.244C382.719 860.449 382.451 860.904 381.418 862.161Z" fill="#007961"/>
<path d="M147.883 529.994C147.799 529.065 147.715 528.136 147.629 527.179C148.2 526.827 148.771 526.475 149.359 526.112C166.23 515.61 181.961 505.094 191.959 487.483C192.229 487.038 192.499 486.593 192.777 486.134C197.716 477.722 199.972 467.997 201.895 458.534C201.984 458.099 202.073 457.664 202.165 457.216C204.856 443.505 204.511 429.073 205.069 415.152C206.685 374.85 206.685 374.85 208.386 361.241C208.445 360.746 208.504 360.251 208.564 359.741C209.333 353.386 210.759 347.429 212.925 341.402C213.105 340.892 213.285 340.382 213.47 339.857C216.607 332.122 223.501 325.728 230.946 322.201C245.208 316.738 257.13 317.252 271.178 323.326C275.989 325.505 280.21 328.281 284.422 331.453C285.227 332.058 286.041 332.651 286.856 333.243C300.366 343.236 311.793 356.204 323.524 368.163C333.721 378.535 344.131 388.771 356.427 396.656C357.208 397.162 357.208 397.162 358.005 397.679C370.887 405.828 385.254 408.749 400.296 406.227C401.719 405.877 403.123 405.512 404.532 405.112C404.929 405 405.326 404.888 405.735 404.773C415.136 402.099 424.051 399.153 432.623 394.356C433.249 394.008 433.249 394.008 433.888 393.654C439.252 390.623 443.83 387.037 448.278 382.791C448.912 382.214 448.912 382.214 449.559 381.626C452.57 378.788 454.984 375.584 457.392 372.235C462.235 365.52 462.235 365.52 464.992 364.301C466.457 364.121 466.457 364.121 467.834 364.87C468.864 367.398 468.91 369.799 468.027 372.363C467.636 373.255 467.221 374.136 466.785 375.006C466.468 375.641 466.468 375.641 466.144 376.289C455.096 395.859 431.928 407.526 411.215 413.577C391.994 418.904 374.535 417.237 356.912 408.072C356.272 407.759 356.272 407.759 355.619 407.439C338.618 398.832 324.765 382.895 311.599 369.517C293.977 350.943 293.977 350.943 273.632 335.59C273.303 335.39 272.974 335.19 272.635 334.984C265.597 330.759 258.214 327.71 249.878 327.585C249.49 327.571 249.101 327.557 248.701 327.543C240.888 327.652 232.876 331.121 227.226 336.379C222.666 341.254 220.691 346.929 219.354 353.374C219.267 353.795 219.18 354.216 219.09 354.65C215.381 373.362 215.642 392.966 214.917 411.953C212.884 465.019 212.884 465.019 202.844 487.154C202.582 487.737 202.32 488.319 202.05 488.92C194.57 505.09 180.484 518.888 163.987 525.811C162.268 526.396 160.534 526.914 158.791 527.419C158.321 527.557 157.852 527.695 157.369 527.836C154.228 528.742 151.116 529.489 147.883 529.994Z" fill="#003D48"/>
<path d="M1495.47 720.261C1499.47 719.3 1503.37 718.972 1507.05 721.071C1507.51 721.361 1507.98 721.65 1508.45 721.949C1508.66 721.366 1508.66 721.366 1508.87 720.771C1515.25 705.226 1531.59 694.301 1546.49 688.001C1548.31 687.249 1550.15 686.543 1552 685.849C1552.39 685.696 1552.78 685.544 1553.18 685.386C1555.65 684.457 1558.14 683.925 1560.74 683.506C1561.52 683.38 1561.52 683.38 1562.31 683.252C1568.86 682.317 1575.61 682.36 1581.63 685.439C1583.63 686.02 1585 685.545 1586.99 685.069C1605.18 681.44 1626.14 690.753 1641.03 700.363C1647.88 704.938 1657.14 712.406 1659.08 720.748C1659.09 722.168 1659 722.72 1658.27 723.977C1658.66 724.125 1659.04 724.273 1659.44 724.426C1664.59 726.496 1669.34 729.127 1674.14 731.92C1674.55 732.157 1674.96 732.394 1675.38 732.638C1689.66 740.93 1704.94 750.759 1710.36 767.251C1710.52 767.734 1710.68 768.217 1710.85 768.714C1714.12 779.557 1712.03 790.791 1707.32 800.866C1707.07 801.394 1707.07 801.394 1706.82 801.933C1701.24 812.57 1690.76 820.186 1679.88 824.618C1679.57 824.746 1679.26 824.874 1678.94 825.006C1669.72 828.734 1669.72 828.734 1665.78 827.293C1664.77 826.743 1663.89 826.229 1663.04 825.45C1662.7 824.201 1662.7 824.201 1663.58 822.628C1665.38 820.311 1667.84 819.334 1670.44 818.111C1682.64 812.132 1694.62 804.209 1699.53 790.905C1702.21 782.787 1701.82 774.243 1698.14 766.515C1694.07 758.875 1687.23 753.848 1680.33 748.857C1679.87 748.523 1679.42 748.188 1678.94 747.843C1677.53 746.857 1676.09 745.932 1674.62 745.032C1674.03 744.667 1674.03 744.667 1673.42 744.294C1657.82 734.815 1640.84 728.049 1622.84 724.746C1620.32 724.131 1618.27 723.04 1616.73 720.946C1616.09 719.18 1616.16 718.319 1616.88 716.577C1617.9 714.921 1619.02 714.309 1620.88 713.811C1624.36 713.193 1628.16 714.374 1631.54 715.178C1632 715.285 1632.46 715.393 1632.93 715.503C1637.57 716.613 1642.12 717.966 1646.67 719.389C1639.21 710.31 1625.31 703.124 1614.26 699.623C1613.89 699.504 1613.52 699.386 1613.15 699.263C1600.49 695.165 1600.49 695.165 1587.62 696.386C1587.43 696.983 1587.26 697.589 1587.1 698.198C1586.5 699.307 1585.88 700.394 1585.24 701.479C1585.07 701.773 1584.9 702.067 1584.72 702.37C1584.3 703.092 1583.87 703.813 1583.44 704.533C1582.72 704.287 1581.99 704.04 1581.24 703.786C1581.3 703.501 1581.37 703.216 1581.44 702.922C1581.53 702.545 1581.61 702.167 1581.7 701.778C1581.79 701.406 1581.88 701.033 1581.96 700.649C1582.11 699.488 1581.98 698.76 1581.6 697.663C1578.72 698.868 1575.96 700.107 1573.32 701.787C1569.35 704.262 1569.35 704.262 1567.01 703.853C1565.2 703.265 1564.61 702.732 1563.6 701.063C1563 698.946 1563.68 697.16 1564.55 695.205C1564.77 694.813 1565 694.421 1565.23 694.018C1549.11 697.346 1531.57 705.758 1522.12 719.856C1519.5 723.99 1517.93 727.988 1516.94 732.769C1516.45 734.753 1515.88 736.266 1514.3 737.598C1513.11 738.176 1512.15 738.25 1510.89 737.826C1509.08 736.876 1508.04 736.115 1507.31 734.158C1506.81 732.357 1506.6 730.669 1506.61 728.803C1506.76 728.541 1506.91 728.28 1507.07 728.011C1505.47 728.306 1503.89 728.627 1502.3 728.954C1501.95 729.017 1501.6 729.081 1501.23 729.146C1494.8 730.532 1488.52 735.275 1484.87 740.637C1482.16 745.105 1480.42 749.716 1481.44 754.99C1482.71 759.061 1485.19 760.998 1488.7 763.216C1490.68 764.549 1492.03 765.951 1492.85 768.239C1492.63 769.947 1491.93 770.689 1490.71 771.887C1488.13 773.147 1486.18 773.264 1483.4 772.78C1478.62 770.885 1474.73 766.95 1472.43 762.392C1469.19 754.694 1469.49 747.345 1472.54 739.521C1477.14 729.944 1485.34 723.197 1495.47 720.261Z" fill="#003D48"/>
<path d="M1480.55 773.94C1481.79 774.506 1482.41 774.806 1482.95 776.084C1483.05 776.49 1483.15 776.897 1483.25 777.316C1486.19 786.942 1493.94 795.811 1502.49 800.861C1511.98 805.582 1522.71 804.035 1532.55 801.172C1533.61 800.889 1534.66 800.684 1535.74 800.491C1538.2 800.015 1540.57 799.339 1542.97 798.642C1547.61 797.311 1552.19 796.118 1557.01 795.749C1557.4 795.713 1557.79 795.677 1558.18 795.64C1561 795.501 1563.15 796.26 1565.33 798.079C1565.81 799.846 1565.26 800.71 1564.47 802.328C1562.92 803.8 1561.11 804.527 1559.15 805.299C1558.86 805.419 1558.57 805.538 1558.26 805.661C1557.38 806.018 1556.49 806.365 1555.6 806.712C1555.07 806.925 1554.54 807.138 1554 807.358C1552.31 807.975 1550.6 808.284 1548.83 808.611C1546.16 809.156 1543.55 809.921 1540.92 810.644C1537.16 811.68 1533.43 812.641 1529.6 813.344C1528.97 813.471 1528.35 813.598 1527.72 813.726C1517.79 815.659 1507.33 816.143 1498.3 810.852C1497.91 810.622 1497.52 810.392 1497.12 810.156C1488.77 805.064 1482.5 796.974 1480.15 787.435C1479.72 785.166 1479.47 782.929 1479.33 780.626C1479.29 780.111 1479.26 779.595 1479.22 779.064C1479.04 775.18 1479.04 775.18 1480.55 773.94Z" fill="#003D48"/>
<path d="M1554.27 811.753C1555.02 810.799 1555.02 810.799 1555.81 810.002C1556.33 810.236 1556.85 810.471 1557.38 810.712C1563.8 813.519 1570.38 815.378 1577.16 817.087C1578.87 817.522 1580.58 817.975 1582.29 818.432C1589.02 820.214 1595.66 821.53 1602.6 822.232C1603.26 822.303 1603.26 822.303 1603.94 822.374C1617.75 823.797 1630.63 822.469 1644 818.832C1652.92 816.481 1652.92 816.481 1655.83 818.092C1656.8 819.305 1656.91 819.866 1656.93 821.397C1655.38 825.18 1652.07 827.054 1648.5 828.675C1646.58 829.428 1644.64 830.02 1642.65 830.577C1642.06 830.752 1641.47 830.928 1640.88 831.103C1618.41 837.616 1589.88 834.503 1569.38 823.311C1566.06 821.362 1562.94 819.089 1559.8 816.86C1559.55 816.68 1559.29 816.499 1559.03 816.313C1558.3 815.795 1557.58 815.271 1556.85 814.747C1556.43 814.442 1556 814.136 1555.57 813.821C1554.61 813.002 1554.61 813.002 1554.27 811.753Z" fill="#003D48"/>
<path d="M1501.22 264.541C1506.28 254.365 1514.16 245.734 1522.01 237.642C1523.69 235.909 1525.29 234.131 1526.86 232.3C1530.45 228.114 1534.39 224.468 1538.58 220.885C1539.46 220.129 1540.31 219.35 1541.17 218.571C1542.47 217.445 1543.08 217.012 1544.79 216.995C1545.15 217.203 1545.51 217.411 1545.89 217.626C1545.96 217.125 1546.03 216.624 1546.1 216.107C1546.79 212.778 1548.24 209.71 1549.58 206.601C1549.73 206.261 1549.87 205.92 1550.02 205.569C1559.9 182.562 1572.32 160.485 1586.73 140.018C1587.07 139.531 1587.41 139.043 1587.77 138.541C1594.23 129.366 1600.99 120.48 1608.77 112.372C1609.06 112.073 1609.34 111.774 1609.64 111.466C1611.48 109.536 1613.34 107.614 1615.2 105.699C1615.93 104.943 1616.65 104.181 1617.38 103.419C1617.94 102.832 1617.94 102.832 1618.51 102.233C1618.82 101.902 1619.14 101.57 1619.46 101.229C1620.24 100.561 1620.24 100.561 1621.37 100.627C1621.5 100.324 1621.64 100.021 1621.77 99.7087C1622.97 97.9375 1624.59 96.8326 1626.28 95.5594C1629.66 92.9048 1631.94 90.2459 1634.23 86.5767C1635.42 84.8645 1636.73 83.6679 1638.32 82.3283C1638.69 81.9049 1639.05 81.4815 1639.43 81.0453C1641.27 79.0759 1643.33 77.5344 1645.51 75.9399C1645.95 75.6119 1645.95 75.6119 1646.4 75.2772C1657.21 67.3284 1669.95 60.9848 1683.71 62.8544C1690.24 64.373 1695.4 68.3386 1698.95 73.9567C1708.98 92.1836 1703.11 118.002 1697.73 136.753C1690.02 162.47 1678.86 186.647 1665.48 209.863C1665.14 210.453 1664.8 211.043 1664.45 211.65C1658.89 221.301 1652.9 230.79 1646.29 239.764C1645.33 241.003 1645.33 241.003 1645.74 242.537C1646.12 243.607 1646.5 244.676 1646.89 245.745C1653.91 266.841 1648.33 293.753 1639.01 313.274C1636.77 317.621 1634.24 322.18 1630.37 325.25C1628.12 325.819 1627.01 325.924 1624.96 324.818C1623.44 323.542 1623.13 322.812 1622.63 320.911C1622.48 320.345 1622.33 319.778 1622.18 319.195C1621.44 316.038 1620.79 312.868 1620.15 309.689C1618.88 303.57 1617.41 297.538 1615.71 291.523C1615.51 290.82 1615.32 290.117 1615.11 289.392C1614.23 286.325 1613.3 283.411 1612 280.491C1611.74 280.752 1611.49 281.013 1611.23 281.282C1605.24 287.453 1598.81 293.192 1591.68 298.027C1591.03 298.477 1590.39 298.929 1589.74 299.38C1580.39 305.877 1580.39 305.877 1578.18 305.748C1578.34 306.237 1578.5 306.726 1578.66 307.23C1579.7 311.778 1578.41 315.253 1576.26 319.251C1573.39 323.528 1569.25 327.429 1564.09 328.502C1553.41 329.742 1542.44 324.747 1534.11 318.358C1529.24 314.368 1524.17 310.02 1522.71 303.641C1522.42 298.968 1522.57 294.44 1525.73 290.769C1527.85 288.59 1530.03 287.267 1532.81 286.077C1532.74 285.368 1532.74 285.368 1532.66 284.645C1532.08 278.106 1532.17 271.617 1532.34 265.058C1529.48 267.298 1526.67 269.57 1523.9 271.911C1523.46 272.281 1523.02 272.651 1522.57 273.032C1521.7 273.769 1520.83 274.508 1519.96 275.249C1510.86 282.951 1510.86 282.951 1506.18 282.872C1503.36 282.519 1501.6 281.854 1499.71 279.604C1497.17 274.883 1499.12 269.084 1501.22 264.541ZM1508.66 272.184C1511.03 270.438 1513.28 268.635 1515.47 266.661C1517.49 264.842 1519.55 263.135 1521.72 261.492C1523.56 260.072 1525.35 258.583 1527.14 257.097C1528.91 255.78 1528.91 255.78 1530.43 255.062C1533.8 253.343 1535.64 251.773 1536.83 248.212C1537.48 245.963 1538.02 243.697 1538.54 241.415C1538.77 240.49 1539 239.565 1539.23 238.642C1539.57 237.3 1539.9 235.958 1540.22 234.612C1540.93 231.663 1541.8 228.821 1542.88 225.984C1543.33 224.747 1543.33 224.747 1542.73 223.115C1542.46 223.578 1542.46 223.578 1542.19 224.051C1538.45 230.531 1534.59 236.549 1529.7 242.21C1528.78 243.303 1527.87 244.396 1526.95 245.489C1525.57 247.128 1524.17 248.752 1522.74 250.355C1513.46 260.206 1513.46 260.206 1508.66 272.184ZM1535.23 307.174C1536.48 308.557 1536.48 308.557 1538.02 308.543C1539.73 307.931 1540.97 306.996 1542.43 305.928C1542.11 305.566 1541.8 305.204 1541.48 304.831C1538.65 301.459 1536.65 298.305 1535.17 294.158C1534.6 294.311 1534.03 294.465 1533.44 294.624C1530.77 299.722 1532.02 302.818 1535.23 307.174ZM1548.36 299.112C1548.76 299.44 1549.16 299.767 1549.58 300.105C1554.59 295.874 1557.76 290.063 1561.13 284.505C1561.41 284.03 1561.7 283.555 1562 283.066C1563.89 279.906 1565.53 276.686 1567.03 273.325C1567.59 273.358 1568.15 273.391 1568.72 273.424C1568.46 283.027 1566.79 290.471 1561.93 298.83C1560.77 300.649 1560.77 300.649 1560.79 302.462C1573.06 300.069 1582.9 293.454 1592.41 285.588C1593.2 284.981 1593.99 284.377 1594.78 283.776C1598.97 280.532 1602.87 276.957 1606.54 273.134C1607.19 272.466 1607.87 271.832 1608.57 271.214C1608.62 269.174 1608.51 267.164 1608.41 265.126C1608.46 263.265 1608.46 263.265 1609.69 261.635C1612.39 261.007 1613.95 261.527 1616.44 262.597C1649.47 224.989 1679.78 176.778 1690.82 125.677C1690.47 125.813 1690.12 125.95 1689.76 126.091C1689.3 126.269 1688.83 126.448 1688.36 126.632C1687.9 126.809 1687.44 126.986 1686.97 127.169C1680.15 129.526 1672.2 127.674 1665.87 124.689C1654.23 118.803 1645.29 109.139 1641.03 96.8381C1640.47 95.0604 1639.96 93.2788 1639.49 91.4739C1634.45 92.4265 1630.97 95.5496 1627.86 99.4459C1627.39 100.017 1627.39 100.017 1626.91 100.6C1626.26 101.401 1625.6 102.203 1624.95 103.008C1624.07 104.099 1623.17 105.175 1622.26 106.248C1607.01 124.403 1593.33 144.182 1581.19 164.515C1580.85 165.085 1580.5 165.655 1580.15 166.241C1575.11 174.759 1570.47 183.471 1566.19 192.396C1565.97 192.853 1565.75 193.31 1565.52 193.78C1559.43 206.529 1554.17 219.58 1549.7 232.99C1549.48 233.667 1549.25 234.344 1549.02 235.042C1547.9 238.508 1547.03 241.855 1546.53 245.463C1546.95 245.386 1547.37 245.309 1547.81 245.23C1552.38 244.51 1552.38 244.51 1554.54 245.435C1555.66 246.686 1556.02 247.183 1555.98 248.852C1555.56 250.453 1555.09 251.36 1553.66 252.243C1552.36 252.866 1551.05 253.433 1549.72 253.982C1548.82 254.367 1547.91 254.754 1547.01 255.142C1546.61 255.309 1546.21 255.475 1545.8 255.647C1544.67 256.129 1544.67 256.129 1543.57 257.204C1542.81 259.785 1542.6 262.389 1542.43 265.062C1542.4 265.491 1542.38 265.919 1542.35 266.36C1542.29 267.264 1542.23 268.169 1542.18 269.073C1542.09 270.43 1542 271.786 1541.9 273.142C1541.32 281.98 1541.56 292.509 1548.36 299.112ZM1546.42 315.239C1554.65 319.032 1554.65 319.032 1563.47 319.036C1565.9 317.411 1568.11 315.346 1569.27 312.602C1569.34 311.661 1569.4 310.719 1569.44 309.775C1568.99 309.865 1568.53 309.955 1568.07 310.048C1560.18 311.588 1560.18 311.588 1556.85 311.221C1552.86 310.804 1550.52 310.835 1547.27 313.298C1546.37 314.057 1546.37 314.057 1546.42 315.239ZM1620.79 276.896C1621.11 277.913 1621.11 277.913 1621.45 278.949C1621.57 279.309 1621.68 279.669 1621.81 280.04C1623.77 286.08 1625.59 292.135 1627.16 298.291C1627.31 298.874 1627.46 299.456 1627.61 300.056C1628.38 303.13 1629.05 306.2 1629.6 309.32C1631.05 308.177 1631.72 307.255 1632.35 305.529C1632.52 305.09 1632.68 304.651 1632.85 304.199C1633.1 303.49 1633.1 303.49 1633.35 302.766C1633.53 302.277 1633.7 301.788 1633.88 301.284C1636.77 293.025 1639.08 284.513 1639.6 275.757C1639.63 275.271 1639.66 274.784 1639.69 274.283C1639.75 273.257 1639.82 272.23 1639.87 271.204C1639.97 269.665 1640.07 268.126 1640.17 266.587C1640.54 260.538 1640.54 254.689 1639.95 248.652C1638.48 249.919 1637.17 251.169 1635.98 252.702C1635.69 253.066 1635.4 253.431 1635.11 253.807C1634.81 254.195 1634.5 254.582 1634.19 254.982C1631.61 258.265 1628.98 261.507 1626.29 264.697C1625.99 265.046 1625.7 265.395 1625.39 265.755C1624.03 267.356 1622.66 268.905 1621.18 270.402C1619.12 272.721 1619.88 274.149 1620.79 276.896ZM1641.85 89.9098C1642.12 90.241 1642.38 90.5723 1642.65 90.9136C1643.01 91.3675 1643.37 91.8214 1643.74 92.2891C1644.32 93.031 1644.32 93.031 1644.92 93.7879C1645.6 94.6466 1646.26 95.5095 1646.92 96.3823C1654.4 106.328 1663.71 116.466 1676.45 119.164C1678.72 119.432 1680.94 119.527 1683.22 119.275C1686.26 118.959 1689.43 118.947 1692.28 120.089C1694.98 106.799 1697.53 90.3426 1690.56 77.9211C1688.31 74.6367 1685.28 72.7483 1681.42 71.8329C1669.69 70.3801 1658.34 78.1914 1648.99 84.1928C1648.25 84.6658 1648.25 84.6658 1647.5 85.1483C1647.03 85.4519 1646.56 85.7555 1646.08 86.0682C1645.67 86.3393 1645.25 86.6105 1644.82 86.8898C1643.63 87.7861 1642.77 88.7427 1641.85 89.9098Z" fill="#007961"/>
<path d="M1598.21 157.142C1607.44 146.32 1621.5 140.942 1635.35 139.763C1643.54 139.171 1651.72 140.721 1658.28 145.903C1661.33 148.909 1663.43 152.867 1663.66 157.172C1663.36 164.698 1661.03 170.483 1655.56 175.81C1654.88 176.504 1654.88 176.504 1654.19 177.211C1644.94 186.138 1631.25 191.543 1618.39 191.386C1610.03 191.124 1602.6 189.869 1596.5 183.664C1589.29 175.202 1592.09 165.42 1598.21 157.142ZM1602.87 177.085C1606.15 180.713 1610.93 181.756 1615.65 182.201C1627.64 182.505 1639.03 178.183 1647.94 170.259C1648.3 169.941 1648.65 169.623 1649.02 169.294C1651.9 166.529 1654.1 163.197 1654.51 159.155C1654.34 156.27 1653.61 154.923 1651.69 152.82C1646.68 149.044 1639.94 148.072 1633.78 148.795C1622.72 150.514 1610.95 155.448 1604.15 164.702C1601.76 168.659 1600.01 172.828 1602.87 177.085Z" fill="#007961"/>
<path d="M1491.55 480.47C1491.81 479.982 1491.81 479.982 1492.08 479.485C1492.17 479.316 1492.26 479.146 1492.36 478.972C1493.91 476.129 1495.36 473.285 1496.48 470.24C1497.02 468.827 1497.58 468.004 1498.83 467.076C1499.99 466.593 1500.95 466.89 1502.1 467.319C1503 468.167 1503.45 468.723 1503.85 469.894C1503.81 470.532 1503.81 470.532 1503.69 471.241C1503.64 471.499 1503.6 471.757 1503.55 472.024C1503.37 472.958 1503.17 473.885 1502.95 474.813C1501.2 482.442 1500.58 490.249 1500.03 498.039C1500.01 498.255 1500 498.471 1499.98 498.694C1499.94 499.246 1499.91 499.798 1499.88 500.35C1499.85 500.698 1499.85 500.698 1499.83 501.053C1499.83 501.642 1499.83 501.642 1500.41 502.287C1501.07 503.172 1501.23 503.531 1501.19 504.627C1500.77 506.332 1500.15 507.506 1498.66 508.513C1497.46 508.967 1496.86 508.953 1495.61 508.626C1494.46 508.092 1493.73 507.346 1493.21 506.188C1492.73 504.29 1492.69 502.415 1492.77 500.471C1492.78 500.198 1492.79 499.926 1492.8 499.646C1492.97 495.401 1493.34 491.164 1493.68 486.93C1493.51 487.022 1493.35 487.115 1493.18 487.21C1492.97 487.325 1492.75 487.44 1492.53 487.559C1492.31 487.676 1492.1 487.793 1491.88 487.913C1491.25 488.116 1491.25 488.116 1490.64 487.861C1490.49 487.754 1490.34 487.648 1490.19 487.537C1490.17 487.022 1490.15 486.507 1490.13 485.991C1490.12 485.704 1490.12 485.417 1490.11 485.121C1490.18 483.39 1490.72 481.977 1491.55 480.47Z" fill="#00252B"/>
<path d="M1493.54 461.7C1491.79 462.477 1489.82 462.46 1488.03 461.789C1486.85 461.136 1486.16 460.265 1485.5 459.121C1485.53 458.471 1485.53 458.471 1485.71 458.039C1485.46 457.905 1485.22 457.77 1484.97 457.632C1483.26 456.412 1482.71 454.648 1482.29 452.664C1481.24 445.826 1482.45 438.686 1486.59 433.012C1488.87 430.117 1491.95 427.754 1495.66 427.252C1498.12 427.065 1500.14 427.596 1502.24 428.902C1504.46 430.938 1505.26 433.138 1505.46 436.076C1505.55 445.029 1501.59 457.033 1493.54 461.7ZM1498.87 434.994C1498.83 434.788 1498.79 434.583 1498.75 434.371C1498.49 433.871 1498.49 433.871 1497.84 433.604C1496.13 433.431 1494.8 433.834 1493.45 434.911C1489.78 438.441 1488.32 442.925 1488.12 447.969C1488.15 450.22 1488.54 452.34 1489.25 454.474C1489.42 455.041 1489.42 455.041 1489.58 455.991C1490.78 456.094 1491.44 455.615 1492.41 454.935C1496.63 450.114 1500.12 441.377 1498.87 434.994Z" fill="#00252B"/>
<path d="M1480.08 381.333C1480.4 378.249 1481.3 374.666 1483.57 372.388C1486.36 370.272 1489.32 368.224 1492.92 368.466C1497.53 369.255 1500.81 372.779 1503.33 376.398C1505.32 379.341 1506.81 382.323 1507.25 385.905C1507.28 386.185 1507.32 386.465 1507.35 386.754C1507.72 390.607 1506.72 393.417 1504.57 396.612C1502.09 398.997 1499.26 400.308 1495.83 400.334C1492 400.168 1488.99 398.776 1486.07 396.397C1485.9 396.258 1485.73 396.12 1485.55 395.977C1481.49 392.343 1479.68 386.713 1480.08 381.333ZM1489.57 391.592C1489.76 390.634 1489.45 389.884 1489.17 388.978C1489.12 388.789 1489.06 388.6 1489 388.405C1488.82 387.799 1488.64 387.194 1488.45 386.588C1488.27 385.99 1488.09 385.391 1487.91 384.792C1487.79 384.408 1487.68 384.023 1487.56 383.639C1487.18 382.363 1486.81 381.084 1486.46 379.796C1485.76 382.599 1485.72 385.656 1487.2 388.183C1487.94 389.353 1488.75 390.477 1489.57 391.592ZM1494.84 394.356C1495 394.36 1495.16 394.365 1495.32 394.369C1495.89 394.385 1495.89 394.385 1496.46 394.401C1497.98 394.36 1499.18 393.372 1500.31 392.444C1501.5 391.017 1501.65 388.96 1501.5 387.2C1500.84 382.689 1498.18 378.529 1494.72 375.603C1493.73 374.903 1493.1 374.587 1491.86 374.609C1492.2 378.714 1492.93 382.69 1493.77 386.714C1493.82 386.996 1493.88 387.277 1493.94 387.567C1494.05 388.107 1494.17 388.647 1494.28 389.187C1494.64 390.911 1494.8 392.591 1494.84 394.356Z" fill="#00252B"/>
<path d="M1509.68 348.945C1510.24 348.491 1510.52 348.427 1511.25 348.416C1512.07 348.366 1512.49 348.207 1513.18 347.789C1513.72 347.461 1514.27 347.174 1514.84 346.882C1516.34 346.072 1517.75 345.142 1519.17 344.181C1523.74 341.087 1523.74 341.087 1525.14 341.239C1526.03 341.622 1526.37 341.907 1526.85 342.75C1527.1 343.464 1527.1 343.464 1527.14 344.251C1526.83 344.817 1526.52 345.35 1526.18 345.891C1526.09 346.032 1526.01 346.174 1525.92 346.319C1525.32 347.286 1524.68 348.217 1524.02 349.145C1522.94 350.672 1521.95 352.25 1520.99 353.848C1520.9 353.99 1520.81 354.132 1520.72 354.277C1519.6 356.125 1518.5 357.982 1517.49 359.896C1516.81 361.175 1516.06 362.403 1515.3 363.632C1515.53 363.657 1515.53 363.657 1515.76 363.682C1520.93 364.242 1520.93 364.242 1523.2 364.701C1523.35 364.729 1523.5 364.756 1523.65 364.785C1524.94 365.065 1526.16 365.621 1526.95 366.704C1527.18 367.395 1527.25 367.835 1527.13 368.556C1526.8 369.202 1526.8 369.202 1526.15 369.747C1524.38 370.296 1522.82 370.213 1521.04 369.84C1520.81 369.797 1520.58 369.753 1520.35 369.708C1518.58 369.362 1516.82 368.966 1515.07 368.537C1514.07 368.293 1513.11 368.138 1512.08 368.064C1510.51 367.716 1508.62 366.906 1507.61 365.628C1507.42 365.218 1507.42 365.218 1507.55 364.592C1508.03 363.804 1508.49 363.645 1509.35 363.323C1510.25 362.904 1510.26 362.643 1510.62 361.735C1511.51 359.591 1512.67 357.591 1513.8 355.566C1514.01 355.174 1514.23 354.782 1514.45 354.389C1514.97 353.439 1515.5 352.49 1516.03 351.541C1515.79 351.585 1515.79 351.585 1515.55 351.629C1515.34 351.666 1515.13 351.703 1514.92 351.741C1514.71 351.778 1514.5 351.815 1514.29 351.853C1513.12 352.029 1512.43 351.446 1511.46 350.859C1511.29 350.763 1511.12 350.667 1510.95 350.567C1510.72 350.425 1510.72 350.425 1510.48 350.28C1510.33 350.194 1510.19 350.108 1510.04 350.019C1509.93 349.924 1509.82 349.829 1509.71 349.732C1509.7 349.472 1509.69 349.212 1509.68 348.945Z" fill="#00252B"/>
<path d="M1519.1 387.988C1520.41 386.992 1522.05 386.615 1523.68 386.819C1524.79 387.13 1525.54 387.719 1526.32 388.543C1526.43 389.09 1526.43 389.09 1526.37 389.487C1526.6 389.551 1526.82 389.615 1527.06 389.681C1528.73 390.359 1529.54 391.721 1530.29 393.295C1532.52 398.796 1532.94 404.996 1530.61 410.558C1529.28 413.428 1527.18 416.012 1524.19 417.17C1522.17 417.815 1520.38 417.774 1518.36 417.103C1516.11 415.844 1515 414.167 1514.25 411.753C1512.39 404.297 1513.31 393.487 1519.1 387.988ZM1519.96 411.346C1520.04 411.51 1520.11 411.674 1520.19 411.842C1520.5 412.207 1520.5 412.207 1521.1 412.3C1522.56 412.105 1523.59 411.504 1524.5 410.338C1526.86 406.66 1527.19 402.625 1526.36 398.374C1525.89 396.501 1525.13 394.809 1524.12 393.168C1523.86 392.73 1523.86 392.73 1523.54 391.967C1522.52 392.12 1522.06 392.651 1521.39 393.411C1518.82 398.278 1517.65 406.265 1519.96 411.346Z" fill="#00252B"/>
<path d="M1465.7 476.761C1465.72 476.132 1465.83 475.764 1466.11 475.186C1466.5 474.331 1466.7 473.482 1466.88 472.567C1466.93 472.301 1466.93 472.301 1466.98 472.03C1467.63 468.699 1468.05 465.541 1467.03 462.256C1466.76 461.275 1466.84 460.633 1467.26 459.719C1467.85 459.026 1468.32 458.756 1469.18 458.454C1470.16 458.491 1470.72 458.592 1471.58 459.083C1472.13 459.813 1472.54 460.376 1472.8 461.249C1475.01 468.206 1480.71 479.023 1486.61 483.461C1487.32 484.597 1487.43 485.294 1487.13 486.599C1486.57 487.589 1485.88 487.88 1484.83 488.269C1483.68 488.409 1483.12 487.963 1482.25 487.29C1481.49 486.64 1480.87 485.893 1480.24 485.121C1480.1 484.95 1479.96 484.779 1479.81 484.602C1476.89 481 1474.58 477.121 1472.3 473.095C1472.22 473.292 1472.15 473.489 1472.07 473.692C1471.97 473.952 1471.87 474.212 1471.76 474.481C1471.62 474.866 1471.62 474.866 1471.46 475.26C1470.7 477.086 1469.95 478.532 1468.12 479.418C1467.52 479.636 1467.14 479.587 1466.54 479.363C1465.73 478.546 1465.71 477.903 1465.7 476.761Z" fill="#00252B"/>
<path d="M1479.24 417.378C1482.89 415.874 1486.43 414.735 1490.36 414.296C1490.85 414.24 1490.85 414.24 1491.35 414.184C1493.37 413.993 1494.95 413.97 1496.76 414.973C1497.61 415.977 1497.91 416.924 1497.93 418.237C1497.71 419.246 1497.29 419.842 1496.58 420.585C1495.83 421.046 1495.83 421.046 1494.94 421.493C1494.45 421.742 1494.45 421.742 1493.95 421.997C1492.58 422.672 1491.21 423.346 1489.84 424.016C1486.95 425.431 1484.09 426.863 1481.39 428.615C1481.19 428.745 1480.99 428.875 1480.78 429.009C1478.16 430.678 1478.16 430.678 1476.41 433.116C1476.4 433.361 1476.39 433.606 1476.37 433.859C1476.28 435.212 1476.28 435.212 1475.6 436.12C1473.84 436.98 1473.84 436.98 1472.79 436.808C1471.49 436.359 1470.61 435.801 1469.96 434.598C1469.26 432.795 1469.23 431.537 1469.9 429.723C1471.86 425.629 1477.55 421.839 1481.69 420.212C1481.91 420.147 1482.13 420.082 1482.36 420.014C1482.29 419.831 1482.23 419.649 1482.16 419.46C1481.98 419.443 1481.79 419.425 1481.6 419.407C1480.85 419.297 1480.17 419.103 1479.46 418.86C1479.39 418.371 1479.32 417.882 1479.24 417.378Z" fill="#00252B"/>
<path d="M112.087 780.82C112.917 779.315 113.973 778.24 115.428 777.329C116.727 776.996 117.28 777.019 118.496 777.553C120.132 778.727 120.168 780.013 120.51 781.916C120.688 783.331 120.753 784.702 120.789 786.126C121.015 793.87 122.998 801.275 128.39 807.048C128.898 807.516 129.416 807.974 129.944 808.42C130.184 808.631 130.424 808.841 130.671 809.058C133.441 811.204 136.895 811.834 140.341 811.599C143.821 811.019 146.359 809.949 148.641 807.233C155.011 789.798 142.922 764.941 136.239 749.285C135.614 747.816 134.989 746.346 134.366 744.875C133.983 743.973 133.599 743.071 133.214 742.169C124.329 721.267 119.609 695.307 128.009 673.482C130.385 668.085 134.459 663.432 139.987 661.21C145.551 659.427 152.142 659.61 157.473 662.178C159.434 663.422 160.734 664.716 161.552 666.922C161.784 668.134 161.763 668.872 161.428 670.045C158.65 671.15 155.884 670.519 153.025 670.01C148.772 669.322 145.093 669.822 141.468 672.283C136.35 676.692 135.245 684.52 134.668 690.909C134.211 697.112 134.412 703.308 135.108 709.485C135.159 709.947 135.21 710.41 135.262 710.887C135.827 715.42 136.919 719.735 138.161 724.124C138.267 724.501 138.373 724.877 138.481 725.265C140.422 732.13 142.886 738.646 145.759 745.167C146.886 747.727 147.961 750.309 149.042 752.888C149.377 753.686 149.715 754.482 150.054 755.278C152.391 760.795 154.288 766.322 155.911 772.085C156.061 772.618 156.061 772.618 156.214 773.162C159.463 784.79 163.305 800.796 157.755 812.284C154.866 817.235 150.415 819.723 145.055 821.233C138.839 822.859 132.778 822.156 127.069 819.188C115.305 812.104 106.479 794.277 112.087 780.82Z" fill="#00252B"/>
<path d="M1683.52 533.083C1684.45 529.753 1686.94 528.013 1689.75 526.214C1690.39 525.793 1691.02 525.372 1691.66 524.95C1692 524.731 1692.33 524.512 1692.68 524.286C1698.77 520.282 1704.63 516.067 1710.3 511.49C1710.62 511.233 1710.93 510.977 1711.26 510.712C1713.44 508.951 1715.61 507.179 1717.78 505.402C1725.06 499.428 1732.43 493.578 1739.96 487.905C1740.82 487.255 1741.68 486.604 1742.54 485.951C1751.49 479.161 1760.76 473.871 1770.95 469.179C1771.84 468.762 1772.74 468.345 1773.63 467.928C1775.78 466.925 1777.94 465.929 1780.09 464.936C1780.96 465.621 1780.96 465.621 1781.85 466.32C1781.59 468.107 1781.59 468.107 1780.43 469.106C1779.91 469.464 1779.4 469.823 1778.87 470.192C1778.3 470.597 1777.73 471.003 1777.17 471.41C1776.73 471.722 1776.73 471.722 1776.29 472.041C1773.92 473.782 1771.7 475.714 1769.45 477.602C1768.91 478.058 1768.36 478.513 1767.82 478.969C1766.74 479.873 1765.65 480.778 1764.57 481.684C1763.33 482.724 1762.09 483.761 1760.84 484.796C1750.25 493.597 1739.73 502.489 1729.38 511.563C1725.9 514.599 1722.36 517.534 1718.77 520.436C1720.75 520.368 1722.56 520.073 1724.48 519.612C1725.07 519.471 1725.67 519.331 1726.28 519.186C1727.23 518.956 1727.23 518.956 1728.2 518.722C1728.87 518.564 1729.53 518.406 1730.2 518.248C1732.3 517.748 1734.41 517.244 1736.52 516.74C1738.95 516.158 1741.39 515.577 1743.82 514.999C1744.79 514.769 1745.76 514.536 1746.72 514.303C1756.09 512.078 1756.09 512.078 1758.69 512.824C1760.23 513.991 1761.02 514.984 1761.88 516.72C1762.02 518.66 1761.95 520.321 1761.08 522.079C1759.87 523.235 1758.87 523.692 1757.37 524.416C1743.45 532.212 1733.73 548.311 1726.11 561.829C1743.21 554.289 1758.91 544.205 1774.76 534.384C1794.31 522.27 1794.31 522.27 1802.53 518.381C1803.01 518.143 1803.48 517.904 1803.98 517.658C1807.02 516.207 1809.16 515.69 1812.53 516.09C1814.06 516.693 1814.68 517.215 1815.47 518.66C1816.29 520.679 1816.49 521.719 1815.96 523.885C1814.74 526.3 1813.29 526.847 1810.9 527.922C1806.65 529.889 1802.58 532.105 1798.52 534.443C1798.16 534.648 1797.8 534.853 1797.43 535.065C1788.84 539.982 1780.4 545.15 1771.98 550.343C1768.84 552.277 1765.69 554.206 1762.55 556.136C1761.47 556.797 1760.4 557.46 1759.32 558.122C1754.37 561.17 1749.39 564.145 1744.2 566.782C1743.87 566.951 1743.54 567.12 1743.2 567.294C1742.15 567.831 1741.09 568.365 1740.04 568.897C1739.49 569.173 1739.49 569.173 1738.94 569.454C1733.01 572.444 1727.04 575.259 1720.82 577.614C1720.42 577.768 1720.02 577.921 1719.6 578.079C1718.43 578.519 1717.26 578.947 1716.08 579.368C1715.74 579.492 1715.4 579.616 1715.05 579.744C1712.53 580.6 1710.26 580.917 1707.7 580.1C1706.23 578.967 1705.16 577.628 1704.51 575.896C1704.26 573.697 1704.45 572.753 1705.65 570.872C1706.13 570.275 1706.62 569.682 1707.11 569.094C1710.65 564.64 1713.4 559.821 1716.19 554.879C1719.88 548.398 1723.84 542.249 1728.23 536.224C1728.56 535.775 1728.88 535.325 1729.22 534.863C1729.53 534.441 1729.84 534.02 1730.16 533.587C1730.43 533.208 1730.71 532.83 1731 532.441C1731.74 531.488 1731.74 531.488 1732.89 530.394C1730.93 530.803 1728.98 531.217 1727.03 531.632C1726.39 531.768 1725.75 531.904 1725.09 532.044C1720.34 533.059 1715.61 534.128 1710.88 535.216C1709.66 535.496 1708.44 535.776 1707.21 536.056C1705.37 536.479 1703.53 536.903 1701.69 537.332C1699.94 537.739 1698.19 538.14 1696.44 538.541C1695.91 538.666 1695.38 538.79 1694.84 538.919C1691.68 539.634 1688.91 540.141 1685.87 538.724C1684.16 536.934 1683.48 535.59 1683.52 533.083Z" fill="#00252B"/>
</svg>
