<svg width="708" height="343" viewBox="0 0 708 343" fill="none" xmlns="http://www.w3.org/2000/svg">
<path d="M17.2327 22.0865C18.022 20.3163 18.022 20.3163 19.6446 18.3205C22.6417 17.288 22.6417 17.288 26.3104 16.5156C27.4981 16.2582 28.6857 16.0008 29.9092 15.7357C30.8932 15.5294 30.8932 15.5294 31.8971 15.3189C34.4058 14.7605 36.8858 14.1144 39.3739 13.4703C75.4033 4.49813 112.788 4.20586 149.571 7.00195C149.913 6.41087 150.254 5.81978 150.606 5.21078C152.712 2.19047 154.729 1.76376 158.267 0.887555C164.119 0.616717 168.24 1.96705 172.95 5.39592C177.593 8.66938 181.639 9.65754 187.25 10.111C188.773 10.2538 190.296 10.398 191.818 10.5434C192.587 10.6147 193.356 10.6859 194.149 10.7593C323.199 23.3169 323.199 23.3169 357.615 59.3477C360.843 63.6075 362.681 67.4817 362.793 72.9287C361.735 76.9501 360.813 79.0377 357.644 81.746C354.669 83.1265 354.669 83.1265 351.089 83.6884C342.245 85.3778 336.208 94.5733 331.364 101.652C326.579 109.032 322.933 116.946 319.298 124.932C319.001 125.578 318.705 126.225 318.4 126.891C310.393 144.464 304.332 162.549 299.054 181.105C298.509 183.004 297.964 184.903 297.419 186.802C293.718 199.746 290.156 212.725 286.701 225.736C286.483 226.551 286.266 227.367 286.042 228.206C285.433 230.5 284.829 232.794 284.229 235.09C284.051 235.759 283.873 236.429 283.69 237.118C283.238 238.864 282.825 240.62 282.416 242.376C282.083 243.711 282.083 243.711 281.743 245.072C281.653 247.537 281.653 247.537 283.816 249.357C284.741 249.992 285.666 250.627 286.619 251.281C287.649 251.99 288.679 252.699 289.741 253.429C295.196 256.942 300.749 260.248 306.382 263.468C307.598 264.168 308.814 264.868 310.031 265.569C313.529 267.58 317.035 269.577 320.541 271.574C321.457 272.099 322.373 272.624 323.316 273.166C347.39 286.959 372.89 295.227 399.705 301.994C400.457 302.184 401.208 302.374 401.983 302.57C411.109 304.97 411.109 304.97 420.424 306.335C420.557 305.331 420.69 304.326 420.827 303.29C421.026 301.952 421.226 300.615 421.427 299.277C421.511 298.617 421.596 297.957 421.683 297.277C422.461 292.294 423.805 289.302 427.618 285.982C430.478 285.306 432.773 284.974 435.66 284.826C437.326 284.692 438.99 284.552 440.655 284.407C441.525 284.333 442.396 284.26 443.293 284.184C447.673 283.729 451.98 282.899 456.312 282.121C466.115 280.429 475.929 279.501 485.837 278.725C486.919 278.639 486.919 278.64 488.022 278.552C500.115 277.605 500.115 277.605 504.884 278.112C505.129 275.815 505.373 273.518 505.625 271.151C505.072 271.247 504.52 271.343 503.951 271.442C491.432 272.9 477.889 270.491 465.418 269.199C464.402 269.095 463.386 268.991 462.339 268.884C443.308 266.894 424.907 263.384 406.397 258.583C405.974 256.653 405.974 256.653 405.826 254.5C409.16 251.807 412.802 252.467 416.919 252.479C417.831 252.475 418.744 252.472 419.684 252.468C422.7 252.46 425.716 252.467 428.732 252.474C429.763 252.474 430.795 252.474 431.858 252.473C446.659 252.468 461.432 252.763 476.222 253.316C533.436 255.411 585.335 244.678 639.266 225.66C641.947 224.715 644.628 223.771 647.31 222.828C650.845 221.584 654.376 220.332 657.906 219.074C659.555 218.491 661.204 217.909 662.853 217.326C663.594 217.06 664.335 216.793 665.099 216.519C670.269 214.702 675.453 213.421 680.828 212.356C678.214 176.358 674.815 140.89 668.07 105.406C667.427 101.986 666.786 98.5656 666.145 95.145C585.805 102.014 505.578 110.668 426.027 124C417.927 125.355 409.83 126.643 401.683 127.686C400.959 127.78 400.234 127.874 399.488 127.971C396.588 128.328 394.018 128.544 391.101 128.234C391.444 129.482 391.787 130.731 392.14 132.017C401.008 165.391 404.649 199.411 404.615 233.909C404.614 234.852 404.613 235.796 404.613 236.768C404.437 239.172 403.97 240.941 403.012 243.139C401.665 243.327 400.317 243.516 398.929 243.71C396.706 235.506 394.951 227.2 393.147 218.896C392.667 216.696 392.186 214.496 391.706 212.296C391.389 210.843 391.074 209.39 390.759 207.937C389.969 204.298 389.168 200.663 388.342 197.032C388.183 196.325 388.023 195.619 387.859 194.891C387.421 192.95 386.979 191.01 386.536 189.071C385.96 186.014 385.96 186.014 386.277 183.031C385.586 183.289 384.895 183.548 384.183 183.814C378.943 183.661 375.526 182.981 371.573 179.455C370.393 177.116 369.456 174.749 368.528 172.3C367.229 169.204 365.31 166.992 363.11 164.476C359.931 160.449 357.85 157.202 358.413 151.909C360.599 146.589 364.288 144.656 369.161 142.092C371.928 141.138 373.734 141.255 376.587 141.774C376.31 140.97 376.033 140.165 375.747 139.336C375.392 138.289 375.036 137.243 374.67 136.165C374.314 135.124 373.958 134.083 373.592 133.01C372.779 130.307 372.779 130.307 372.991 128.318C371.959 128.271 370.927 128.223 369.863 128.174C365.688 127.525 363.625 126.63 360.381 123.96C358.482 121.032 357.948 119.186 357.803 115.703C358.769 111.886 360.43 109.947 363.174 107.161C366.768 105.281 368.41 104.926 372.441 105.13C376.745 106.641 380.334 108.45 383.844 111.371C385.878 111.561 385.878 111.561 388.157 111.269C389.058 111.182 389.959 111.095 390.887 111.006C391.886 110.893 392.884 110.78 393.913 110.663C394.977 110.549 396.041 110.436 397.136 110.318C412.378 108.589 427.506 106.006 442.637 103.513C447.515 102.71 452.395 101.918 457.275 101.125C461.063 100.509 464.85 99.8914 468.637 99.269C472.376 98.655 476.115 98.0497 479.856 97.4504C480.727 97.3099 481.598 97.1695 482.496 97.0247C485.874 96.5099 488.565 96.3656 492 96.7311C491.257 95.359 491.257 95.359 490.5 93.9592C489.866 92.731 489.233 91.5022 488.602 90.2729C488.109 89.3736 488.109 89.3736 487.607 88.4562C485.848 84.9709 485.397 83.112 485.987 79.2155C487.384 75.4935 487.919 74.2203 491.556 72.5484C494.343 72.6595 497.001 73.0036 499.75 73.4751C502.76 73.7351 504.841 73.2301 507.678 72.2523C507.425 71.3257 507.172 70.3992 506.912 69.4446C505.009 62.1128 503.634 55.3754 504.25 47.7522C503.539 47.6143 502.828 47.4764 502.095 47.3343C498.303 45.7878 497.008 44.2746 494.941 40.728C493.761 35.0832 494.604 30.6626 497.542 25.7315C502.32 19.1204 507.538 14.3777 515.782 13.0195C519.586 13.0069 521.718 14.4336 524.646 16.7358C527.049 19.2509 528.006 20.9458 528.267 24.4276C527.991 30.1943 526.503 33.6291 522.592 37.848C519.926 41.0554 519.755 42.8418 520.118 47.0716C520.328 48.4936 520.548 49.9141 520.777 51.3331C520.934 52.3853 520.934 52.3853 521.095 53.4588C521.774 57.9438 522.543 62.4119 523.334 66.8784C525.11 66.6318 525.11 66.6318 526.923 66.3802C548.879 63.4969 548.879 63.4969 556.44 67.6349C558.716 71.5838 559.399 75.5039 560.163 79.9731C560.837 82.9003 561.822 84.7196 563.406 87.2318C564.671 87.0997 564.671 87.0997 565.962 86.9649C574.049 86.1213 582.136 85.2814 590.224 84.4451C594.378 84.0154 598.533 83.5844 602.687 83.1503C618.873 81.4599 635.062 79.7863 651.279 78.4278C652.391 78.328 653.502 78.2281 654.646 78.1253C661.248 77.6027 666.272 77.2101 671.604 81.6468C672.721 81.8693 673.838 82.0919 674.989 82.3212C678.459 83.3817 678.459 83.3817 680.274 85.7039C682.056 89.0564 683.009 92.1608 683.921 95.842C684.375 97.6423 684.375 97.6423 684.838 99.4789C685.058 100.388 685.278 101.296 685.504 102.233C688.57 102.723 688.57 102.723 691.838 101.775C696.369 101.214 698.458 101.793 702.409 104.031C706.049 108.418 706.499 111.893 706.123 117.454C706.005 118.51 705.888 119.567 705.766 120.656C705.641 121.806 705.515 122.956 705.386 124.141C705.251 125.331 705.116 126.522 704.976 127.748C704.843 128.959 704.71 130.169 704.573 131.416C704.244 134.397 703.91 137.378 703.572 140.358C704.484 140.852 704.484 140.852 705.414 141.356C707.338 142.77 707.338 142.77 707.989 146.108C707.49 150.793 706.49 152.264 702.98 155.38C700.869 156.311 700.869 156.311 698.613 157.103C697.861 157.371 697.109 157.639 696.334 157.915C695.762 158.112 695.19 158.308 694.601 158.511C694.678 159.393 694.678 159.393 694.755 160.292C695.286 166.449 695.804 172.606 696.314 178.764C696.505 181.058 696.7 183.351 696.899 185.644C697.184 188.953 697.458 192.263 697.729 195.573C697.819 196.587 697.91 197.6 698.003 198.645C698.671 207.042 699.368 215.889 694.222 223.037C688.969 228.296 680.971 230.578 674.014 232.687C665.442 235.385 656.991 238.361 648.553 241.445C619.498 252.044 589.863 261.309 559.385 266.814C559.797 269.181 560.209 271.548 560.633 273.987C582.257 271.439 603.865 268.827 625.39 265.54C626.2 265.416 627.009 265.293 627.843 265.165C637.702 263.649 647.537 262.057 657.248 259.752C661.658 258.742 665.328 258.624 669.784 259.452C673.026 261.769 674.136 263.088 675.016 266.985C674.629 270.619 673.734 272.107 671.18 274.685C669.651 275.02 669.651 275.02 668.091 275.362C668.146 279.256 668.214 283.148 668.31 287.041C668.374 289.812 668.357 292.536 668.279 295.31C667.93 301.202 667.93 301.202 670.471 306.162C672.367 307.276 672.367 307.276 674.421 308.212C679.672 311.282 682.71 317.437 685.167 322.81C686.004 327.893 686.106 332.489 684.614 337.459C682.591 340.161 681.437 340.528 678.119 341.796C674.692 341.315 672.291 340.719 669.381 338.855C668.617 339.603 667.853 340.352 667.066 341.123C663.88 343.298 663.88 343.298 660.334 343.549C657 342.581 655.499 341.819 653.425 339.065C651.208 334.369 651.467 328.891 651.248 323.79C651.144 321.867 651.144 321.867 651.038 319.905C650.349 306.456 650.372 292.993 650.552 279.53C648.788 279.82 648.788 279.82 646.989 280.115C606.046 286.809 565.322 291.603 523.892 293.8C521.259 293.94 518.625 294.083 515.992 294.226C488.006 295.744 460.764 296.824 432.844 293.578C433.191 294.432 433.538 295.287 433.896 296.168C436.627 303.141 438.997 310.096 440.809 317.366C440.995 318.07 441.18 318.773 441.371 319.498C442.591 324.644 442.81 329.551 441.539 334.728C439.47 337.103 438.073 337.975 435.119 338.948C432.248 338.817 430.659 337.953 428.295 336.336C426.372 333.682 425.224 330.945 424.169 327.852C423.653 329.197 423.653 329.197 423.126 330.57C421.444 333.802 420.648 334.942 417.251 336.167C414.257 335.774 412.876 335.164 410.803 332.967C409.358 329.101 409.602 325.376 409.782 321.293C408.491 321.135 408.491 321.135 407.173 320.973C375.357 316.401 342.67 305.879 315.76 288.161C315.027 287.686 314.294 287.212 313.539 286.722C299.986 277.874 289.067 267.784 279.052 255.092C278.727 256.152 278.727 256.152 278.395 257.234C277.403 260.457 276.405 263.677 275.408 266.898C275.067 268.01 274.725 269.122 274.374 270.268C274.038 271.347 273.703 272.426 273.358 273.538C273.052 274.528 272.747 275.517 272.432 276.536C271.403 279.518 270.164 282.329 268.812 285.177C267.206 284.675 265.6 284.172 263.946 283.654C266.46 256.919 269.048 230.558 275.392 204.42C275.712 203.061 276.031 201.702 276.349 200.342C280.152 184.13 284.492 168.156 289.671 152.326C289.895 151.642 290.119 150.957 290.35 150.252C292.36 144.144 294.389 138.14 297.142 132.317C296.397 132.562 295.651 132.806 294.883 133.058C288.843 134.542 282.301 133.749 276.897 130.603C271.161 126.408 268.038 120.592 265.914 113.91C265.411 114.524 264.907 115.138 264.388 115.771C255.334 126.535 255.334 126.535 248.436 128.141C243.452 127.61 239.572 126.009 236.122 122.29C232.604 117.475 229.891 112.214 230.539 106.124C226.229 108.608 222.827 111.631 219.23 115.016C215.387 118.611 211.638 122.081 206.547 123.684C204.382 122.763 204.382 122.763 202.781 121.272C201.331 117.392 202.158 113.204 203.056 109.234C204.196 107.305 204.196 107.305 205.51 105.661C208.029 102.992 208.029 102.992 207.749 100.238C207.356 97.8983 206.834 95.6567 206.254 93.358C204.615 85.146 205.766 76.6419 206.399 68.3581C207.782 67.8415 209.164 67.3248 210.588 66.7925C212.572 69.1202 214.095 71.4557 215.537 74.1503C215.945 74.91 216.354 75.6697 216.775 76.4524C217.193 77.2391 217.612 78.0257 218.043 78.8363C218.472 79.6357 218.901 80.4352 219.343 81.2589C220.398 83.2266 221.45 85.196 222.5 87.1669C227.695 81.4212 232.397 75.5155 236.811 69.1462C238.828 66.6742 240.108 65.4309 243.043 64.2115C250.725 63.5315 259.437 63.6387 265.703 68.6334C268.338 71.7285 270.583 74.9659 272.706 78.4292C273.467 77.5146 274.228 76.6 275.012 75.6576C276.324 75.7973 277.637 75.9369 278.989 76.0808C280.407 83.4674 281.143 90.7734 281.477 98.2768C281.786 104.024 282.193 110.432 285.908 115.031C289.273 115.869 289.273 115.869 292.974 114.777C298.937 109.332 300.076 102.005 300.599 94.2815C300.578 84.5884 298.567 76.8954 293.126 68.8522C292.086 66.412 292.086 66.412 292.526 63.3437C293.731 60.5136 294.313 59.2996 297.015 57.8857C301.089 57.664 304.623 58.9417 307.906 61.307C315.317 68.5544 316.964 78.5565 318.913 88.3733C319.778 87.2811 319.778 87.2811 320.66 86.1668C332.318 71.7498 332.318 71.7498 338.101 70.6278C339.003 70.5623 339.003 70.5623 339.922 70.4955C340.027 69.5111 340.132 68.5266 340.24 67.5124C294.794 42.2911 240.963 33.8751 189.923 28.2651C189.004 28.1627 188.085 28.0602 187.139 27.9546C186.302 27.8677 185.465 27.7808 184.602 27.6912C183.873 27.6148 183.144 27.5384 182.393 27.4596C180.497 27.2794 180.497 27.2794 178.493 28.1804C174.049 27.9157 169.973 26.911 165.672 25.8108C164.018 25.5992 162.362 25.4079 160.7 25.2818C160.6 25.8662 160.5 26.4506 160.397 27.0528C159.49 31.7971 158.608 35.1242 155.241 38.7801C150.787 38.1288 148.836 37.5533 145.805 34.1308C143.902 30.25 143.817 27.744 143.795 23.4834C113.564 22.9682 84.158 23.8774 54.1257 27.787C42.2444 29.2946 30.1798 29.0372 19.0099 24.2869C18.4234 23.5607 17.8369 22.8346 17.2327 22.0865ZM247.444 107.922C254.361 102.915 255.354 94.2375 256.669 86.3043C256.795 85.4789 256.92 84.6535 257.049 83.8031C255.478 82.9722 253.908 82.1414 252.289 81.2854C247.956 85.5478 247.275 89.1641 246.604 95.1367C246.474 96.2299 246.343 97.3231 246.209 98.4494C246.086 101.859 246.573 104.636 247.444 107.922ZM505.35 94.1288C510.668 94.0947 515.816 93.7948 521.104 93.161C521.793 93.0795 522.482 92.998 523.192 92.9141C525.361 92.6567 527.53 92.3939 529.698 92.1309C531.182 91.9539 532.666 91.7772 534.151 91.6009C537.76 91.1712 541.369 90.7367 544.978 90.2995C544.273 87.5696 543.568 84.8397 542.841 82.027C534.396 82.504 526.725 84.3382 518.595 86.6128C517.357 86.9517 516.119 87.2906 514.844 87.6397C511.818 88.4693 508.795 89.3066 505.774 90.1513C505.634 91.4639 505.494 92.7765 505.35 94.1288ZM520.646 271.744C521.259 274.433 521.259 274.433 522.106 276.927C525.244 276.783 528.381 276.634 531.518 276.483C532.409 276.442 533.299 276.401 534.217 276.359C535.073 276.318 535.93 276.276 536.813 276.233C537.602 276.196 538.39 276.159 539.203 276.12C541.497 275.988 541.497 275.988 544.406 275.277C544.65 272.98 544.895 270.683 545.146 268.316C541.288 268.52 537.432 268.744 533.575 268.971C532.474 269.029 531.373 269.087 530.239 269.146C529.192 269.21 528.144 269.273 527.066 269.339C526.096 269.394 525.126 269.449 524.128 269.505C523.377 269.622 522.626 269.74 521.852 269.861C521.454 270.482 521.056 271.103 520.646 271.744Z" fill="#00FFD4"/>
<path d="M40.816 86.9453C41.1231 85.1735 41.1231 85.1735 41.4365 83.3658C42.1829 80.2931 43.1398 77.9937 44.7579 75.2969C49.4019 76.5452 49.4019 76.5452 51.4013 79.0206C51.9685 78.5624 52.5358 78.1043 53.1203 77.6322C55.6962 76.4606 55.6962 76.4606 59.1144 76.8243C63.2336 78.4678 64.6212 79.9842 66.9941 83.6964C67.7769 85.791 68.5597 87.8856 69.3425 89.9801C73.0828 95.1029 76.5928 98.5197 82.2061 101.405C83.3642 88.398 82.8461 75.1712 75.2158 64.1283C74.2934 62.3488 74.2934 62.3488 74.6346 58.5511C76.6246 54.186 76.6246 54.186 79.3289 52.8281C82.9072 51.8574 84.3853 52.3534 87.8301 53.8582C95.7655 59.3495 97.9756 70.0198 99.6609 79.1266C99.9194 78.5241 100.178 77.9216 100.444 77.3008C100.79 76.5157 101.135 75.7305 101.491 74.9216C102.001 73.7508 102.001 73.7508 102.52 72.5563C103.596 70.4945 103.596 70.4945 105.796 68.7173C107.767 69.1037 107.767 69.1037 109.668 70.1348C113.161 77.2854 114.1 85.0583 115.296 92.8577C115.483 91.8094 115.669 90.7611 115.862 89.681C117.469 81.4556 118.822 75.2119 125.79 69.8387C128.021 70.1389 128.021 70.1389 130.656 71.362C134.652 77.9066 133.908 83.246 132.879 90.6429C132.748 91.7004 132.618 92.7579 132.483 93.8475C132.16 96.4402 131.819 99.0289 131.46 101.617C134.12 101.568 136.78 101.519 139.521 101.469C139.691 100.573 139.862 99.6772 140.038 98.7543C141.553 91.6505 143.462 85.2188 146.779 78.7341C147.083 78.1149 147.386 77.4956 147.698 76.8576C148.627 75.1359 148.627 75.136 150.65 72.4835C153.431 71.8601 153.431 71.8601 155.727 72.018C156.782 76.2317 157.218 79.9468 157.07 84.2836C157.036 85.3948 157.002 86.5061 156.967 87.651C156.925 88.795 156.882 89.939 156.838 91.1177C156.801 92.2856 156.763 93.4535 156.725 94.6568C156.632 97.5273 156.532 100.397 156.426 103.267C159.145 103.128 161.863 102.975 164.582 102.815C165.342 102.777 166.103 102.74 166.886 102.701C170.63 102.471 174.014 102.085 177.59 100.919C182.082 99.4657 184.311 99.5853 188.881 100.686C191.197 103.132 191.197 103.132 192.329 106.081C191.957 109.578 190.287 112.545 187.951 115.185C177.338 123.07 161.774 121.169 149.558 119.648C148.731 119.546 147.904 119.444 147.052 119.338C146.311 119.242 145.57 119.145 144.807 119.045C142.63 118.898 140.766 119.171 138.611 119.474C135.11 119.321 131.634 118.917 128.15 118.549C127.204 118.461 126.258 118.373 125.284 118.282C123.916 118.139 123.916 118.139 122.521 117.994C121.692 117.909 120.863 117.825 120.009 117.739C117.534 117.21 115.991 116.325 113.963 114.84C113.893 115.496 113.823 116.153 113.751 116.829C110.936 117.844 109.015 118.358 106.033 117.893C101.705 115.799 100.117 112.542 98.5817 108.175C98.2231 108.683 97.8644 109.191 97.4949 109.714C92.2957 116.759 92.2957 116.759 87.4742 118.056C79.7653 119.153 73.2032 116.958 66.7547 112.717C65.0807 111.473 65.0808 111.473 63.0178 111.62C60.8661 112.126 60.8661 112.126 58.982 113.516C55.7039 115.286 53.2718 115.292 49.5816 115.03C45.8724 112.844 42.8951 110.217 41.573 106.047C41.4196 105.271 41.2662 104.495 41.1082 103.695C40.9491 102.924 40.7901 102.152 40.6262 101.358C39.7839 96.2384 39.8911 92.0848 40.816 86.9453Z" fill="#00FFD4"/>
<path d="M27.9797 242.46C31.1667 241.269 33.7097 241.875 37.035 242.418C39.5706 243.619 39.5706 243.619 42.1351 245.286C43.2148 245.958 44.2944 246.63 45.4067 247.323C46.023 247.709 46.6392 248.094 47.2741 248.491C66.9002 260.615 87.5012 270.945 108.086 281.31C110.055 282.302 112.022 283.297 113.989 284.292C138.456 296.663 163.017 308.086 189.007 316.913C190.249 317.337 190.249 317.337 191.516 317.77C199.279 320.367 207.062 322.131 215.181 323.154C215.918 323.255 216.654 323.356 217.414 323.46C222.562 323.985 225.569 323.04 229.883 320.256C235.838 315.302 238.794 308.541 241.689 301.509C244.572 294.517 247.567 288.978 252.902 283.485C253.663 282.57 254.424 281.656 255.208 280.713C256.486 281.181 257.763 281.649 259.08 282.131C261.759 296.825 257.728 313.077 249.453 325.355C243.111 333.137 235.993 339.217 225.983 341.258C171.839 346.76 77.8707 295.472 36.1369 261.567C30.0436 255.925 25.0303 250.908 27.9797 242.46Z" fill="#00FFD4"/>
<path d="M139.986 153.812C140.376 151.867 140.71 149.911 140.987 147.947C142.258 140.918 144.362 137.505 150.056 133.01C156.986 129.146 162.983 127.929 170.685 129.925C175.94 133.29 178.966 137.272 180.576 143.297C181.839 157.077 175.858 167.744 167.281 178.058C165.057 180.673 165.057 180.673 163.873 184.511C167.447 185.223 171.022 185.935 174.705 186.669C174.788 185.309 174.87 183.949 174.955 182.547C175.96 173.229 179.042 164.408 184.054 156.504C185.182 154.552 185.814 152.739 186.463 150.585C189.037 143.327 194.792 140.282 201.425 136.967C210.057 133.076 216.407 130.742 225.588 133.755C226.477 134.855 226.477 134.855 226.843 137.911C226.323 141.875 224.297 143.461 221.221 145.861C214.014 150.677 204.021 155.596 195.206 154.658C194.753 158.924 194.299 163.19 193.831 167.585C195.255 167.073 196.678 166.561 198.145 166.033C202.083 164.777 205.096 163.96 209.17 165.195C210.98 167.084 210.98 167.084 211.73 169.489C210.934 171.919 210.934 171.919 209.212 174.25C206.151 175.295 206.151 175.295 202.566 175.868C201.385 176.071 200.203 176.273 198.985 176.481C195.862 176.852 195.862 176.852 192.879 176.535C192.565 179.488 192.251 182.441 191.927 185.484C195.283 185.296 198.634 185.084 201.987 184.857C203.392 184.782 203.392 184.782 204.826 184.706C210.729 184.285 215.348 183.17 220.655 180.52C222.711 179.708 222.711 179.708 226.577 179.994C229.566 181.443 229.566 181.443 231.398 183.712C232.264 187.918 231.429 190.923 229.185 194.476C222.094 201.669 211.885 202.038 202.324 202.366C200.999 202.421 200.999 202.421 199.647 202.476C194.151 202.66 188.899 202.513 183.475 201.492C181 201.286 181 201.286 178.173 202.594C172.428 204.682 166.834 203.658 160.974 202.304C157.245 200.529 153.312 198.444 150.67 195.174C149.909 196.089 149.148 197.003 148.364 197.946C147.052 197.806 145.739 197.666 144.387 197.523C141.199 188.095 138.774 178.909 137.807 168.979C137.716 168.128 137.626 167.277 137.532 166.401C137.12 161.356 137.576 158.377 139.986 153.812ZM152.16 156.364C153.534 159.38 154.222 162.201 154.838 165.448C159.805 161.016 163.059 155.987 163.784 149.304C163.827 148.313 163.87 147.322 163.915 146.301C158.724 146.065 155.019 148.674 151.242 151.992C150.841 154.117 150.841 154.117 152.16 156.364Z" fill="#00FFD4"/>
<path d="M101.226 225.111C105.702 226.115 108.133 228.174 111.442 231.289C112.781 232.538 112.781 232.538 114.147 233.812C114.819 234.453 115.492 235.093 116.184 235.753C116.817 234.718 117.449 233.682 118.101 232.614C118.955 231.242 119.809 229.871 120.664 228.499C121.078 227.818 121.492 227.137 121.919 226.435C124.563 222.222 127.1 219.031 131.333 216.247C135.25 216.048 137.326 216.233 140.441 218.661C142.462 222.578 142.636 226.191 142.884 230.549C142.955 231.636 143.026 232.724 143.099 233.844C143.284 236.793 143.451 239.742 143.604 242.693C143.938 241.797 143.938 241.797 144.279 240.883C146.661 234.831 149.613 229.801 153.569 224.646C154.712 225.017 154.712 225.017 155.878 225.395C160.559 226.813 163.533 225.495 168.107 224.056C170.941 223.428 172.932 223.375 175.763 223.99C177.54 226.191 177.54 226.191 177.664 229.158C177.288 230.642 177.288 230.643 176.905 232.157C173.1 234.404 169.511 235.093 165.16 235.621C164.071 235.758 162.982 235.895 161.86 236.036C161.037 236.132 160.214 236.227 159.366 236.325C159.649 238.346 159.649 238.346 159.937 240.408C161.661 239.756 161.661 239.756 163.42 239.09C164.944 238.516 166.468 237.942 167.991 237.368C168.747 237.082 169.503 236.795 170.282 236.5C180.855 232.527 180.855 232.527 184.412 233.081C187.452 234.552 188.72 235.595 190.298 238.61C190.063 242.683 189.765 245.069 186.955 248.056C179.535 253.647 171.864 254.102 162.907 252.996C160.656 252.552 160.656 252.552 158.773 251.347C158.18 256.925 157.586 262.504 156.975 268.251C166.064 266.75 166.064 266.75 174.783 263.923C179.088 262.182 183.16 261.775 187.759 262.475C190.201 263.741 190.201 263.741 191.419 265.882C191.704 269.27 191.454 271.557 189.672 274.511C183.473 281.493 171.837 284.345 162.812 285.465C156.552 285.731 151.367 284.927 146.152 281.367C142.533 277.635 140.987 274.468 139.753 269.436C139.157 269.442 138.561 269.449 137.948 269.456C131.649 269.219 131.649 269.219 129.229 267.114C126.872 263.739 126.449 262.151 126.889 258.011C126.362 258.287 125.835 258.562 125.292 258.847C121.569 259.895 118.565 259.266 114.745 258.73C114.913 259.416 115.082 260.101 115.255 260.807C116.9 268.236 116.9 268.236 115.8 271.853C113.825 274.13 112.733 275.307 109.858 276.312C104.35 275.726 104.35 275.726 102.008 274.471C92.837 262.968 95.6526 237.737 101.226 225.111Z" fill="#00FFD4"/>
<path d="M447.824 143.319C447.998 141.678 448.173 140.038 448.353 138.347C476.19 127.916 476.19 127.916 486.309 131.323C488.061 132.578 488.061 132.578 488.974 134.624C488.927 137.352 488.552 139.868 488.128 142.579C488.997 142.625 489.866 142.67 490.761 142.717C500.168 143.421 500.168 143.421 504.364 145.94C509.007 151.397 512.42 156.181 512.375 163.61C511.075 177.193 506.547 186.681 497.437 196.868C496.909 197.474 496.38 198.081 495.835 198.705C489.734 205.092 479.932 210.304 471.013 210.52C465.007 210.016 460.559 209.289 456.015 205.162C451.161 199.365 449.447 193.294 450.024 185.853C451.709 171.791 459.703 159.818 470.568 151.081C471.513 150.369 472.459 149.657 473.433 148.923C474.486 148.108 474.486 148.108 475.561 147.276C475.596 146.947 475.631 146.619 475.667 146.281C474.89 146.234 474.113 146.187 473.313 146.139C469.81 145.924 466.307 145.702 462.804 145.478C460.971 145.368 460.971 145.368 459.1 145.255C457.935 145.18 456.77 145.105 455.569 145.027C454.492 144.96 453.414 144.892 452.303 144.823C449.707 144.525 449.707 144.525 447.824 143.319ZM485.018 162.361C488.265 163.038 491.511 163.715 494.856 164.413C494.702 162.737 494.549 161.062 494.391 159.335C489.895 159.356 488.66 159.419 485.018 162.361Z" fill="#00FFD4"/>
<path d="M471.709 315.814C473.561 313.183 473.561 313.182 476.216 311.265C479.589 310.87 479.589 310.87 483.282 311.011C488.017 310.981 492.462 310.46 497.108 309.652C525.769 304.746 555.243 303.738 584.25 302.459C585.022 302.424 585.794 302.389 586.589 302.353C588.026 302.289 589.462 302.228 590.899 302.17C594.508 302.019 594.508 302.019 597.976 301.089C601.672 301.072 603.524 301.429 606.573 303.575C609.042 306.994 609.035 309.142 608.745 313.297C608.312 314.246 607.879 315.196 607.433 316.174C607.447 318.652 607.447 318.652 607.767 321.301C607.857 322.193 607.946 323.085 608.038 324.005C608.279 326.332 608.279 326.332 609.147 328.424C609.176 332.826 608.968 334.76 605.982 338.081C602.905 339.828 602.905 339.828 599.863 340.07C596.156 338.958 594.741 337.759 592.39 334.687C590.436 329.795 590.01 325.566 589.894 320.342C569.348 321.117 548.846 322.16 528.358 323.915C527.511 323.985 526.664 324.055 525.792 324.127C515.079 325.024 504.556 326.392 493.973 328.284C490.434 328.868 490.434 328.868 488.445 328.656C486.989 332.982 486.989 332.982 485.504 337.394C483.828 337.548 482.153 337.702 480.426 337.86C479.324 336.174 478.226 334.485 477.131 332.795C476.519 331.855 475.908 330.915 475.277 329.946C472.284 325.022 470.224 321.614 471.709 315.814Z" fill="#00FFD4"/>
<path d="M579.772 137C583.854 133.031 588.748 130.554 594.504 130.456C602.917 130.979 608.822 133.483 615.22 139.004C620.914 145.494 623.161 154.134 623.148 162.627C622.38 172.78 620.016 181.078 612.786 188.461C607.431 192.956 601.665 195.02 594.663 194.578C587.477 193.432 581.6 190.13 577.221 184.238C567.436 169.418 568.364 150.685 579.772 137ZM593.068 148.715C595.693 148.994 598.319 149.273 601.023 149.561C600.8 148.542 600.576 147.522 600.346 146.472C597.356 146.498 597.356 146.498 594.274 146.832C593.876 147.453 593.478 148.075 593.068 148.715Z" fill="#00FFD4"/>
<path d="M19.2638 31.3534C20.9511 31.1486 22.6453 30.9952 24.3416 30.888C25.7769 32.665 25.1188 34.3678 24.899 36.5915C24.8041 37.5824 24.7091 38.5732 24.6113 39.5941C24.5022 40.6871 24.3932 41.78 24.2808 42.906C24.0556 45.2649 23.8312 47.6239 23.6074 49.9829C23.4271 51.8656 23.4271 51.8656 23.2432 53.7864C19.1259 97.189 17.3098 140.526 16.9057 184.121C16.8944 185.139 16.883 186.158 16.8714 187.207C16.826 192.031 16.835 196.841 16.9716 201.664C16.9904 202.543 17.0092 203.423 17.0286 204.329C17.0667 205.956 17.1229 207.583 17.2015 209.209C17.279 212.991 17.0448 214.814 14.7277 217.87C11.6434 220.164 10.0381 220.517 6.23021 220.033C3.62542 218.204 1.9541 216.745 1.24067 213.557C1.04108 211.125 0.985302 208.728 0.979151 206.287C0.9601 205.389 0.94105 204.49 0.921423 203.564C0.884903 201.708 0.858117 199.851 0.840948 197.995C0.816679 195.581 0.762521 193.171 0.693117 190.758C-0.686587 137.973 6.24359 82.486 19.2638 31.3534Z" fill="#00FFD4"/>
<path d="M483.79 230.614C484.102 228.817 484.102 228.817 485.208 226.742C487.938 225.536 487.938 225.536 491.565 224.519C492.224 224.332 492.884 224.145 493.564 223.952C495.754 223.339 497.951 222.754 500.15 222.172C500.904 221.968 501.658 221.763 502.434 221.553C519.823 216.852 537.459 213.734 555.26 211.065C555.993 210.954 556.727 210.843 557.483 210.728C559.695 210.395 561.907 210.071 564.12 209.749C566.067 209.465 566.067 209.465 568.054 209.176C574.192 208.49 579.239 208.314 584.472 211.785C586.086 214.345 586.086 214.345 586.396 217.332C585.453 220.306 584.58 221.953 582.039 223.802C577.222 225.997 571.798 226.569 566.6 227.356C567.344 228.028 568.088 228.699 568.854 229.391C571.149 231.863 571.149 231.863 571.469 235.354C570.302 239.17 569.16 240.171 565.838 242.237C562.509 243.834 559.194 244.122 555.546 244.407C554.744 244.481 553.943 244.554 553.116 244.629C551.436 244.776 549.754 244.913 548.072 245.041C545.744 245.222 543.424 245.445 541.101 245.675C526.777 246.909 512.747 245.059 498.537 243.245C498.383 241.569 498.23 239.894 498.072 238.167C498.934 237.919 499.797 237.671 500.685 237.416C501.813 237.087 502.941 236.759 504.103 236.42C505.782 235.934 505.782 235.934 507.495 235.438C510.634 234.528 510.634 234.528 513.728 232.793C512.919 232.809 512.111 232.825 511.278 232.842C507.625 232.907 503.972 232.954 500.318 233.001C499.046 233.026 497.773 233.052 496.462 233.078C495.246 233.091 494.029 233.104 492.775 233.118C491.09 233.144 491.09 233.144 489.37 233.17C486.562 232.92 486.562 232.92 483.79 230.614Z" fill="#00FFD4"/>
<path d="M70.7599 133.374C72.289 133.038 72.289 133.038 73.8489 132.697C83.0385 140.354 86.8973 152.676 90.6687 163.65C91.7681 163.222 91.7682 163.222 92.8898 162.786C93.8438 162.421 94.7979 162.056 95.7809 161.679C96.7298 161.314 97.6787 160.948 98.6564 160.571C101.142 159.736 101.142 159.736 103.13 159.947C103.239 158.735 103.347 157.523 103.458 156.274C103.795 153.059 104.383 150.176 105.5 147.126C107.141 147.3 108.782 147.475 110.472 147.655C111.142 150.713 111.812 153.771 112.503 156.922C113.581 157.119 114.66 157.317 115.77 157.521C119.358 158.657 119.358 158.657 121.106 160.54C122.182 163.737 122.112 165.643 121.283 168.918C120.497 169.545 119.711 170.171 118.901 170.817C116.591 173.156 116.591 173.156 116.709 175.43C117.059 177.811 117.535 180.124 118.082 182.468C121.052 196.005 121.052 196.005 117.934 201.842C115.189 204.411 113.597 205.269 109.838 205.6C105.464 204.247 104.413 202.913 101.988 199.046C101.314 195.854 101.23 192.724 101.184 189.469C101.136 188.207 101.136 188.207 101.088 186.92C100.949 182.506 101.045 178.254 101.649 173.869C98.696 173.554 95.7426 173.24 92.6998 172.917C92.8519 173.541 93.004 174.165 93.1607 174.808C93.8456 177.656 94.5086 180.509 95.1712 183.362C95.5307 184.835 95.5307 184.835 95.8975 186.338C98.0316 195.658 98.0316 195.658 95.8098 200.4C92.9304 202.928 91.1956 203.786 87.372 204.09C83.3702 202.89 82.336 201.155 80.0054 197.713C79.0099 195.038 78.4392 192.332 77.8858 189.536C77.7179 188.753 77.5501 187.97 77.3771 187.163C76.8462 184.668 76.337 182.169 75.8282 179.67C75.4805 178.022 75.1314 176.374 74.7808 174.726C73.7888 170.038 72.8278 165.343 71.8812 160.645C71.7434 159.963 71.6056 159.28 71.4636 158.577C68.1624 142.154 68.1624 142.154 70.7599 133.374Z" fill="#00FFD4"/>
<path d="M193.14 264.584C193.878 259.021 196.892 254.854 199.932 250.257C203.848 244.223 207.374 238.323 210.143 231.671C209.333 232.269 208.522 232.867 207.688 233.483C204.748 235.119 204.748 235.119 202.475 234.626C201.947 234.321 201.42 234.016 200.876 233.702C199.905 227.886 199.985 222.654 203.217 217.609C207.876 213.247 212.065 210.111 218.509 209.525C222.183 209.745 224.334 211.136 227.175 213.37C229.366 217.933 229.762 221.281 229.195 226.281C229.086 227.381 228.977 228.482 228.864 229.616C226.93 240.587 221.355 249.836 215.579 259.15C214.832 260.371 214.086 261.594 213.341 262.816C211.538 265.77 209.723 268.716 207.9 271.658C208.618 272.512 209.336 273.366 210.076 274.246C212.448 277.293 213.212 278.443 212.809 282.236C211.131 284.911 209.55 286.686 207.096 288.668C202.719 288.779 200.767 288.479 197.433 285.566C195.276 281.676 195.409 279.744 196.433 275.466C197.194 274.551 197.955 273.637 198.739 272.694C197.862 272.165 197.862 272.165 196.967 271.626C193.702 269.426 193.204 268.612 193.14 264.584Z" fill="#00FFD4"/>
<path d="M126.17 151.336C127.7 151.001 127.7 151.001 129.259 150.659C132.205 153.11 132.471 153.623 133.316 157.132C133.52 157.973 133.723 158.814 133.932 159.68C134.135 160.581 134.337 161.481 134.546 162.409C134.758 163.331 134.97 164.253 135.188 165.203C136.991 173.407 137.84 181.433 138.166 189.821C138.228 191.062 138.289 192.302 138.352 193.581C138.452 198.412 137.946 202.171 134.874 206.001C131.714 207.583 129.714 207.503 126.262 207.191C123.354 206.077 122.368 204.714 120.775 202.05C120.413 199.431 120.267 197.198 120.312 194.584C120.316 193.848 120.319 193.112 120.323 192.353C120.542 178.611 121.587 164.375 126.17 151.336Z" fill="#00FFD4"/>
<path d="M561.904 120.258C562.919 114.029 562.919 114.029 565.508 111.779C573.592 108.659 581.752 108.813 589.763 112.246C598.814 116.441 598.814 116.441 600.325 118.312C600.189 119.973 600.015 121.632 599.796 123.284C597.045 123.737 594.293 124.183 591.539 124.617C589.831 124.894 588.125 125.187 586.429 125.527C579.526 126.811 570.764 127.049 564.785 123.122C562.792 121.358 562.792 121.358 561.904 120.258Z" fill="#00FFD4"/>
<path d="M654.89 202.117C656.262 198.322 656.967 196.953 660.538 195.113C664.016 194.917 664.016 194.917 667.499 195.853C670.607 198.648 671.85 200.202 672.184 204.397C671.082 208.071 669.878 209.586 666.8 211.869C663.057 212.715 661.446 212.652 658.126 210.695C655.091 207.77 654.285 206.342 654.89 202.117Z" fill="#00FFD4"/>
<path d="M646.871 106.168C649.666 103.059 651.22 101.817 655.415 101.483C659.089 102.585 660.604 103.789 662.887 106.866C663.733 110.61 663.67 112.221 661.713 115.541C659.735 117.593 659.735 117.593 656.54 119.264C652.772 118.724 650.377 118.105 647.433 115.656C645.581 112.062 645.829 110.044 646.871 106.168Z" fill="#00FFD4"/>
<path d="M406.524 238.484C408.767 236.158 410.324 235.09 413.448 234.255C416.794 234.529 418.2 235.749 420.657 237.976C422.434 240.177 422.434 240.177 422.519 243.517C421.694 247.137 421.694 247.137 419.332 249.84C415.402 252.019 413.539 252.023 409.232 250.84C405.155 246.981 404.263 243.644 406.524 238.484Z" fill="#00FFD4"/>
<path d="M396.433 134.835C398.189 132.507 398.189 132.507 400.834 131.28C404.916 130.919 407.824 131.399 411.116 133.883C412.852 137.623 412.709 140.568 411.497 144.483C409.741 146.81 409.741 146.81 407.096 148.037C403.014 148.398 400.105 147.918 396.814 145.435C395.078 141.694 395.221 138.75 396.433 134.835Z" fill="#00FFD4"/>
</svg>
