<svg width="1490" height="1088" viewBox="0 0 1490 1088" fill="none" xmlns="http://www.w3.org/2000/svg">
<path fill-rule="evenodd" clip-rule="evenodd" d="M506.955 865.531L507.66 861.968C509.344 853.842 509.344 853.842 511.392 851.389C514.494 850.984 514.494 850.984 517.368 850.851L516.799 848.015C516.341 842.681 518.244 838.065 520.824 833.471C525.055 828.559 531.15 827.713 537.307 826.967C540.459 826.955 543.566 827.225 546.702 827.497L547.085 827.53C571.123 828.988 592.72 826.052 614.634 815.99L617.407 814.747C623.344 812.081 629.226 809.307 635.1 806.506C642.45 803.009 649.834 799.586 657.215 796.155L659.656 795.019C671.574 789.477 683.555 784.118 695.625 778.913C701.864 776.217 708.03 773.432 714.136 770.448C733.97 760.824 754.714 752.819 775.323 745.022C780.911 742.905 786.449 740.701 791.958 738.388C800.914 734.642 809.999 731.264 819.114 727.927L821.731 726.967C852.79 715.599 884.329 704.126 917.465 701.246C919.572 701.062 921.677 700.867 923.783 700.671C925.13 700.55 926.478 700.43 927.826 700.311L930.694 700.055L931.216 696.41L926.672 697.03C892.75 699.736 856.445 691.908 822.922 687.201L814.644 686.047C763.491 678.811 714.183 667.535 664.712 652.768C663.759 647.518 663.759 647.518 663.571 641.695C672.831 634.756 682.593 636.892 693.699 637.328L701.162 637.571C709.3 637.845 717.436 638.159 725.573 638.475L734.011 638.779C773.947 640.216 813.777 642.46 853.629 645.402C1007.8 656.668 1148.89 632.797 1296.27 586.771C1303.6 584.484 1310.92 582.201 1318.25 579.919C1327.91 576.91 1337.56 573.878 1347.21 570.829L1351.48 569.494C1354.56 568.529 1357.65 567.563 1360.73 566.598L1366.87 564.64C1381 560.245 1395.11 557.296 1409.72 554.95C1406.2 457.562 1400.5 361.527 1385.78 265.122C1384.39 255.83 1382.99 246.537 1381.6 237.245C1164.15 247.901 946.828 263.388 730.877 291.558C708.888 294.419 686.914 297.1 664.829 299.117L658.876 299.671C651.017 300.35 644.063 300.68 636.223 299.557L638.656 309.867C659.31 400.787 665.796 492.936 662.322 586.016L662.036 593.731C661.325 600.201 659.891 604.926 657.093 610.763L646.019 611.904C640.826 589.55 636.904 566.965 632.85 544.385C631.771 538.401 630.691 532.417 629.611 526.433C628.899 522.482 628.189 518.532 627.482 514.581C625.708 504.684 623.902 494.796 622.03 484.917L620.938 479.094C619.947 473.814 618.943 468.537 617.937 463.261C616.683 454.956 616.683 454.956 617.832 446.938L612.104 448.845C597.98 447.918 588.828 445.749 578.508 435.848C575.553 429.421 573.256 422.943 570.993 416.243C567.792 407.763 562.83 401.606 557.142 394.601C548.96 383.424 543.663 374.458 545.702 360.231C552.107 346.12 562.224 341.257 575.581 334.836L575.663 334.797C583.224 332.493 588.084 332.987 595.733 334.669L593.704 328.006L591.11 319.345L588.509 310.726C586.582 303.354 586.582 303.354 587.348 298.009L578.924 297.313C567.721 295.151 562.243 292.536 553.752 285.012C548.916 276.925 547.656 271.893 547.604 262.481C550.585 252.277 555.257 247.206 562.935 239.959C572.816 235.238 577.282 234.443 588.138 235.388C599.604 239.887 609.109 245.12 618.296 253.347C623.764 254.057 623.765 254.057 629.94 253.494L629.942 253.494L637.334 253.051L645.533 252.423L654.264 251.809C695.557 248.638 736.631 243.152 777.701 237.907C789.532 236.4 801.365 234.916 813.198 233.431L813.203 233.43L817.433 232.899C827.714 231.609 837.994 230.314 848.273 229.006C858.42 227.716 868.57 226.449 878.722 225.198L885.887 224.309C895.053 223.251 902.327 223.125 911.56 224.448L907.784 216.822C906.194 213.446 904.608 210.067 903.024 206.688L900.517 201.689C896.113 192.112 895.079 187.051 897.054 176.596C901.187 166.69 902.757 163.307 912.733 159.152C920.243 159.726 927.381 160.915 934.752 162.457C942.849 163.453 948.511 162.295 956.262 159.935L954.471 152.284C950.055 132.314 947.006 114.001 949.417 93.492L943.642 92.1531C933.561 87.6082 930.217 83.3982 924.988 73.6259C922.357 58.2793 925.064 46.4343 933.476 33.4173C947.017 16.0478 961.562 3.7627 983.939 0.906361C994.204 1.24544 999.816 5.30396 1007.49 11.8031C1013.73 18.8251 1016.14 23.4919 1016.51 32.9124C1015.2 48.445 1010.84 57.567 999.879 68.567C992.371 76.9598 991.734 81.7631 992.299 93.2117C992.725 97.0691 993.179 100.923 993.657 104.775L994.307 110.541C995.7 122.71 997.337 134.841 999.033 146.97L1008.76 145.978C1068.29 140.351 1068.29 140.351 1088.29 152.258C1094.04 163.136 1095.5 173.78 1097.12 185.914C1098.65 193.879 1101.13 198.884 1105.16 205.818L1112.08 205.349C1133.99 203.865 1155.89 202.392 1177.79 200.929C1189.05 200.177 1200.3 199.421 1211.55 198.657C1255.39 195.684 1299.23 192.756 1343.12 190.681L1352.24 190.194C1370.1 189.432 1383.7 188.865 1397.65 201.359L1406.72 203.511C1415.97 206.713 1415.97 206.713 1420.64 213.157C1425.12 222.377 1427.39 230.847 1429.49 240.869L1431.61 250.772L1433.14 258.268C1441.36 259.893 1441.36 259.892 1450.27 257.655L1450.27 257.655C1462.55 256.585 1468.13 258.351 1478.57 264.778C1487.97 276.971 1488.84 286.396 1487.28 301.362L1486 309.966L1484.63 319.333L1483.18 329.028L1481.73 338.884C1480.55 346.896 1479.35 354.906 1478.15 362.915L1483.02 365.786C1488.07 369.792 1488.07 369.792 1489.5 378.861C1487.7 391.456 1484.85 395.325 1475.08 403.388C1469.29 405.695 1469.29 405.695 1463.12 407.61L1456.9 409.577L1452.16 411.015L1452.4 415.837C1453.23 432.5 1454.02 449.165 1454.8 465.831C1455.09 472.038 1455.39 478.245 1455.7 484.452C1456.15 493.408 1456.56 502.366 1456.97 511.324L1457.4 519.638C1458.39 542.361 1459.4 566.3 1444.81 585.083C1430.12 598.759 1408.32 604.132 1389.34 609.139C1365.94 615.579 1342.85 622.78 1319.78 630.274C1247.96 653.555 1174.97 673.845 1100.45 686.292C1100.38 687.261 1100.21 688.276 1099.92 689.372L1099.21 692.203L1098.42 695.065L1097.66 698.006C1095.94 704.677 1095.94 704.677 1094.83 707.499L1096.77 708.14C1098.99 709.132 1098.99 709.133 1101.25 711.941C1101.38 716.651 1101.12 719.82 1099.34 724.162C1110.91 723.33 1122.19 722.346 1133.46 719.522C1140.33 718.054 1147.22 717.848 1154.22 717.916C1155.91 717.921 1157.61 717.925 1159.31 717.928L1162.08 717.935C1186.73 717.966 1211.33 717.119 1235.96 716.222C1289.28 714.282 1289.28 714.282 1314.36 713.968L1317.34 713.925C1432.58 712.378 1432.58 712.378 1463.19 739.602C1468.03 744.532 1471.5 749.541 1474.68 755.637C1477.56 763.039 1479.58 766.866 1480.45 775.197L1480.74 777.958C1481.62 786.853 1482.02 795.614 1481.9 804.561L1481.85 808.512C1481.54 826.892 1478.95 844.836 1476.04 862.954C1474.68 871.473 1473.45 879.998 1472.39 888.558C1472.16 890.457 1471.91 892.356 1471.66 894.254C1468.67 919.102 1468.05 944.272 1467.19 969.268C1466.07 1002.24 1465.29 1024.91 1464.36 1040.93L1424.23 1044.72C1424.56 1041.73 1424.81 1038.72 1425.02 1035.67L1425.31 1031.7C1426.3 1017.49 1426.74 1003.26 1427.18 989.029C1428.59 942.994 1431.79 897.506 1438.19 851.881C1440.49 835.486 1442.55 819.266 1442.77 802.687L1442.82 800.554C1443.06 789.043 1442.74 775.043 1434.47 766.284C1408.88 745.414 1350.01 752.805 1319.16 753.462L1317.03 753.507C1311.1 753.634 1305.17 753.762 1299.24 753.893C1275.87 754.407 1252.54 754.48 1229.17 754.017L1227.12 753.977C1179.72 753.049 1179.72 753.049 1156.89 751.424L1154.55 751.258C1143.07 750.41 1132.45 748.595 1121.41 745.233C1113.01 742.698 1104.3 741.473 1095.65 740.094C1093.72 739.729 1093.72 739.729 1091.63 738.912L1091.08 740.982C1089.84 744.864 1088.23 748.519 1086.56 752.233L1085.54 754.505C1083.51 758.947 1081.31 763.087 1078.6 767.155C1077.16 769.554 1076.1 771.974 1075.02 774.553C1072.35 780.787 1069.44 786.872 1066.44 792.951L1064.95 796.018C1062.59 800.814 1060.16 805.512 1057.43 810.113C1053.85 816.266 1050.97 822.735 1048.08 829.232L1047.69 830.094C1043.87 838.67 1039.91 847.014 1035.3 855.205C1033.92 857.258 1033.92 857.258 1034.13 858.55C1036.85 858.333 1039.57 858.109 1042.29 857.878L1044.77 857.669C1049.5 857.246 1054.06 856.605 1058.72 855.646C1072.64 853.236 1087.8 858.139 1101.43 860.904C1144.33 869.571 1187.24 876.177 1230.84 879.999L1233.41 880.226C1274.99 883.873 1315.78 883.674 1357.32 879.658L1357.72 876.708C1361.41 850.749 1369.99 827.022 1382.65 804.083L1383.99 801.637C1400.75 771.345 1400.75 771.345 1414.38 765.458C1419.27 764.542 1422.91 764.973 1427.5 766.912C1431.33 770.112 1432.92 772.712 1433.7 777.668C1434.09 790.142 1426 802.286 1419.8 812.54C1406.8 834.201 1395.53 858.563 1394.17 884.122L1394.03 886.704C1393.94 888.389 1393.87 890.075 1393.82 891.762C1393.49 898.874 1391.22 904.182 1385.86 909.129C1377.83 915.083 1367.35 915.495 1357.75 916.518L1352.95 917.053C1306.65 922.1 1260.54 919.738 1214.33 915.213L1211.53 914.943C1209.79 914.776 1208.06 914.605 1206.33 914.428C1198.99 913.724 1194.12 913.833 1187.7 917.914L1186 918.99C1184.18 920.143 1182.38 921.314 1180.58 922.49L1178.71 923.697C1153.79 939.799 1132.81 960.521 1116.86 985.644C1115.98 986.992 1115.11 988.339 1114.23 989.685C1096.18 1017.65 1081.65 1047.36 1069.46 1078.25L1029.54 1082.02C1035.72 1064.16 1042.81 1046.61 1051.25 1029.81C1052.51 1027.3 1053.75 1024.77 1054.98 1022.25L1055 1022.21C1067.35 997.131 1081.27 972.91 1098.33 950.708C1100.05 948.444 1101.68 946.153 1103.3 943.816C1113.88 929.241 1127.37 916.713 1141.82 906.086C1139.38 904.042 1137.7 903.684 1134.75 903.056L1134.4 902.982L1134.19 902.937L1130.66 902.151L1126.77 901.291C1113.15 898.208 1099.74 894.524 1086.34 890.623L1083.55 889.815C1080.89 889.045 1078.24 888.268 1075.59 887.489L1073.21 886.797C1066.12 884.69 1059.39 882.227 1052.94 878.569C1048.25 876.106 1043.58 874.273 1038.54 872.711L1036.57 872.076C1032.72 870.947 1029.96 870.399 1026.33 872.304C1025.04 874.674 1024.62 875.988 1025.06 878.672L1025.85 881.011L1026.7 883.615L1027.59 886.248L1027.59 886.249C1035.07 909.782 1037.39 917.077 1036.36 923.864C1035.89 926.913 1034.76 929.859 1033.1 934.13C1030.65 938.67 1027.26 940.895 1022.65 942.919L1022.64 942.92L1022.63 942.921L1022.1 943.015C1020.93 943.22 1020.25 943.335 1019.57 943.425C1018.74 943.534 1017.91 943.605 1016.2 943.751L1012.87 944.066C1009.67 944.085 1007.56 943.476 1004.54 942.541C1002.04 942.349 999.54 942.224 997.037 942.15C992.463 942.005 987.916 941.816 983.356 941.436C983.49 942.933 984.039 944.34 984.585 945.742L984.586 945.744C984.757 946.184 984.928 946.623 985.086 947.064C987.546 953.954 989.804 960.889 991.888 967.903L992.576 970.193C993.295 972.644 993.974 975.104 994.641 977.57L995.419 980.397C998.147 991.025 999.498 1001.85 1000.85 1012.72C1000.96 1013.56 1001.06 1014.41 1001.17 1015.26L1001.61 1018.69C1004.36 1040.52 1006.6 1062.23 1007.99 1084.06L972.678 1087.39C972.47 1077.34 972.47 1077.29 972.376 1072.41L972.376 1072.37L972.375 1072.34C972.064 1056.09 971.477 1039.89 970.57 1023.66C969.599 1006.27 969.102 989.279 970.494 971.892C970.763 968.475 970.983 965.056 971.196 961.635C971.343 959.395 971.491 957.155 971.642 954.915L971.846 951.826L972.059 949.003L972.237 946.537C972.579 944.414 972.579 944.414 974.302 941.247C921.74 928.037 862.44 929.765 808.506 926.078C803.806 925.756 799.106 925.431 794.407 925.105L794.363 925.102C738.139 920.772 738.135 920.772 681.904 923.328C678.684 923.687 675.465 924.039 672.243 924.372C670.281 924.575 668.322 924.793 666.364 925.028C657.854 925.921 650.292 924.892 643.469 919.466C638.241 914.483 637.383 908.724 636.939 901.734C637.785 884.283 653.505 864.467 663.906 850.967C665.545 848.817 667.065 846.625 668.586 844.392C673.259 837.886 679.222 832.375 684.88 826.735C678.03 829.683 671.238 832.728 664.488 835.898C652.32 841.604 640.048 847.043 627.696 852.34L625.446 853.311C615.414 857.635 605.312 861.505 594.945 864.952L596.602 866.434C603.035 872.236 608.705 878.603 614.327 885.174C615.466 886.505 616.61 887.831 617.759 889.153C642.059 917.184 678.424 964.88 676.309 1004.56C675.891 1008.19 675.341 1011.79 674.756 1015.4C674.341 1018.24 673.955 1021.08 673.577 1023.92L673.272 1026.17C672.253 1034.05 671.715 1041.96 671.228 1049.89L671.03 1052.88L670.869 1055.54C670.547 1058 670.014 1059.89 668.92 1062.11C666.248 1063.76 664.164 1063.8 661.042 1063.83C658.542 1062.55 658.542 1062.55 656.789 1061.2L655.287 1064.03C651.293 1069.74 644.385 1072.82 637.757 1074.42C634.587 1074.88 631.454 1075.17 628.258 1075.38L624.833 1075.63C605.76 1076.81 589.242 1072.81 573.496 1061.67L570.238 1059.64L568.157 1058.13L567.978 1056.14L566.106 1055.49C563.798 1054.5 562.355 1053.39 560.454 1051.77C555.852 1048.41 551.618 1048.46 546.121 1048.53L545.832 1048.53C536.596 1048.6 528.92 1047.31 522.09 1040.63C514.735 1031.5 513.063 1021.56 512.541 1010.19C512.428 1007.86 512.269 1005.54 512.105 1003.21C512.016 1001.68 511.929 1000.16 511.846 998.629L511.694 996.479C511.555 993.073 511.724 991.188 513.573 988.28C515.529 986.562 515.529 986.562 517.872 986.101C525.557 988.947 529.521 998.024 533.054 1004.88L534.498 1007.61C536.226 1010.89 537.918 1014.15 539.403 1017.55C542.579 1018.3 545.467 1018.32 548.716 1018.31C563.598 1018.31 572.977 1022.3 584.324 1032.08C595.186 1041.29 607.428 1046.44 621.898 1045.29C626.022 1044.87 630.142 1044.42 634.258 1043.93C640.608 1043.27 645.41 1043.19 651.371 1045.62C654.102 1048.07 654.102 1048.07 655.803 1050.24C653.743 1031.13 653.743 1031.13 648.412 1012.75L647.387 1010.05C637.738 984.732 624.199 963.137 608.821 941.015L607.214 938.698C596.054 922.699 583.359 908.036 569.479 894.354L567.212 892.095C559.344 883.912 559.344 883.912 549.937 878.04L549.758 876.048L547.985 875.439C545.269 874.275 543.076 872.785 540.652 871.095C535.466 867.59 530.123 864.825 524.42 862.265C522.875 864.115 523.588 866.288 523.741 868.617L523.946 871.965L524.176 875.59C524.677 884.004 525.01 892.334 524.81 900.76C524.656 909.41 525.165 917.96 525.88 926.58L526.158 930.261C526.986 939.398 529.188 946.571 533.907 954.41C536.337 958.671 537.022 961.643 536.822 966.573C535.094 970.794 533.642 973.226 529.572 975.258C524.466 976.394 520.039 976.778 515.109 974.928C486.306 953.229 500.961 895.717 506.955 865.531ZM681.99 886.338L679.214 886.483L679.215 886.48C679.933 883.194 680.301 881.506 680.97 879.947C681.677 878.302 682.718 876.8 684.858 873.714C685.711 872.321 686.561 870.926 687.409 869.531L688.722 867.37C690.127 865.062 691.522 862.75 692.905 860.428C693.977 858.619 695.045 856.803 696.113 854.985L696.117 854.979L696.18 854.872L696.193 854.85C703.319 842.727 710.502 830.506 719.378 819.613C721.897 816.595 724.246 813.671 726.391 810.385L726.398 810.378L726.398 810.377C730.209 806.595 732.14 804.68 734.359 803.196C736.635 801.673 739.209 800.606 744.434 798.442L747.467 797.129L747.469 797.128L747.489 797.12C760.029 791.881 766.302 789.261 772.61 786.724C778.922 784.185 785.267 781.73 797.959 776.821C804.122 774.435 810.28 772.041 816.419 769.593C837.667 761.118 859.226 753.886 881.045 747.021C884.589 745.907 888.131 744.787 891.671 743.661C895.052 742.585 898.434 741.512 901.818 740.443L906.579 738.942L907.454 738.664L907.456 738.663C915.364 736.156 923.193 733.673 931.391 732.253C937.125 755.928 943.857 779 952.598 801.75C953.333 803.653 954.066 805.555 954.795 807.46C961.55 825.143 968.714 842.609 976.386 859.915L977.375 862.142C977.995 863.539 978.614 864.937 979.235 866.335C979.582 867.11 979.967 867.901 980.358 868.704C982.153 872.396 984.08 876.359 983.203 880.317C980.526 887.302 979.866 894.106 979.274 901.493L979.042 904.675C975.25 904.715 975.25 904.715 971.477 904.206C952.068 901.749 932.641 899.553 913.145 897.914L910.053 897.656C882.096 895.296 854.114 893.302 826.124 891.382C821.311 891.052 816.498 890.719 811.685 890.381C804.619 889.884 797.537 889.337 790.443 888.789L790.423 888.788L790.387 888.785C759.47 886.398 728.345 883.995 697.458 885.613C695.931 885.693 694.404 885.767 692.876 885.836C689.247 885.992 685.619 886.157 681.99 886.338ZM958.709 704.077L957.397 700.48C957.184 699.904 956.941 699.309 956.693 698.701C955.938 696.847 955.136 694.881 954.965 692.981C970.923 692.121 984.42 691.771 997.185 691.441C1020.74 690.831 1041.81 690.286 1071.24 686.715C1068.19 698.251 1067.4 709.699 1066.94 721.746L1066.86 724.1C1066.8 725.599 1066.74 727.097 1066.69 728.596C1066.53 734.309 1066.11 739.042 1063.13 744.031L1061.16 746.864C1058.43 750.798 1055.62 754.658 1052.73 758.479C1044.25 769.69 1036.71 781.545 1029.74 793.745C1028.25 796.368 1026.75 798.976 1025.19 801.555C1021.39 807.805 1017.85 814.154 1014.4 820.604C1014.24 820.898 1014.09 821.192 1013.93 821.485C1011.57 825.961 1009.32 830.241 1005.81 833.99C1001.86 826.847 1001.86 826.847 998.92 819.202L998.16 817.296C985.781 786.285 973.846 754.254 966.823 721.533C966.004 717.222 965.338 713.863 962.61 710.291C960.128 707.618 960.128 707.618 958.709 704.077ZM990.437 217.669C976.107 218.86 962.188 219.165 947.836 218.736L949.368 208.044C957.604 206.061 965.844 204.098 974.089 202.156L984.31 199.753C1006.47 194.413 1027.35 190.216 1050.18 189.757L1055.14 212.288C1045.36 213.114 1035.57 213.933 1025.79 214.738C1024.48 214.846 1023.17 214.953 1021.87 215.061C1021.86 215.062 1021.85 215.062 1021.84 215.063C1020.67 215.159 1019.5 215.255 1018.33 215.352C1016.8 215.478 1015.26 215.605 1013.73 215.732C1007.85 216.229 1001.97 216.726 996.097 217.207L990.437 217.669Z" fill="#00FFD4"/>
<path d="M676.627 600.224C678.401 589.472 679.598 585.493 688.172 578.848C697.308 576.617 697.308 576.616 707.015 577.387C716.644 583.275 720.708 586.789 723.659 597.761C722.543 608.057 720.092 612.673 713.047 620.249C703.526 624.337 699.217 624.963 689.441 621.403C679.944 615.131 677.1 611.738 676.627 600.224Z" fill="#00FFD4"/>
<path d="M1336.42 513.769C1338.19 503.017 1339.39 499.038 1347.96 492.393C1357.1 490.162 1357.1 490.162 1366.81 490.932C1376.44 496.82 1380.5 500.334 1383.45 511.306C1382.34 521.602 1379.88 526.218 1372.84 533.794C1363.32 537.882 1359.01 538.508 1349.23 534.948C1339.74 528.676 1336.89 525.283 1336.42 513.769Z" fill="#00FFD4"/>
<path d="M661.841 337.449C663.614 326.698 664.811 322.719 673.385 316.074C682.521 313.842 682.521 313.842 692.229 314.613C701.857 320.501 705.921 324.015 708.872 334.987C707.756 345.283 705.305 349.899 698.26 357.475C688.739 361.562 684.43 362.188 674.654 358.628C665.157 352.357 662.314 348.964 661.841 337.449Z" fill="#00FFD4"/>
<path d="M1326.78 273.61C1328.56 262.859 1329.75 258.879 1338.33 252.235C1347.46 250.003 1347.46 250.003 1357.17 250.774C1366.8 256.662 1370.86 260.176 1373.82 271.148C1372.7 281.444 1370.25 286.059 1363.2 293.635C1353.68 297.723 1349.37 298.349 1339.6 294.789C1330.1 288.518 1327.26 285.124 1326.78 273.61Z" fill="#00FFD4"/>
<path d="M876.155 554.213C877.557 549.492 877.557 549.492 881.178 544.278C888.88 541.904 888.88 541.904 898.925 540.324C900.753 540.031 902.581 539.737 904.464 539.434C910.532 538.482 916.608 537.607 922.688 536.741C924.773 536.431 926.859 536.12 929.007 535.801C977.121 528.686 1025.39 525.891 1073.97 524.355C1075.97 524.288 1077.97 524.222 1080.04 524.153C1086.07 523.959 1092.11 523.787 1098.14 523.623C1103.46 523.477 1103.46 523.477 1108.87 523.328C1125.55 523.426 1139.14 524.548 1152.08 535.506C1155.59 542.88 1155.59 542.88 1155.48 550.988C1152.01 558.665 1149.15 562.808 1141.76 566.961C1128.15 571.329 1113.42 571.149 1099.23 571.619C1101.02 573.655 1102.8 575.69 1104.64 577.788C1110.01 585.139 1110.01 585.139 1109.77 594.601C1105.43 604.467 1102.05 606.791 1092.5 611.282C1083.06 614.512 1074.08 614.238 1064.21 613.852C1062.04 613.795 1059.87 613.738 1057.63 613.68C1053.07 613.543 1048.52 613.38 1043.97 613.192C1037.67 612.942 1031.38 612.809 1025.08 612.692C986.278 611.478 949.242 602.088 911.71 592.738C911.827 588.196 911.944 583.654 912.065 578.975C914.456 578.582 916.847 578.19 919.31 577.786C922.438 577.261 925.566 576.736 928.788 576.195C933.445 575.421 933.445 575.421 938.195 574.631C946.9 573.182 946.9 573.182 955.743 569.507C953.57 569.295 951.398 569.082 949.159 568.863C939.342 567.885 929.531 566.858 919.72 565.831C916.3 565.497 912.88 565.163 909.356 564.819C906.089 564.471 902.822 564.122 899.457 563.762C894.929 563.3 894.929 563.3 890.31 562.829C882.858 561.271 882.858 561.271 876.155 554.213Z" fill="#00FFD4"/>
<path d="M776.087 340.86C776.853 336.471 777.62 332.083 778.409 327.561C855.283 304.482 855.283 304.482 881.929 315.487C886.422 319.184 886.422 319.184 888.515 324.859C887.895 332.202 886.431 338.911 884.8 346.137C887.132 346.417 889.464 346.697 891.868 346.986C917.082 350.579 917.082 350.579 927.931 358.122C939.455 373.66 947.786 387.165 946.326 407.168C940.371 443.527 926.464 468.272 900.083 494.071C898.549 495.608 897.016 497.146 895.436 498.73C877.847 514.836 850.502 527.107 826.433 526.082C810.344 523.641 798.493 520.878 786.996 508.939C774.966 492.447 771.442 475.785 774.34 455.842C781.418 418.263 805.114 387.451 835.958 365.874C838.634 364.126 841.31 362.378 844.067 360.577C847.051 358.57 847.051 358.57 850.096 356.523C850.249 355.645 850.403 354.768 850.56 353.863C848.477 353.597 846.393 353.33 844.247 353.056C834.847 351.846 825.451 350.613 816.055 349.38C811.135 348.752 811.135 348.752 806.116 348.111C802.991 347.697 799.865 347.284 796.645 346.858C793.754 346.483 790.863 346.107 787.884 345.72C780.942 344.449 780.942 344.449 776.087 340.86ZM872.852 398.868C881.476 401.278 890.1 403.689 898.985 406.172C898.873 401.63 898.762 397.088 898.647 392.409C886.532 391.654 883.193 391.601 872.852 398.868Z" fill="#00FFD4"/>
<path d="M1132.69 347.643C1144.4 337.688 1158.04 331.896 1173.56 332.67C1196.13 335.599 1211.58 343.409 1227.83 359.436C1241.99 377.95 1246.49 401.63 1244.92 424.508C1241.02 451.719 1233.16 473.648 1212.35 492.234C1197.11 503.377 1181.2 507.896 1162.42 505.443C1143.27 501.059 1128.03 491.103 1117.3 474.439C1093.61 432.75 1099.49 382.45 1132.69 347.643ZM1166.4 381.601C1173.42 382.827 1180.44 384.053 1187.68 385.316C1187.26 382.53 1186.84 379.743 1186.41 376.872C1178.35 376.403 1178.35 376.403 1169.99 376.746C1168.8 378.348 1167.62 379.95 1166.4 381.601Z" fill="#00FFD4"/>
<path d="M1102.34 313.409C1109.24 328.991 1109.24 328.991 1117.54 333.101C1140.78 335.742 1161.99 329.775 1180.58 315.343C1201.37 298.213 1201.37 298.213 1204.04 292.295C1202.55 288.048 1200.97 283.834 1199.27 279.667C1191.77 280.36 1184.28 281.07 1176.79 281.815C1172.14 282.255 1167.48 282.654 1162.82 282.921C1143.91 284.274 1120.85 289.625 1107.91 303.962C1103.91 309.928 1103.91 309.928 1102.34 313.409Z" fill="#00FFD4"/>
<path fill-rule="evenodd" clip-rule="evenodd" d="M1021.84 215.063L1021.87 215.061Z" fill="#00FFD4"/>
<path fill-rule="evenodd" clip-rule="evenodd" d="M6.71231 856.172C9.04645 853.03 10.8962 851.249 14.8297 850.582C16.7906 850.384 18.7615 850.292 20.7308 850.215L20.8191 846.316C20.8734 843.92 20.946 842.319 21.8262 840.076L19.6263 838.642C17.4836 836.451 17.4836 836.451 16.8524 833.621C18.3315 829.227 20.7535 827.913 24.5454 825.413C27.1604 823.65 29.653 821.806 32.142 819.87L34.8626 817.759L37.6915 815.555L40.4951 813.374C42.4046 811.888 44.3139 810.403 46.223 808.916C66.4922 793.161 87.1594 778.941 109.221 765.774C110.984 764.72 112.742 763.659 114.5 762.597C119.989 759.289 125.5 756.079 131.166 753.083C140.954 748.408 140.954 748.408 146.789 740.028C146.659 736.416 146.06 733.1 145.414 729.55C146.585 721.556 149.838 715.517 155.911 710.219C160.671 707.145 166.658 705.81 172.233 706.804C174.872 707.119 174.872 707.119 177.396 704.206L180.024 701.333C184.851 699.227 189.895 698.804 195.026 699.983L197.045 700.805L197.815 699.12C200.892 692.677 204.03 688.444 210.729 685.517C218.473 683.992 225.306 683.776 232.729 686.576C237.067 688.058 239.177 688.316 243.462 686.284C244.774 685.507 246.077 684.715 247.374 683.912L249.528 682.623C251.063 681.703 252.595 680.777 254.123 679.845C257.284 677.919 260.46 676.02 263.636 674.121L263.942 673.938C265.623 672.933 267.303 671.927 268.982 670.919C276.601 666.353 284.312 661.963 292.055 657.613C303.469 651.185 314.779 644.595 326.052 637.923C338.53 630.538 351.069 623.279 363.723 616.198C377.407 608.538 390.895 600.578 404.338 592.502C409.354 589.496 414.377 586.501 419.433 583.562L421.864 582.144C426.505 579.796 431.187 578.514 436.359 579.493C441.378 581.209 444.53 583.837 447.929 587.856C450.28 593.243 451.057 599.353 448.966 604.957C444.401 612.898 432.958 617.712 424.813 621.063C425.843 632.216 427.442 640.223 434.385 649.318L437.199 648.775L440.927 648.102L444.607 647.418C448.292 647.062 450.874 647.458 454.394 648.521C457.184 636.502 456.999 624.824 456.408 612.582L456.248 608.781L456.072 605.378C456.325 600.702 457.485 597.171 460.762 593.792C464.37 592.012 466.53 592.105 470.468 592.856C473.805 595.142 475.539 596.57 477.161 600.286C480.343 620.559 482.75 645.644 470.496 663.576C467.008 667.884 463.025 671.649 458.806 675.233L457.152 676.678C450.739 682.09 443.653 686.273 436.453 690.524L436.402 690.554C435.083 691.339 433.764 692.124 432.445 692.91C423.981 697.941 415.452 702.849 406.867 707.671C402.034 710.392 397.278 713.196 392.583 716.148C380.643 723.646 368.327 730.529 356.106 737.556C353.149 739.257 350.192 740.959 347.236 742.663C345.044 743.927 342.851 745.189 340.656 746.448C334.972 749.725 329.355 753.088 323.784 756.553C315.874 761.472 307.853 766.187 299.804 770.874C298.448 771.665 297.092 772.457 295.736 773.248C293.045 774.82 290.353 776.39 287.66 777.96C281.495 781.556 275.338 785.163 269.18 788.77L267.313 789.864C267.672 793.852 269.757 795.752 272.307 798.639L273.802 800.354C281.617 809.216 289.919 817.691 298.563 825.746C299.782 827.103 299.782 827.103 299.962 829.095L301.954 828.915C303.525 830.248 303.525 830.248 305.38 832.121C308.966 835.664 312.735 838.849 316.681 841.983C318.328 843.506 318.328 843.506 318.507 845.498L320.499 845.319L320.678 847.31L322.67 847.131C324.412 848.355 324.412 848.355 325.927 849.85L326.107 851.842L328.098 851.663L328.278 853.655L330.004 854.178C333.206 855.636 335.475 857.683 338.135 859.984C342.246 863.493 346.406 866.838 350.815 869.965C353.266 871.717 355.66 873.536 358.058 875.358L358.164 875.438C362.816 878.933 367.578 882.221 372.413 885.458C375.095 887.277 377.74 889.138 380.376 891.021C387.042 895.778 393.879 900.187 400.83 904.515C405.517 907.45 410.083 910.495 414.573 913.722C420.204 917.763 426.014 921.42 431.933 925.021C437.152 928.212 442.244 931.557 447.3 934.998C453.099 938.942 458.951 942.741 464.94 946.392C471.492 950.408 477.973 954.537 484.463 958.651C486.089 959.679 487.719 960.7 489.35 961.719C494.602 965.023 499.551 968.637 504.471 972.418C506.859 974.26 506.859 974.26 509.966 975.857C511.101 978.704 511.101 978.704 511.5 981.743C510.61 983.706 510.61 983.706 508.781 985C503.449 986.684 499.847 984.314 495.191 981.901C492.363 980.486 489.539 979.331 486.583 978.213C480.51 975.88 474.583 973.281 468.648 970.622C464.336 968.691 460.016 966.785 455.67 964.931C424.712 951.714 395.577 936.611 367.242 918.422L365.099 917.054C344.592 903.954 324.666 890.022 305.529 874.991C302.472 872.594 299.372 870.263 296.244 867.959C292.031 864.82 287.937 861.556 283.883 858.216L282.13 856.789C280.727 855.621 279.374 854.394 278.031 853.158L277.852 851.166L275.86 851.345C274.33 850.079 274.33 850.079 272.507 848.258C269.493 845.293 266.435 842.399 263.314 839.547C242.356 820.09 242.356 820.09 235.97 809.754C231.352 810.814 227.58 813.081 223.564 815.495L223.549 815.504L221.335 816.816C218.988 818.209 216.644 819.609 214.301 821.008L214.209 821.063C210.98 822.981 207.749 824.896 204.519 826.81L204.331 826.922L201.859 828.389C194.984 832.464 188.065 836.458 181.124 840.42C174.27 844.34 167.488 848.333 160.803 852.533C153.58 857.038 146.188 861.253 138.809 865.495L135.268 867.531L133.471 868.564C129.369 870.927 125.287 873.321 121.212 875.731C104.744 885.453 87.9871 894.511 71.0148 903.321C66.6277 905.6 62.2539 907.901 57.8896 910.223L54.6926 911.922C52.783 912.937 50.8747 913.955 48.9678 914.976C40.2387 919.602 30.0724 924.71 19.9088 922.643C12.8978 920.205 8.82879 913.368 5.57858 907.056C-1.52453 891.801 -2.38096 870.772 6.71231 856.172ZM36.1791 887.982C32.4644 890.642 28.9153 893.087 24.7654 895.034C22.7367 890.857 21.7621 887.285 21.3303 882.667L21.3203 882.536C20.8004 875.709 20.0934 866.426 24.705 860.902C26.8031 866.466 29.1516 871.823 31.8147 877.142C33.6432 880.725 35.1649 884.085 36.1791 887.982ZM43.354 850.719C41.5947 847.398 40.0114 844.775 37.4574 842.01C35.3765 840.369 35.3765 840.369 35.3629 839.021C37.2954 838.179 39.2275 837.335 41.1594 836.491C48.1753 833.401 55.1985 830.34 62.2776 827.398C80.2099 819.95 97.7428 812.317 114.697 802.805C118.643 800.57 122.599 798.358 126.581 796.19L128.451 795.174C130.319 794.159 132.188 793.144 134.057 792.131C140.38 788.703 146.717 785.299 152.982 781.766L155.947 780.082C157.757 779.067 159.566 778.052 161.375 777.036C165.193 774.807 168.215 772.437 172.719 773.081C175.117 774.23 175.117 774.23 177.924 775.087L180.791 775.915L183.66 776.767C187.387 777.386 189.963 776.753 193.031 774.563C194.965 770.661 193.79 766.141 192.601 762.113L191.968 760.664L193.48 759.336L236.896 735.535C239.722 732.964 241.3 732.132 245.15 731.717C248.565 731.472 249.858 731.32 252.383 729.121C254.94 724.372 257.752 722.393 262.339 719.859C264.163 718.884 265.98 717.896 267.791 716.897L270.746 715.262C275.907 712.428 281.023 709.525 286.12 706.578L289.343 704.709C296.269 700.703 303.182 696.677 310.072 692.611L312.307 691.291C315.362 689.486 318.417 687.682 321.472 685.877C332.982 679.075 344.54 672.373 356.187 665.809C366.443 660.035 376.591 654.114 386.651 648.006C393.541 643.785 400.226 639.837 407.734 636.82C409.651 643.532 411.331 650.195 414.937 656.232L416.866 659.319L418.806 662.433L420.293 664.807C406.57 672.631 392.919 680.57 379.321 688.609L376.882 690.051L374.415 691.509C363.873 697.743 353.325 703.966 342.754 710.15L340.768 711.312C334.049 715.243 327.329 719.173 320.604 723.095C317.688 724.796 314.773 726.497 311.858 728.2C310.446 729.025 309.033 729.85 307.62 730.674C299.939 735.146 292.291 739.655 284.742 744.347C278.991 747.922 273.201 751.408 267.342 754.803L264.208 756.609L260.953 758.508L257.816 760.318C254.427 762.279 251.352 763.727 247.554 764.697L218.113 783.412C211.188 787.784 204.255 792.117 197.075 796.061C188.749 800.61 180.591 805.403 172.465 810.3C163.004 816.003 153.497 821.609 143.92 827.115C136.927 831.135 129.961 835.173 123.131 839.466C118.748 842.228 114.313 844.831 109.769 847.321C103.383 850.808 97.15 854.406 91.0762 858.416C85.5592 862.066 80.0067 865.646 74.3917 869.144L71.5547 870.904L68.8192 872.615L66.2474 874.206C63.5289 875.893 61.0238 877.209 57.9623 878.152C56.1895 874.874 54.4233 871.594 52.6791 868.301C51.4914 866.05 50.3005 863.802 49.1046 861.555C48.458 860.342 47.812 859.128 47.1668 857.914C46.2089 856.092 45.2506 854.27 44.2817 852.454L43.354 850.719Z" fill="#00FFD4"/>
</svg>
