<svg width="990" height="76" viewBox="0 0 990 76" fill="none" xmlns="http://www.w3.org/2000/svg">
<path d="M0.267751 72.8749C2.21265 67.5097 5.74343 64.4481 9.84711 60.6934C11.2044 59.4275 12.5608 58.1605 13.9163 56.8926C14.5651 56.2886 15.2138 55.6847 15.8823 55.0624C17.9908 53.0756 20.022 51.0239 22.0336 48.9394C30.1808 40.6521 39.0239 34.012 48.644 27.5558C50.4579 26.3294 52.2521 25.0742 54.0444 23.8163C77.5707 7.58853 101.814 2.78862 130.059 7.54638C141.73 10.0855 152.883 14.9122 164.001 19.169C178.015 24.5002 192.237 28.4498 207.246 29.4692C207.961 29.5346 208.676 29.6001 209.413 29.6675C222.108 30.5292 233.899 26.67 245.682 22.4052C274.188 12.4148 299.369 12.7752 329.008 17.6459C363.086 23.2071 391.913 20.124 425.209 12.1109C464.223 2.75556 500.069 5.20691 538.983 13.2632C551.392 15.8256 563.741 18.0371 576.324 19.545C577.682 19.7138 579.039 19.8826 580.437 20.0565C603.43 22.6485 623.964 19.6814 646.074 13.4656C650.365 12.2615 654.668 11.0971 658.969 9.93017C659.806 9.70265 660.643 9.47512 661.504 9.24071C700.313 -1.26804 735.593 -2.4629 774.353 8.77369C791.254 13.6513 808.031 17.6474 825.478 20.0699C826.726 20.2439 827.974 20.4179 829.26 20.5972C856.467 24.2342 882.84 24.3974 910.141 21.9733C967.194 16.9192 967.194 16.9192 983.755 28.5439C986.787 31.592 988.569 33.4069 989.76 37.5479C989.418 41.7549 987.975 43.1403 984.868 45.8941C981.801 47.2026 979.394 46.7815 976.061 46.5946C959.386 45.7944 943.048 45.7363 926.398 47.0904C925.539 47.1589 924.68 47.2274 923.795 47.298C915.98 47.9263 908.175 48.61 900.378 49.4312C853.037 54.0149 804.513 45.1616 759.227 31.974C738.587 26.099 716.511 24.3811 695.352 28.4178C694.571 28.5623 693.789 28.7067 692.984 28.8556C682.804 30.7975 672.792 33.3679 662.796 36.0857C661.944 36.3166 661.092 36.5475 660.215 36.7854C655.955 37.943 651.699 39.114 647.448 40.3089C639.156 42.6106 630.908 44.578 622.406 45.9474C621.627 46.073 620.848 46.1987 620.046 46.3281C590.574 50.7506 559.846 44.4981 530.97 38.6811C493.617 31.1572 461.462 30.4251 424.214 39.2919C423.501 39.4614 422.788 39.631 422.053 39.8057C418.52 40.6485 414.992 41.5048 411.467 42.3795C392.63 46.9683 374.784 48.1953 355.52 47.0611C354.254 46.9889 354.254 46.9889 352.962 46.9154C340.6 46.1891 328.494 44.7955 316.287 42.735C292.66 38.7729 274.012 39.9728 251.356 48.0646C216.043 60.5504 183.836 55.0778 149.493 41.8525C124.765 32.33 102.757 28.3634 77.1899 37.8382C67.6031 42.2282 58.6273 47.9571 49.7128 53.5639C13.3672 76.2615 13.3672 76.2615 3.44606 75.0246C1.27905 74.0162 1.27905 74.0162 0.267751 72.8749Z" fill="#00FFD4"/>
</svg>
