<svg width="16" height="16" viewBox="0 0 16 16" fill="none" xmlns="http://www.w3.org/2000/svg">
<g clip-path="url(#clip0_71_43)">
<path d="M6.06663 0.0694897C6.10226 0.0684324 6.13789 0.0673751 6.1746 0.0662857C6.20494 0.0707264 6.23529 0.0751671 6.26655 0.0797423C6.30715 0.140643 6.30715 0.140643 6.34857 0.202774C6.38917 0.216307 6.42977 0.229841 6.47161 0.243785C6.47161 0.270851 6.47161 0.297918 6.47161 0.325806C6.42775 0.323665 6.42775 0.323665 6.38302 0.32148C6.12793 0.314271 5.96022 0.333122 5.73342 0.448837C5.67917 0.464138 5.62464 0.478794 5.56937 0.489848C5.56937 0.516915 5.56937 0.543982 5.56937 0.571869C5.51635 0.625375 5.51635 0.625375 5.43865 0.689774C5.2786 0.826106 5.12202 0.965542 4.96703 1.10757C4.93343 1.13797 4.93343 1.13797 4.89916 1.16898C4.63925 1.39483 4.63925 1.39483 4.47731 1.68716C4.48202 1.82418 4.49372 1.91166 4.5723 2.02518C4.67576 2.09508 4.75078 2.10848 4.87219 2.13027C4.94653 2.19435 4.94653 2.19435 4.99523 2.2533C5.02314 2.23892 5.05105 2.22454 5.07981 2.20973C5.23115 2.16143 5.33061 2.18907 5.48735 2.21229C5.589 2.21459 5.69071 2.21486 5.79237 2.21341C5.84993 2.21289 5.9075 2.21239 5.96506 2.21189C6.05441 2.21087 6.14376 2.20972 6.23311 2.20836C6.3203 2.20711 6.40748 2.20639 6.49467 2.20572C6.54632 2.20503 6.59797 2.20434 6.65119 2.20363C6.80809 2.21278 6.93684 2.24846 7.08676 2.29431C7.54665 2.38042 7.99253 2.38342 8.45768 2.37156C8.54138 2.36959 8.62506 2.36836 8.70876 2.3672C8.78214 2.36545 8.78214 2.36545 8.857 2.36367C8.89536 2.36785 8.93372 2.37203 8.97325 2.37633C9.07387 2.52727 9.08999 2.67001 9.11679 2.84539C9.15622 3.11297 9.15622 3.11297 9.26032 3.36059C9.28047 3.54996 9.25347 3.65977 9.13729 3.8117C9.11022 3.8117 9.08316 3.8117 9.05527 3.8117C9.04499 3.90907 9.04499 3.90907 9.05527 4.01675C9.10821 4.07658 9.10821 4.07658 9.1783 4.13979C9.21962 4.21087 9.25761 4.28303 9.29476 4.35637C9.34013 4.4325 9.34013 4.4325 9.42404 4.48485C9.52458 4.56427 9.54921 4.63162 9.5961 4.74982C9.69237 4.95518 9.79165 5.02508 9.9921 5.12164C10.1226 5.18571 10.2001 5.2525 10.2856 5.3701C10.3011 5.46062 10.3064 5.54934 10.3117 5.641C10.3338 5.78686 10.4012 5.89339 10.4777 6.01778C10.5301 6.10576 10.5688 6.19349 10.6085 6.28771C10.6727 6.41752 10.6928 6.43484 10.829 6.50815C10.8797 6.52506 10.9305 6.54198 10.9828 6.55941C11.0671 6.60071 11.15 6.64421 11.2332 6.68789C11.3956 6.76223 11.5431 6.77104 11.721 6.77215C11.7632 6.77273 11.8055 6.77331 11.8491 6.77391C11.9668 6.76448 12.0332 6.74698 12.1311 6.68244C12.1446 6.65537 12.1581 6.62831 12.1721 6.60042C12.2807 6.57608 12.3891 6.56999 12.5002 6.55941C12.4866 6.60001 12.4731 6.64061 12.4591 6.68244C12.4904 6.70866 12.5217 6.73488 12.554 6.7619C12.7645 6.97722 12.7954 7.24207 12.8052 7.53341C12.7822 8.42421 12.1375 9.39168 11.5159 10.0043C11.487 10.0336 11.4581 10.063 11.4283 10.0932C11.1753 10.3352 10.8513 10.5784 10.4906 10.5784C10.4805 10.6148 10.4703 10.6512 10.4599 10.6887C10.4086 10.8245 10.4086 10.8245 10.324 10.9142C10.2372 11.0403 10.234 11.0839 10.2266 11.232C10.2112 11.5285 10.1069 11.7809 9.99851 12.0548C9.91731 12.0548 9.83611 12.0548 9.75245 12.0548C9.73892 12.0142 9.72538 11.9736 9.71144 11.9318C9.72497 11.9047 9.73851 11.8777 9.75245 11.8498C9.75328 11.7669 9.75211 11.684 9.74989 11.6011C9.74782 11.3682 9.77106 11.1713 9.83447 10.9475C9.848 10.934 9.86154 10.9205 9.87548 10.9065C9.88173 10.7189 9.87471 10.5567 9.83447 10.3734C9.81906 10.2505 9.80607 10.1275 9.79346 10.0043C9.5801 9.94429 9.34988 9.93343 9.13729 10.0043C9.13729 10.0356 9.13729 10.0669 9.13729 10.0991C9.09628 10.2093 9.09628 10.2093 9.02339 10.2431C8.99416 10.2523 8.96492 10.2614 8.9348 10.2709C8.79651 10.3129 8.79651 10.3129 8.70668 10.4247C8.68208 10.5599 8.68079 10.6873 8.68617 10.8245C8.65789 10.8212 8.62961 10.8178 8.60047 10.8144C8.3562 10.7963 8.3562 10.7963 8.1359 10.8884C8.07551 10.9415 8.01533 10.9949 7.95535 11.0485C7.82787 11.1385 7.73881 11.1212 7.58866 11.1095C7.2738 11.1166 6.98199 11.4221 6.74634 11.6082C6.64828 11.6769 6.58816 11.7101 6.47161 11.7267C6.46711 11.701 6.46262 11.6754 6.45799 11.6489C6.45149 11.6154 6.44498 11.5818 6.43828 11.5473C6.4321 11.514 6.42591 11.4807 6.41954 11.4464C6.39469 11.343 6.39469 11.343 6.26655 11.2756C6.26655 11.2486 6.26655 11.2215 6.26655 11.1936C5.98871 11.2276 5.98871 11.2276 5.74879 11.3602C5.68184 11.5032 5.68364 11.6012 5.69865 11.7562C5.69241 11.8498 5.69241 11.8498 5.63393 11.9369C5.53776 12.1126 5.53709 12.288 5.52324 12.4854C5.51724 12.5619 5.51116 12.6384 5.50497 12.7148C5.50254 12.7485 5.5001 12.7822 5.49759 12.817C5.48735 12.916 5.48735 12.916 5.46334 13.0239C5.44173 13.1475 5.47445 13.2151 5.52836 13.3261C5.5013 13.3532 5.47423 13.3803 5.44634 13.4082C5.3052 13.3937 5.23847 13.3653 5.11826 13.2851C5.09161 13.2255 5.09161 13.2255 5.06443 13.1647C4.98099 13.0132 4.90687 12.9791 4.74916 12.916C4.76185 12.8763 4.77454 12.8365 4.78761 12.7956C4.83855 12.6193 4.85648 12.4422 4.87219 12.2599C4.89258 12.2735 4.91296 12.2871 4.9335 12.3007C4.95387 12.3143 4.9744 12.328 4.99523 12.3419C4.99523 12.396 4.99523 12.4502 4.99523 12.5059C5.04006 12.4856 5.08489 12.4653 5.13107 12.4444C5.2823 12.3829 5.2823 12.3829 5.40533 12.3829C5.34545 12.2432 5.28077 12.1475 5.15927 12.0548C5.04847 12.0291 4.94539 12.0214 4.83118 12.0138C4.83118 12.0544 4.83118 12.095 4.83118 12.1368C4.74488 12.0955 4.66373 12.0526 4.58336 12.0005C4.37923 11.8708 4.2448 11.8289 4.00473 11.8666C3.91991 11.8873 3.91991 11.8873 3.84693 11.9728C3.84186 12.0185 3.83678 12.0642 3.83155 12.1112C3.80592 12.2599 3.80592 12.2599 3.72134 12.3316C3.63067 12.4164 3.63067 12.4164 3.64268 12.5255C3.6458 12.5647 3.64892 12.6039 3.65213 12.6443C3.66015 12.8516 3.66015 12.8516 3.57956 12.9548C3.44676 13.0559 3.3138 13.1236 3.15744 13.18C3.0151 13.2331 3.0151 13.2331 2.96264 13.3774C2.95424 13.4024 2.94583 13.4273 2.93717 13.453C2.88553 13.5736 2.80014 13.6588 2.71113 13.7536C2.5909 13.899 2.60309 14.0718 2.60492 14.2511C2.62162 14.3943 2.67421 14.4618 2.78066 14.5565C2.80942 14.5675 2.83817 14.5785 2.8678 14.5898C2.9447 14.6385 2.9447 14.6385 2.96745 14.7104C2.97649 14.7535 2.97649 14.7535 2.98571 14.7974C3.019 14.9542 3.05288 15.0374 3.19076 15.1306C3.23813 15.1374 3.2855 15.1441 3.3343 15.1511C3.47784 15.1716 3.47784 15.1716 3.55473 15.2511C3.7174 15.409 3.92795 15.4183 4.14778 15.4167C4.24005 15.414 4.3323 15.4101 4.42444 15.4046C4.57486 15.4211 4.60663 15.475 4.70815 15.5817C4.88531 15.6067 5.0377 15.5704 5.17977 15.4638C5.24813 15.3759 5.24813 15.3759 5.2823 15.2536C5.39764 15.246 5.39764 15.246 5.52836 15.2536C5.59501 15.3126 5.59501 15.3126 5.65139 15.3767C5.73765 15.406 5.73765 15.406 5.81544 15.4177C5.82897 15.4854 5.8425 15.553 5.85645 15.6227C5.80443 15.6562 5.75229 15.6895 5.70009 15.7227C5.67107 15.7413 5.64205 15.7598 5.61215 15.7789C5.11968 16.0661 4.0771 16.0363 3.53198 15.8996C3.16409 15.7806 2.86527 15.6345 2.5756 15.3767C2.54991 15.3553 2.52422 15.3339 2.49775 15.3118C2.23228 15.0736 2.04951 14.7421 2.00146 14.3873C1.97757 13.8121 2.2503 13.3776 2.61661 12.9571C2.64368 12.93 2.67075 12.9029 2.69864 12.875C2.69866 12.7862 2.69866 12.7862 2.68214 12.6833C2.64938 12.3878 2.66269 12.0976 2.67557 11.8011C2.67776 11.7458 2.67992 11.6906 2.68206 11.6353C2.68732 11.5018 2.69285 11.3682 2.69864 11.2346C2.73557 11.2353 2.73557 11.2353 2.77325 11.236C2.80593 11.2363 2.83862 11.2367 2.87229 11.237C2.90452 11.2375 2.93676 11.2379 2.96997 11.2384C3.12017 11.2326 3.25127 11.1935 3.39581 11.1526C3.46405 11.1384 3.53236 11.1244 3.60087 11.1116C3.60087 11.1386 3.60087 11.1657 3.60087 11.1936C3.63555 11.1882 3.67023 11.1827 3.70596 11.1771C3.80229 11.1621 3.89868 11.1475 3.99511 11.1332C4.07307 11.1211 4.15093 11.1079 4.22804 11.0912C4.44057 11.0487 4.57285 11.1059 4.76262 11.1914C4.91679 11.2522 5.07172 11.2759 5.23504 11.3005C5.32331 11.3166 5.32331 11.3166 5.36432 11.3576C5.5084 11.3777 5.55996 11.3641 5.68215 11.2807C5.80539 11.1644 5.82369 11.0971 5.83082 10.9322C5.82833 10.7918 5.82474 10.7545 5.73598 10.64C5.59544 10.5711 5.4856 10.5556 5.33084 10.5486C5.14586 10.5255 5.03356 10.4289 4.9132 10.2914C4.9132 10.2643 4.9132 10.2372 4.9132 10.2093C4.34243 10.0786 4.34243 10.0786 3.80592 10.2093C3.72358 10.2339 3.72358 10.2339 3.63675 10.2529C3.48771 10.2744 3.48771 10.2744 3.43683 10.3324C3.37651 10.3475 3.31576 10.3609 3.25484 10.3734C3.15618 10.3937 3.0759 10.4103 2.98571 10.4554C2.89003 10.4571 2.79431 10.4572 2.69864 10.4554C2.71217 10.4283 2.7257 10.4013 2.73965 10.3734C2.76671 10.3734 2.79378 10.3734 2.82167 10.3734C2.82167 10.3057 2.82167 10.2381 2.82167 10.1683C2.77853 10.1544 2.77853 10.1544 2.73452 10.1401C2.53121 10.0473 2.40717 9.94033 2.29109 9.75311C2.17958 9.4471 2.28017 9.10548 2.40419 8.81851C2.46832 8.70512 2.5524 8.64369 2.65763 8.56893C2.71229 8.46155 2.71229 8.46155 2.73965 8.36387C2.71596 8.36134 2.69228 8.3588 2.66788 8.35618C2.51659 8.30155 2.44072 8.17612 2.37055 8.03579C2.30684 7.62679 2.31654 7.23845 2.39362 6.83271C2.42428 6.64598 2.40539 6.52855 2.32954 6.35948C2.26368 6.20011 2.21842 6.07784 2.24752 5.90324C2.30904 5.80584 2.30904 5.80584 2.37055 5.7392C2.38831 5.77811 2.40608 5.81702 2.42438 5.8571C2.48509 5.99348 2.48509 5.99348 2.61661 6.06728C2.71133 6.07123 2.80275 6.06461 2.89728 6.05815C2.98571 6.06728 2.98571 6.06728 3.05828 6.11822C3.147 6.24497 3.11615 6.36776 3.10874 6.5184C3.13205 6.50481 3.15537 6.49123 3.17939 6.47723C3.33511 6.40912 3.4809 6.43164 3.64188 6.47739C3.6605 6.49428 3.67598 6.50832 3.6893 6.52049C3.7548 6.58035 3.76812 6.59511 3.84693 6.68244C3.91037 6.69767 3.91037 6.69767 3.97509 6.7132C4.09299 6.76446 4.09299 6.76446 4.13593 6.83399C4.28843 7.23538 4.25074 7.6835 4.09299 8.0768C3.86985 8.52047 3.58891 8.93545 3.31379 9.34813C3.4252 9.40383 3.51507 9.39456 3.63931 9.39426C3.68282 9.39437 3.72633 9.39447 3.77116 9.39458C3.89105 9.39429 3.89105 9.39429 4.01097 9.34813C4.07325 9.34435 4.13569 9.34279 4.19808 9.343C4.23028 9.34289 4.26247 9.34279 4.29564 9.34268C4.38007 9.34813 4.38007 9.34813 4.46209 9.38914C4.45194 9.31174 4.45194 9.31174 4.44158 9.23278C4.42517 9.08067 4.41486 8.9295 4.41083 8.77654C4.40977 8.73895 4.40871 8.70137 4.40762 8.66264C4.41206 8.63171 4.4165 8.60079 4.42108 8.56893C4.57453 8.46662 4.6492 8.47148 4.83118 8.4869C5.0909 8.5804 5.21899 8.74903 5.35663 8.98159C5.44218 9.19788 5.42903 9.44843 5.40533 9.67621C5.37826 9.71681 5.3512 9.75741 5.32331 9.79924C5.36793 9.82018 5.41255 9.84111 5.45852 9.86268C5.87892 10.0678 6.21627 10.2945 6.51262 10.6605C6.51262 10.6875 6.51262 10.7146 6.51262 10.7425C6.53968 10.7154 6.56675 10.6884 6.59464 10.6605C6.61325 10.642 6.63185 10.6235 6.65103 10.6044C6.70014 10.555 6.74877 10.5052 6.79713 10.4551C6.82504 10.4264 6.85295 10.3978 6.88171 10.3683C6.90793 10.3411 6.93415 10.3139 6.96117 10.2859C7.03371 10.2202 7.04404 10.2109 7.10406 10.1768C7.11402 10.1711 7.12536 10.1648 7.13857 10.1574C7.27269 10.0725 7.37965 9.96924 7.49078 9.85723C7.51296 9.83514 7.53513 9.81304 7.55798 9.79027C7.60461 9.7437 7.65113 9.69703 7.69756 9.65026C7.76834 9.57903 7.83955 9.50826 7.91082 9.43752C7.95623 9.39205 8.00162 9.34655 8.04699 9.30103C8.06814 9.28005 8.08928 9.25906 8.11107 9.23745C8.1724 9.17532 8.22599 9.11369 8.27483 9.04825C8.31947 8.98844 8.36014 8.92545 8.3991 8.856C8.4479 8.80569 8.4984 8.75698 8.55033 8.7099C8.72376 8.54221 8.84789 8.35613 8.97501 8.15193C9.05527 8.03579 9.05527 8.03579 9.16613 7.93999C9.29271 7.79317 9.28982 7.66975 9.28339 7.48471C9.28265 7.45077 9.28191 7.41682 9.28115 7.38185C9.24972 6.53955 9.06664 5.60891 8.48256 4.97073C8.40355 4.88293 8.34548 4.79781 8.28632 4.69599C8.22293 4.58763 8.18724 4.54466 8.08383 4.46531C7.95031 4.35343 7.92982 4.27014 7.90697 4.09878C7.94546 3.85568 8.08302 3.69819 8.24659 3.52319C8.34603 3.40951 8.41152 3.28917 8.48112 3.15553C8.39654 3.12686 8.3119 3.09835 8.22705 3.07047C8.14844 3.04452 8.07006 3.0179 7.99188 2.99069C7.43208 2.80432 6.85496 2.77516 6.26992 2.7456L6.26655 2.74543C6.26195 2.78936 6.25735 2.83329 6.25262 2.87855C6.20458 3.15168 6.03477 3.32614 5.82056 3.49387C5.76482 3.53241 5.70842 3.57003 5.65139 3.60665C5.61206 3.6329 5.61206 3.6329 5.57194 3.65967C5.38097 3.77248 5.22563 3.79027 5.0066 3.75788C4.86594 3.71541 4.79356 3.64135 4.70815 3.52463C4.70815 3.49756 4.70815 3.47049 4.70815 3.44261C4.51485 3.57841 4.39831 3.73986 4.26729 3.93217C4.2242 3.99465 4.1811 4.05713 4.13801 4.1196C4.11676 4.15059 4.09552 4.18159 4.07363 4.21352C4.01542 4.29742 3.95588 4.38009 3.89547 4.46242C3.87809 4.48643 3.86071 4.51043 3.84281 4.53516C3.79588 4.59989 3.74861 4.66437 3.70131 4.72883C3.63228 4.82936 3.63228 4.82936 3.65277 4.92395C3.66271 4.94938 3.67265 4.97481 3.68289 5.00101C3.68448 5.09669 3.68473 5.19241 3.68289 5.28808C3.71334 5.29147 3.74379 5.29485 3.77516 5.29833C3.91192 5.33563 3.96782 5.37984 4.05198 5.49313C4.05039 5.50746 4.04905 5.51956 4.0478 5.53006C4.04099 5.58714 4.03696 5.59655 4.01097 5.65718C3.98983 5.64533 3.96868 5.63349 3.94689 5.62129C3.82133 5.56334 3.69291 5.53048 3.55986 5.49313C3.52772 5.47876 3.49557 5.46438 3.46246 5.44956C3.16823 5.34448 2.84275 5.36492 2.53459 5.3701C2.55702 5.21821 2.57069 5.17046 2.67813 5.05227C2.77061 4.94918 2.79306 4.88444 2.80036 4.74661C2.81728 4.55626 2.86365 4.39761 2.93701 4.22181C2.94931 4.1922 2.9616 4.16259 2.97428 4.13208C3.19414 3.63259 3.54772 3.19794 3.91053 2.79461C3.97954 2.71072 3.97954 2.71072 3.96099 2.6216C3.95042 2.59479 3.93985 2.56799 3.92895 2.54037C3.88741 2.3451 3.86248 2.21857 3.95971 2.038C3.99016 2.00078 4.02061 1.96356 4.05198 1.92522C4.17002 1.73946 4.2616 1.54319 4.35556 1.3445C4.42108 1.22804 4.48858 1.15508 4.58512 1.064C4.62865 1.00736 4.67135 0.950093 4.71328 0.892264C5.05133 0.454747 5.49182 0.0797846 6.06663 0.0694897ZM3.31379 7.33861C3.32733 7.37921 3.34086 7.41981 3.3548 7.46164C3.36834 7.42104 3.38187 7.38044 3.39581 7.33861C3.36875 7.33861 3.34168 7.33861 3.31379 7.33861ZM11.498 7.51803C11.2636 7.61756 11.0327 7.68851 10.7777 7.7077C10.7506 7.69417 10.7236 7.68064 10.6957 7.66669C10.6875 7.81909 10.6895 7.8624 10.7777 7.99478C10.8 8.12028 10.801 8.23845 10.7777 8.36387C10.743 8.39686 10.7084 8.42985 10.6726 8.46384C10.5616 8.55638 10.5616 8.55638 10.5725 8.6652C10.5828 8.73758 10.5937 8.80989 10.605 8.88211C10.6171 9.01755 10.5741 9.07973 10.4906 9.18408C10.4678 9.22215 10.445 9.26021 10.4214 9.29943C10.4037 9.32903 10.3859 9.35863 10.3676 9.38914C10.4154 9.45747 10.4154 9.45747 10.4906 9.51217C10.7318 9.49104 10.8563 9.35523 11.0075 9.17661C11.3556 8.72344 11.823 8.08967 11.844 7.50265C11.8237 7.46205 11.8237 7.46205 11.803 7.42063C11.6861 7.42063 11.6044 7.47013 11.498 7.51803ZM3.47784 11.4397C3.49137 11.4667 3.5049 11.4938 3.51885 11.5217C3.53238 11.4946 3.54591 11.4676 3.55986 11.4397C3.53279 11.4397 3.50572 11.4397 3.47784 11.4397ZM3.51885 11.8498C3.51885 11.8904 3.51885 11.931 3.51885 11.9728C3.55945 11.9593 3.60005 11.9457 3.64188 11.9318C3.60128 11.9047 3.56068 11.8777 3.51885 11.8498Z" fill="#003D48"/>
<path d="M6.30765 0.120627C6.33895 0.127393 6.37024 0.13416 6.40249 0.141132C6.51418 0.165388 6.51418 0.165388 6.63573 0.161637C6.60867 0.215771 6.5816 0.269905 6.55371 0.325679C6.57993 0.363742 6.60615 0.401805 6.63317 0.441021C6.71775 0.571743 6.71775 0.571743 6.75877 0.694774C6.94423 0.703606 7.07663 0.673212 7.25089 0.612753C7.30164 0.605986 7.35239 0.59922 7.40468 0.592248C7.54118 0.584695 7.54118 0.584695 7.61999 0.489721C7.80351 0.458714 7.94945 0.467427 8.11211 0.558927C8.20305 0.664071 8.21378 0.724597 8.23514 0.858816C8.2767 0.863786 8.31825 0.868755 8.36106 0.873875C8.41649 0.880804 8.47192 0.887746 8.52734 0.894701C8.55462 0.897925 8.5819 0.90115 8.61001 0.904473C8.78105 0.926273 8.93472 0.963404 9.09637 1.02286C9.14204 1.03808 9.18772 1.05331 9.23478 1.069C9.2703 1.08084 9.30583 1.09268 9.34243 1.10488C9.36273 1.04398 9.36273 1.04398 9.38344 0.981848C9.48597 0.940837 9.48597 0.940837 9.58849 0.899827C9.60879 0.838926 9.60879 0.838926 9.6295 0.776795C9.86939 0.839843 10.023 0.887004 10.1626 1.10488C10.2032 1.14548 10.2032 1.14548 10.2447 1.1869C10.2311 1.2275 10.2176 1.2681 10.2037 1.30993C10.2592 1.41134 10.316 1.50418 10.3805 1.59957C10.3976 1.62571 10.4147 1.65185 10.4323 1.67879C10.5485 1.87821 10.5485 1.87821 10.7377 1.98484C10.7696 1.98965 10.8014 1.99447 10.8342 1.99942C10.978 2.02861 11.0183 2.04285 11.129 2.14809C11.1879 2.25317 11.1879 2.25317 11.1879 2.37621C11.2556 2.37621 11.3232 2.37621 11.393 2.37621C11.393 2.34914 11.393 2.32207 11.393 2.29419C11.5738 2.31485 11.6729 2.37257 11.8031 2.49924C11.8797 2.64156 11.8894 2.74982 11.8851 2.90934C11.8986 2.93641 11.9121 2.96348 11.9261 2.99136C11.9049 2.99475 11.8838 2.99813 11.862 3.00162C11.7192 3.04556 11.6033 3.11994 11.475 3.19642C11.5156 3.25055 11.5562 3.30469 11.598 3.36046C11.6192 3.34016 11.6403 3.31986 11.6621 3.29894C11.7951 3.21707 11.8958 3.22858 12.0491 3.23743C12.0491 3.21036 12.0491 3.18329 12.0491 3.15541C12.2307 3.21089 12.3178 3.28103 12.4182 3.44248C12.449 3.59883 12.449 3.59883 12.4592 3.72955C12.4186 3.71602 12.378 3.70249 12.3362 3.68854C12.3362 3.72914 12.3362 3.76974 12.3362 3.81158C12.3091 3.81158 12.2821 3.81158 12.2542 3.81158C12.2136 3.89278 12.2136 3.89278 12.1722 3.97562C12.1316 3.97562 12.091 3.97562 12.0491 3.97562C12.0504 4.04286 12.0504 4.04286 12.0517 4.11146C12.0489 4.2767 12.0435 4.35033 11.9261 4.46774C11.9938 4.49481 12.0614 4.52188 12.1311 4.54977C12.1345 4.52608 12.1379 4.5024 12.1414 4.478C12.1832 4.35269 12.2297 4.30014 12.3362 4.22168C12.4319 4.22003 12.5276 4.21991 12.6233 4.22168C12.6639 4.16078 12.6639 4.16078 12.7053 4.09865C12.7157 4.1318 12.7261 4.16494 12.7369 4.19909C12.751 4.24292 12.7651 4.28674 12.7796 4.3319C12.7934 4.37519 12.8072 4.41849 12.8214 4.4631C12.865 4.59132 12.865 4.59132 12.936 4.69971C13.0125 4.83006 13.0011 4.93468 12.9924 5.0829C12.9518 5.09644 12.9112 5.10997 12.8693 5.12391C12.8237 5.17593 12.8237 5.17593 12.7771 5.229C12.6643 5.32897 12.6643 5.32897 12.5079 5.34178C12.4648 5.33755 12.4217 5.33332 12.3772 5.32897C12.3772 5.41017 12.3772 5.49137 12.3772 5.57503C12.4229 5.58264 12.4229 5.58264 12.4695 5.59041C12.6148 5.62343 12.7146 5.6493 12.7982 5.77784C12.8115 5.80734 12.8249 5.83684 12.8386 5.86723C12.8523 5.89694 12.8661 5.92665 12.8802 5.95726C12.8902 5.97999 12.9001 6.00272 12.9103 6.02614C12.9374 6.01261 12.9645 5.99908 12.9924 5.98513C12.9784 6.34437 12.9784 6.34437 12.8873 6.51571C12.7526 6.62968 12.6272 6.67014 12.4592 6.72332C12.4457 6.69626 12.4322 6.66919 12.4182 6.6413C12.4453 6.6413 12.4724 6.6413 12.5002 6.6413C12.5002 6.61424 12.5002 6.5873 12.5002 6.55941C12.3919 6.57294 12.2836 6.58648 12.1721 6.60042C12.1585 6.64102 12.1451 6.68149 12.1311 6.72332C11.9365 6.85542 11.6994 6.82797 11.475 6.80535C11.086 6.7034 11.086 6.7034 10.9418 6.55928C10.8962 6.54406 10.8505 6.52883 10.8034 6.51314C10.6411 6.44607 10.5972 6.35756 10.5306 6.19996C10.4883 6.10247 10.4361 6.01667 10.3805 5.92618C10.3051 5.79422 10.274 5.69583 10.2652 5.54427C10.2557 5.40464 10.2475 5.37383 10.1601 5.25463C10.0612 5.18103 9.98592 5.13899 9.87557 5.09059C9.68144 5.00105 9.59681 4.86161 9.50647 4.6728C9.49294 4.6322 9.4794 4.5916 9.46546 4.54977C9.43332 4.52524 9.40118 4.50071 9.36806 4.47543C9.24596 4.37368 9.19759 4.28545 9.13738 4.13966C9.13738 4.11259 9.13738 4.08553 9.13738 4.05764C9.07648 4.03734 9.07648 4.03734 9.01434 4.01663C9.02788 3.94896 9.04133 3.88142 9.05527 3.8117C9.08316 3.8117 9.11022 3.8117 9.13729 3.8117C9.21168 3.65363 9.23684 3.53484 9.2194 3.36046C9.18968 3.29561 9.15984 3.23081 9.12905 3.16646C9.0676 2.99146 9.05418 2.80613 9.03197 2.62275C9.02149 2.50271 9.02149 2.50271 8.97333 2.41722C8.93804 2.41765 8.90275 2.41808 8.86639 2.41852C8.73225 2.41994 8.59811 2.42096 8.46396 2.42172C8.4065 2.42213 8.34904 2.42268 8.29158 2.4234C7.8399 2.42892 7.38034 2.42491 6.94466 2.29173C6.78798 2.25004 6.65663 2.24444 6.49476 2.24661C6.4527 2.24693 6.4527 2.24693 6.40978 2.24725C6.32105 2.24798 6.23233 2.24925 6.14361 2.25061C6.05488 2.25175 5.96616 2.25277 5.87743 2.25353C5.79693 2.25426 5.71644 2.25538 5.63594 2.25653C5.48744 2.25317 5.48744 2.25317 5.33189 2.22988C5.18656 2.21031 5.1271 2.23927 4.99531 2.29419C4.95471 2.26712 4.91411 2.24005 4.87228 2.21216C4.87228 2.1851 4.87219 2.15816 4.87219 2.13027C4.82736 2.12689 4.78262 2.12338 4.73643 2.11989C4.58521 2.08913 4.58521 2.08913 4.50575 2.02505C4.44374 1.8828 4.43828 1.74842 4.46217 1.59701C4.54211 1.47462 4.54211 1.47462 4.65441 1.3612C4.68427 1.3306 4.68427 1.3306 4.71473 1.29939C4.77991 1.23344 4.84636 1.16905 4.91329 1.10488C4.93695 1.08194 4.96062 1.05901 4.985 1.03537C5.41113 0.62452 5.41104 0.624647 5.56937 0.571869C5.56937 0.543982 5.56937 0.516915 5.56937 0.489848C5.79124 0.357578 5.94815 0.278666 6.21025 0.279542C6.24207 0.279437 6.2739 0.279331 6.30669 0.279222C6.38967 0.284669 6.38958 0.284795 6.47161 0.325806C6.47161 0.297918 6.47161 0.270851 6.47161 0.243785C6.41747 0.230251 6.36342 0.216591 6.30765 0.202648C6.30765 0.175581 6.30765 0.148514 6.30765 0.120627Z" fill="#07282E"/>
<path d="M9.72684 9.95033C9.82339 10.0283 9.84412 10.0889 9.8755 10.2092C9.87985 10.3189 9.87733 10.4275 9.8755 10.5373C9.88904 10.5508 9.90257 10.5644 9.91651 10.5783C9.92196 10.6526 9.92196 10.6526 9.92164 10.7423C9.92175 10.7719 9.92185 10.8016 9.92196 10.8321C9.91651 10.9064 9.91651 10.9064 9.8755 10.9474C9.81432 11.2185 9.78396 11.4836 9.7946 11.7612C9.79346 11.8518 9.77787 11.927 9.75247 12.0137C9.80069 12.0175 9.80069 12.0175 9.84987 12.0214C9.95753 12.0547 9.95753 12.0547 10.0139 12.1393C10.0479 12.2991 10.0471 12.4311 9.99854 12.5878C9.89311 12.7304 9.83143 12.7843 9.65764 12.8236C9.37392 12.9198 9.19525 13.1924 9.05529 13.449C9.03772 13.5033 9.02137 13.558 9.00659 13.6131C8.93589 13.816 8.78974 13.8905 8.60418 13.9822C8.59064 13.9551 8.57711 13.928 8.56317 13.9002C8.37233 13.8753 8.37233 13.8753 8.20465 13.9549C8.1817 13.9775 8.15876 14 8.13512 14.0232C8.02894 14.1243 7.96538 14.1652 7.81729 14.1693C7.59901 14.1371 7.599 14.1371 7.49689 14.0232C7.44563 13.913 7.44563 13.913 7.41487 13.8181C7.3472 13.8452 7.27954 13.8723 7.20982 13.9002C7.23012 13.9272 7.25042 13.9543 7.27133 13.9822C7.34893 14.1374 7.37584 14.2631 7.33285 14.4333C7.24918 14.5435 7.14889 14.629 7.00797 14.6502C6.87519 14.6956 6.82177 14.7923 6.7382 14.9024C6.58195 15.1076 6.49062 15.1859 6.24351 15.2509C6.10914 15.2925 6.06739 15.3158 5.9795 15.4175C5.95244 15.4175 5.92537 15.4175 5.89748 15.4175C5.91101 15.4717 5.92455 15.5258 5.93849 15.5816C5.91143 15.5816 5.88436 15.5816 5.85647 15.5816C5.84294 15.5275 5.82938 15.4735 5.81544 15.4177C5.73424 15.4042 5.65306 15.3905 5.5694 15.3765C5.55586 15.3359 5.54231 15.2955 5.52836 15.2536C5.48776 15.2401 5.44719 15.2264 5.40535 15.2125C5.40535 15.1584 5.40535 15.1042 5.40535 15.0485C5.38331 15.0689 5.36127 15.0893 5.33855 15.1103C5.21382 15.1888 5.14321 15.1777 4.99781 15.1664C4.79605 15.1565 4.79605 15.1565 4.63128 15.2689C4.60252 15.3044 4.57376 15.3399 4.54413 15.3765C4.24925 15.5112 3.9433 15.4714 3.6419 15.3765C3.53681 15.315 3.53681 15.315 3.47786 15.2535C3.47786 15.2264 3.47786 15.1994 3.47786 15.1715C3.43472 15.1757 3.39158 15.1799 3.34714 15.1843C3.19079 15.1715 3.19079 15.1715 3.07288 15.0741C2.94546 14.9167 2.94037 14.8387 2.94472 14.6383C2.91427 14.629 2.88382 14.6197 2.85245 14.6102C2.70822 14.5413 2.65442 14.4913 2.57563 14.3513C2.5416 14.1485 2.54815 13.965 2.6474 13.7822C2.73967 13.6541 2.73967 13.6541 2.82682 13.5695C2.91354 13.4919 2.91354 13.4919 2.94216 13.3645C2.99818 13.2096 3.04429 13.1926 3.19079 13.121C3.25604 13.0883 3.32096 13.0549 3.38559 13.021C3.41752 13.005 3.44945 12.989 3.48235 12.9725C3.56526 12.9224 3.56526 12.9224 3.5916 12.8376C3.60085 12.7522 3.60078 12.6734 3.59576 12.5878C3.594 12.4692 3.59825 12.4286 3.65728 12.3212C3.72392 12.2597 3.72392 12.2597 3.80594 12.2597C3.80341 12.2149 3.80087 12.1701 3.79825 12.1239C3.80594 11.9727 3.80594 11.9727 3.85753 11.9044C3.99185 11.8014 4.13268 11.7909 4.29807 11.8086C4.44655 11.875 4.57601 11.9604 4.70818 12.0547C4.74878 12.0817 4.78935 12.109 4.83118 12.1368C4.83118 12.0962 4.83118 12.0556 4.83118 12.0138C4.93945 12.0138 5.04774 12.0137 5.15929 12.0137C5.15929 12.0272 5.15927 12.0409 5.15927 12.0548C5.06453 12.0548 4.96982 12.0547 4.87222 12.0547C4.89929 12.1359 4.92635 12.2171 4.95424 12.3007C4.94734 12.3007 4.94045 12.3007 4.9335 12.3007C4.92681 12.3007 4.92007 12.3007 4.91323 12.3007C4.89943 12.3802 4.88579 12.4596 4.87222 12.5391C4.8608 12.6055 4.8608 12.6055 4.84915 12.6732C4.82817 12.793 4.82817 12.793 4.83121 12.9159C4.8986 12.9585 4.96705 12.9994 5.03626 13.0389C5.11828 13.162 5.11826 13.1621 5.11826 13.2851C5.22374 13.3516 5.26906 13.3688 5.3951 13.3516C5.42555 13.3432 5.456 13.3347 5.48738 13.326C5.47316 13.2968 5.45893 13.2675 5.44428 13.2374C5.39924 13.1027 5.40908 13.0356 5.43868 12.898C5.4854 12.659 5.50171 12.4261 5.51028 12.183C5.53007 12.0428 5.56603 11.9619 5.65142 11.8496C5.67849 11.8496 5.70555 11.8496 5.73344 11.8496C5.73344 11.8226 5.73344 11.7955 5.73344 11.7676C5.85556 11.7065 5.9837 11.7113 6.11791 11.7035C6.14551 11.7018 6.1731 11.7 6.20154 11.6982C6.33299 11.69 6.46289 11.6856 6.59466 11.6856C6.69132 11.6224 6.69132 11.6224 6.7869 11.5369C7.32859 11.0891 7.32859 11.0891 7.70195 11.0704C7.86519 11.0582 7.94022 11.0057 8.06335 10.9038C8.18281 10.8092 8.25839 10.766 8.41194 10.7654C8.56317 10.7834 8.56314 10.7835 8.68617 10.8245C8.67772 10.7814 8.66928 10.7381 8.66057 10.6936C8.64505 10.5358 8.65303 10.4689 8.72721 10.3322C8.84049 10.219 8.94075 10.2265 9.0963 10.2092C9.09969 10.1771 9.10307 10.1449 9.10656 10.1118C9.13731 10.0042 9.13731 10.0042 9.20139 9.95033C9.3776 9.90063 9.5508 9.89937 9.72684 9.95033Z" fill="#001A1F"/>
<path d="M5.84362 4.92651C5.89745 4.92825 5.95127 4.92999 6.00672 4.93178C6.24685 4.94221 6.44989 4.95716 6.67665 5.04185C6.67665 5.05018 6.67665 5.05851 6.67665 5.06694C6.67665 5.0722 6.67665 5.0775 6.67665 5.08286C6.63727 5.07614 6.59788 5.06943 6.5573 5.06251C6.37218 5.03607 6.18919 5.03733 6.00254 5.03928C5.95167 5.03956 5.95167 5.03956 5.89977 5.03984C5.81698 5.04032 5.73418 5.04106 5.65139 5.04185C5.78256 5.12929 5.8255 5.13333 5.97691 5.13925C6.1078 5.15109 6.17667 5.16039 6.29218 5.22639C6.39181 5.40754 6.37059 5.58468 6.33207 5.78292C6.31154 5.84703 6.28908 5.90023 6.2529 5.94414C6.22791 5.97448 6.19637 6.00039 6.15441 6.02242C5.96348 6.07829 5.80599 6.0587 5.61038 6.0261C5.52823 6.03899 5.44618 6.05256 5.36431 6.06711C5.33894 6.06034 5.31356 6.05358 5.28742 6.04661C5.14705 6.01358 5.01081 6.03448 4.87219 6.06711C4.83835 6.08826 4.80452 6.1094 4.76966 6.13119C4.61986 6.21733 4.51056 6.20139 4.33905 6.19014C4.31198 6.17661 4.28492 6.16308 4.25703 6.14913C4.24857 6.17958 4.24011 6.21003 4.2314 6.24141C4.15581 6.39259 4.07878 6.44189 3.92894 6.51823C3.84574 6.52608 3.76814 6.52605 3.6893 6.52049C3.64334 6.51724 3.59696 6.51212 3.5488 6.50557C3.36314 6.48063 3.23898 6.46532 3.06772 6.55924C3.06772 6.43744 3.06772 6.31563 3.06772 6.19014C2.9132 6.0965 2.9132 6.0965 2.76271 6.11325C2.5522 6.10586 2.47217 6.0047 2.32953 5.86206C2.316 5.86206 2.30247 5.86206 2.28852 5.86206C2.26381 5.57542 2.26381 5.57542 2.33418 5.4574C2.38438 5.39829 2.43874 5.34275 2.49358 5.28791C2.50711 5.31498 2.52065 5.34222 2.53459 5.3701C2.56166 5.35657 2.58872 5.34286 2.61661 5.32892C2.9689 5.3036 3.28696 5.32947 3.60086 5.49296C3.69806 5.5182 3.79523 5.53853 3.89386 5.55736C3.96995 5.57498 3.96995 5.57498 4.01097 5.61599C4.02323 5.58738 4.0355 5.55876 4.0478 5.53006C4.07621 5.46376 4.1048 5.39704 4.134 5.32892C4.1543 5.38982 4.1543 5.38982 4.17501 5.45195C4.20038 5.42674 4.20038 5.42674 4.22627 5.40101C4.40928 5.23026 4.54513 5.17034 4.79017 5.12387C4.8037 5.11033 4.81723 5.0968 4.83118 5.08286C4.72291 5.08286 4.61464 5.08286 4.50309 5.08286C4.50309 5.07558 4.50309 5.06829 4.50309 5.06095C4.50309 5.05464 4.50309 5.04829 4.50309 5.04185C4.95032 4.92578 5.38353 4.91031 5.84362 4.92651ZM3.14974 6.3952C3.16328 6.42226 3.17681 6.44933 3.19075 6.47722C3.20429 6.45015 3.21782 6.42308 3.23177 6.3952C3.2047 6.3952 3.17763 6.3952 3.14974 6.3952Z" fill="#07282E"/>
<path d="M5.4874 5.00099C5.63607 4.9998 5.78473 4.99907 5.93339 4.99842C5.99691 4.99791 5.99691 4.99791 6.06171 4.99738C6.10215 4.99725 6.1426 4.99712 6.18426 4.99698C6.24032 4.99666 6.24032 4.99666 6.2975 4.99633C6.38964 5.00099 6.38964 5.00099 6.47166 5.042C6.53992 5.05087 6.60826 5.05909 6.67665 5.06694C6.69376 5.0689 6.71086 5.07084 6.72797 5.07275C7.21256 5.13978 7.76036 5.30295 8.13771 5.6264C8.21933 5.78964 8.22507 5.92938 8.1941 6.10827C8.09715 6.3059 7.97989 6.41851 7.78399 6.51838C7.53823 6.55412 7.4095 6.48472 7.20985 6.35433C7.21471 6.37812 7.21957 6.40191 7.22459 6.42642C7.25304 6.59883 7.26176 6.69784 7.1919 6.86184C7.0086 7.04961 6.86112 7.08995 6.6059 7.09637C6.28695 7.08864 5.96899 7.06009 5.69246 6.88747C5.60018 6.78751 5.60018 6.78751 5.56942 6.68242C5.62961 6.47793 5.72272 6.40095 5.89767 6.28977C6.14351 6.17278 6.41138 6.1226 6.67671 6.06726C6.54137 6.04019 6.40604 6.01313 6.2666 5.98524C6.26204 5.97155 6.25748 5.95787 6.2529 5.94414C6.2439 5.91713 6.23484 5.88994 6.22559 5.86221C6.23818 5.83747 6.25076 5.81272 6.26372 5.78723C6.31982 5.6734 6.31575 5.58852 6.31274 5.46235C6.31163 5.40177 6.31163 5.40177 6.3105 5.33996C6.30955 5.3093 6.3086 5.27864 6.30761 5.24705C6.27246 5.24256 6.2373 5.23806 6.20108 5.23343C5.94367 5.19774 5.71943 5.16071 5.4874 5.042C5.4874 5.02846 5.4874 5.01493 5.4874 5.00099Z" fill="#16343B"/>
<path d="M4.9132 10.2093C4.9132 10.2372 4.9132 10.2643 4.9132 10.2914C4.96734 10.3184 5.02151 10.3455 5.07728 10.3733C5.07728 10.4004 5.07728 10.4275 5.07728 10.4554C5.11291 10.4589 5.14854 10.4624 5.18525 10.4661C5.62033 10.5191 5.62033 10.5191 5.76677 10.622C5.87344 10.7652 5.88981 10.8479 5.87843 11.0233C5.84363 11.1632 5.7621 11.2296 5.65143 11.3166C5.62436 11.3437 5.59729 11.3707 5.56941 11.3986C5.46432 11.4063 5.46432 11.4063 5.36435 11.3986C5.35082 11.3851 5.33729 11.3715 5.32334 11.3576C5.23306 11.3375 5.14242 11.319 5.05165 11.3012C4.73486 11.2364 4.73486 11.2364 4.59028 11.1628C4.3999 11.0866 4.2516 11.1197 4.05442 11.1748C3.95893 11.196 3.87289 11.1976 3.7752 11.1961C3.74242 11.1957 3.70964 11.1954 3.67587 11.195C3.65113 11.1945 3.62636 11.1941 3.60087 11.1936C3.60087 11.1657 3.60087 11.1386 3.60087 11.1116C3.57338 11.1244 3.54592 11.1372 3.5176 11.1505C3.37248 11.2018 3.2417 11.2154 3.08827 11.2269C3.0354 11.2314 2.98254 11.2359 2.92807 11.2405C2.7692 11.2341 2.70035 11.207 2.57564 11.1115C2.49139 11.0043 2.49362 10.9449 2.49362 10.8065C2.54423 10.6262 2.6223 10.5453 2.78069 10.4554C2.99559 10.3618 3.20535 10.3237 3.43686 10.2913C3.47746 10.2643 3.51806 10.2372 3.55989 10.2093C3.65526 10.1809 3.75095 10.1535 3.84696 10.1273C4.15772 9.97191 4.60045 10.1258 4.9132 10.2093Z" fill="#07282E"/>
<path d="M7.41479 13.7772C7.49681 13.9002 7.49681 13.9002 7.53782 13.9874C7.57303 14.0712 7.57303 14.0712 7.66085 14.1053C7.87627 14.1361 7.87627 14.1361 8.06423 14.0489C8.11108 14.0031 8.15786 13.9572 8.20456 13.9113C8.27601 13.8592 8.27601 13.8592 8.43749 13.8643C8.47894 13.8762 8.52046 13.888 8.56317 13.9002C8.53902 14.0419 8.49056 14.1124 8.39183 14.2155C8.3649 14.2439 8.33796 14.2723 8.3102 14.3016C8.26663 14.3465 8.26663 14.3465 8.22218 14.3923C8.19237 14.4234 8.16256 14.4544 8.13184 14.4864C8.07145 14.5491 8.01092 14.6117 7.95025 14.6741C7.87749 14.7494 7.8058 14.8255 7.73454 14.9022C7.52501 15.1245 7.30677 15.3129 7.05338 15.4842C7.02835 15.5012 7.00331 15.5182 6.97752 15.5357C6.7299 15.6956 6.48194 15.7727 6.18447 15.7457C6.04606 15.697 6.04606 15.697 5.93841 15.6226C5.90253 15.5124 5.90261 15.5124 5.89748 15.4175C6.03242 15.2893 6.12563 15.2072 6.31007 15.1715C6.51412 15.1293 6.60722 15.0141 6.73363 14.8526C6.8798 14.6706 6.99053 14.5955 7.20974 14.5154C7.30896 14.4342 7.30896 14.4342 7.30201 14.277C7.29893 14.1359 7.27361 14.0277 7.20982 13.9002C7.27749 13.8596 7.34507 13.819 7.41479 13.7772Z" fill="#000D0F"/>
<path d="M9.05634 0.489769C9.23606 0.581347 9.41279 0.677701 9.58844 0.776842C9.58844 0.817443 9.58849 0.857996 9.58849 0.899827C9.52139 0.942844 9.4529 0.983907 9.38338 1.02291C9.36985 1.04997 9.35637 1.07699 9.34243 1.10488C9.21939 1.0873 9.10592 1.06735 8.98866 1.02547C8.81741 0.971558 8.64638 0.945914 8.46914 0.918937C8.35812 0.899874 8.35818 0.899827 8.23514 0.858816C8.19344 0.777146 8.15239 0.695155 8.11206 0.6128C7.98353 0.527112 7.94906 0.519557 7.80191 0.520526C7.76972 0.520315 7.73752 0.520104 7.70435 0.519886C7.61079 0.523221 7.61079 0.523221 7.53791 0.6128C7.4341 0.63731 7.4341 0.63731 7.31235 0.656374C7.15326 0.679589 7.15326 0.679589 7.00477 0.735832C6.89199 0.764027 6.89199 0.764027 6.75871 0.735832C6.65167 0.611341 6.56718 0.480879 6.51265 0.325726C6.54469 0.235375 6.54469 0.235375 6.59467 0.161684C6.6082 0.134617 6.62173 0.10755 6.63568 0.0796631C7.34087 -0.155401 8.41753 0.174366 9.05634 0.489769Z" fill="#000D0F"/>
<path d="M10.2036 1.18692C10.6812 1.35544 11.1296 1.82853 11.3929 2.25319C11.3929 2.29379 11.393 2.33438 11.393 2.37621C11.3253 2.37621 11.2576 2.37621 11.1879 2.37621C11.1701 2.3373 11.1523 2.29841 11.134 2.25832C11.0733 2.12194 11.0733 2.12194 10.9418 2.04814C10.8745 2.04433 10.8745 2.04433 10.8059 2.04045C10.5577 1.98576 10.4738 1.8166 10.3372 1.61417C10.2077 1.41038 10.2077 1.41038 10.1626 1.30995C10.1761 1.26935 10.1896 1.22875 10.2036 1.18692Z" fill="#000D0F"/>
<path d="M6.14091 11.1755C6.2665 11.1935 6.2665 11.1935 6.38441 11.296C6.50007 11.4505 6.4877 11.5804 6.47156 11.7676C6.45802 11.7406 6.44449 11.7135 6.43054 11.6856C6.31514 11.6971 6.19983 11.7091 6.08452 11.7215C6.05161 11.7247 6.0187 11.7279 5.9848 11.7313C5.90062 11.7405 5.81698 11.7538 5.73344 11.7676C5.71991 11.7947 5.7063 11.8218 5.69235 11.8497C5.62778 11.7205 5.63707 11.6233 5.65134 11.4806C5.72024 11.3565 5.80399 11.2582 5.93586 11.1986C6.02673 11.1943 6.02673 11.1943 6.14091 11.1755Z" fill="#000D0F"/>
<path d="M12.8692 5.08297C12.9922 5.16499 12.9922 5.16499 13.0161 5.27665C13.0357 5.55984 13.03 5.79398 12.9512 6.06723C12.8551 5.98087 12.83 5.95298 12.8026 5.82116C12.7596 5.69342 12.7596 5.69342 12.659 5.65488C12.5656 5.62422 12.4729 5.59748 12.3772 5.57503C12.3772 5.49383 12.3772 5.41263 12.3772 5.32897C12.415 5.32294 12.4149 5.32301 12.4535 5.31686C12.6639 5.28257 12.6639 5.28257 12.8308 5.15987C12.8435 5.13449 12.8561 5.10912 12.8692 5.08297Z" fill="#000D0F"/>
<path d="M12.3362 3.68854C12.4803 3.7275 12.532 3.75667 12.6155 3.88342C12.6656 4.02042 12.6745 4.11829 12.6642 4.26276C12.6135 4.25938 12.5627 4.256 12.5104 4.25251C12.3785 4.25228 12.3462 4.25532 12.2362 4.3371C12.1653 4.42696 12.1654 4.42689 12.1311 4.54977C12.0635 4.53623 11.9958 4.52277 11.926 4.50883C11.926 4.46823 11.926 4.42763 11.926 4.3858C11.9531 4.3858 11.9802 4.3858 12.0081 4.3858C12.0091 4.35714 12.0102 4.32849 12.0113 4.29897C12.0136 4.26165 12.0159 4.22432 12.0183 4.18587C12.0202 4.14876 12.0221 4.11165 12.0241 4.07341C12.0491 3.97569 12.0491 3.97569 12.1304 3.92667C12.1577 3.91578 12.185 3.90489 12.2131 3.89367C12.2266 3.8666 12.2402 3.83946 12.2542 3.81158C12.2821 3.81158 12.3091 3.81158 12.3362 3.81158C12.3362 3.77097 12.3362 3.73037 12.3362 3.68854Z" fill="#000D0F"/>
<path d="M2.78073 10.1683C2.79427 10.1683 2.80772 10.1683 2.82167 10.1683C2.82167 10.236 2.82167 10.3037 2.82167 10.3734C2.78107 10.3937 2.78114 10.3937 2.73972 10.4144C2.75326 10.4414 2.76679 10.4685 2.78073 10.4964C2.73125 10.5281 2.73125 10.5281 2.68077 10.5605C2.5647 10.6541 2.5647 10.6541 2.53467 10.8014C2.52758 10.9447 2.52758 10.9447 2.57055 11.0654C2.70455 11.1994 2.84363 11.1899 3.0268 11.1936C3.07033 11.1945 3.07033 11.1945 3.11475 11.1955C3.18112 11.196 3.24751 11.195 3.31387 11.1936C3.31387 11.2071 3.31387 11.2206 3.31387 11.2346C3.11826 11.2737 2.93816 11.2772 2.73972 11.2756C2.73891 11.3099 2.7381 11.3443 2.73726 11.3797C2.73406 11.507 2.7305 11.6344 2.72671 11.7617C2.72436 11.8439 2.72243 11.9262 2.7205 12.0085C2.71812 12.0858 2.71812 12.0858 2.71569 12.1647C2.71441 12.2124 2.71312 12.26 2.71179 12.3092C2.69871 12.4239 2.69871 12.4239 2.61669 12.5059C2.63023 12.1134 2.64376 11.721 2.6577 11.3166C2.5562 11.276 2.5562 11.276 2.45265 11.2346C2.32589 11.0978 2.27395 10.991 2.27835 10.8065C2.31072 10.6034 2.42053 10.5081 2.57536 10.3822C2.6577 10.3323 2.6577 10.3323 2.78073 10.3323C2.78073 10.2782 2.78073 10.2241 2.78073 10.1683Z" fill="#224B54"/>
<path d="M5.32327 15.0485C5.35033 15.0485 5.37747 15.0485 5.40535 15.0485C5.41889 15.1161 5.43235 15.1839 5.4463 15.2536C5.39216 15.2536 5.33807 15.2536 5.2823 15.2536C5.27892 15.2773 5.27549 15.301 5.272 15.3254C5.2293 15.4535 5.18731 15.5019 5.0772 15.5817C4.95266 15.6176 4.83753 15.6337 4.70811 15.6227C4.61583 15.5458 4.61583 15.5458 4.54406 15.4587C4.43572 15.426 4.43572 15.426 4.33901 15.4176C4.33901 15.4041 4.33901 15.3906 4.33901 15.3766C4.39484 15.3614 4.39484 15.3614 4.45179 15.3459C4.58695 15.3057 4.58695 15.3057 4.65973 15.2097C4.74912 15.1306 4.74912 15.1306 4.86991 15.1174C4.91294 15.1201 4.95597 15.1227 5.00031 15.1254C5.12777 15.1343 5.12777 15.1343 5.24124 15.1306C5.26831 15.1035 5.29538 15.0764 5.32327 15.0485Z" fill="#000D0F"/>
<path d="M9.63838 12.8058C9.66249 12.8151 9.6866 12.8244 9.71143 12.834C9.68437 12.834 9.6573 12.834 9.62941 12.834C9.62688 12.8772 9.62434 12.9203 9.62172 12.9647C9.58175 13.1523 9.53654 13.2129 9.38335 13.3261C9.227 13.3595 9.227 13.3595 9.09628 13.3672C9.39981 12.7722 9.39981 12.7722 9.63838 12.8058Z" fill="#000D0F"/>
<path d="M11.803 2.95039C11.903 2.97858 11.903 2.97858 12.0081 3.03241C12.0414 3.14006 12.0414 3.14003 12.0491 3.23743C12.0113 3.24417 12.0113 3.2442 11.9727 3.25108C11.923 3.26083 11.923 3.26083 11.8722 3.27078C11.823 3.28006 11.823 3.28006 11.7728 3.28953C11.6704 3.32259 11.6257 3.36134 11.557 3.44251C11.5164 3.34778 11.4758 3.25305 11.4339 3.15544C11.4571 3.14408 11.4804 3.13271 11.5043 3.121C11.5343 3.10614 11.5644 3.09129 11.5954 3.07598C11.6404 3.05386 11.6404 3.05386 11.6863 3.03129C11.7605 2.99699 11.7605 2.99699 11.803 2.95039Z" fill="#000D0F"/>
<path d="M8.27615 8.97886C8.27615 9.00774 8.27615 9.02984 8.27483 9.04825C8.27055 9.10826 8.25229 9.12903 8.1745 9.2175C8.12796 9.26403 8.08108 9.31021 8.03393 9.35612C8.00935 9.38053 7.98477 9.40493 7.95945 9.43007C7.88075 9.50808 7.80164 9.58565 7.72251 9.66322C7.66913 9.71598 7.61579 9.76876 7.56247 9.82158C7.43158 9.9511 7.30033 10.0802 7.16886 10.2092C7.1474 10.1984 7.12594 10.1877 7.10406 10.1768C7.09835 10.1739 7.09261 10.171 7.08684 10.1682C7.17646 10.0715 7.26621 9.97502 7.35597 9.87853C7.38095 9.85159 7.40593 9.82466 7.43167 9.79691C7.65539 9.55662 7.88084 9.31868 8.13005 9.10445C8.15791 9.0804 8.18577 9.05635 8.21447 9.03156C8.23482 9.01417 8.25518 8.99678 8.27615 8.97886Z" fill="#003D48"/>
<path d="M4.9542 5.083C4.82247 5.15369 4.70474 5.20691 4.55948 5.24448C4.41239 5.29079 4.35805 5.33984 4.25702 5.4521C4.22996 5.4521 4.20289 5.45195 4.17501 5.45195C4.16219 5.35968 4.16219 5.35982 4.175 5.24705C4.26782 5.13183 4.34468 5.08967 4.48979 5.06234C4.49429 5.06187 4.49872 5.0614 4.50309 5.06095C4.7961 5.0303 4.79839 5.03106 4.9542 5.083Z" fill="#16343B"/>
<path d="M3.6893 6.52049C3.7548 6.58035 3.76812 6.59511 3.84693 6.68244L3.97509 6.7132C4.09299 6.76446 4.09299 6.76446 4.13593 6.83399C4.28843 7.23538 4.25074 7.6835 4.09299 8.0768C3.86985 8.52047 3.58891 8.93545 3.31379 9.34813C3.4252 9.40383 3.51507 9.39456 3.63931 9.39426L3.77116 9.39458C3.89105 9.39429 3.89105 9.39429 4.01097 9.34813C4.07325 9.34435 4.13569 9.34279 4.19808 9.343L4.29564 9.34268C4.38007 9.34813 4.38007 9.34813 4.46209 9.38914L4.44158 9.23278C4.42517 9.08067 4.41486 8.9295 4.41083 8.77654L4.40762 8.66264L4.42108 8.56893C4.57453 8.46662 4.6492 8.47148 4.83118 8.4869C5.0909 8.5804 5.21899 8.74903 5.35663 8.98159C5.44218 9.19788 5.42903 9.44843 5.40533 9.67621L5.32331 9.79924L5.45852 9.86268C5.87892 10.0678 6.21627 10.2945 6.51262 10.6605V10.7425L6.59464 10.6605L6.65103 10.6044C6.70014 10.555 6.74877 10.5052 6.79713 10.4551L6.88171 10.3683L6.96117 10.2859C7.03371 10.2202 7.04404 10.2109 7.10406 10.1768L7.08684 10.1682C7.17646 10.0715 7.26621 9.97502 7.35597 9.87853L7.43167 9.79691C7.65539 9.55662 7.88084 9.31868 8.13005 9.10445L8.21447 9.03156L8.27615 8.97886C8.27615 9.00774 8.27615 9.02984 8.27483 9.04825C8.31947 8.98844 8.36014 8.92545 8.3991 8.856C8.4479 8.80569 8.4984 8.75698 8.55033 8.7099C8.72376 8.54221 8.84789 8.35613 8.97501 8.15193C9.05527 8.03579 9.05527 8.03579 9.16613 7.93999C9.29271 7.79317 9.28982 7.66975 9.28339 7.48471L9.28115 7.38185C9.24972 6.53955 9.06664 5.60891 8.48256 4.97073C8.40355 4.88293 8.34548 4.79781 8.28632 4.69599C8.22293 4.58763 8.18724 4.54466 8.08383 4.46531C7.95031 4.35343 7.92982 4.27014 7.90697 4.09878C7.94546 3.85568 8.08302 3.69819 8.24659 3.52319C8.34603 3.40951 8.41152 3.28917 8.48112 3.15553C8.39654 3.12686 8.3119 3.09835 8.22705 3.07047C8.14844 3.04452 8.07006 3.0179 7.99188 2.99069C7.43208 2.80432 6.85496 2.77516 6.26992 2.7456L6.26655 2.74543L6.25262 2.87855C6.20458 3.15168 6.03477 3.32614 5.82056 3.49387C5.76482 3.53241 5.70842 3.57003 5.65139 3.60665L5.57194 3.65967C5.38097 3.77248 5.22563 3.79027 5.0066 3.75788C4.86594 3.71541 4.79356 3.64135 4.70815 3.52463V3.44261C4.51485 3.57841 4.39831 3.73986 4.26729 3.93217L4.13801 4.1196L4.07363 4.21352C4.01542 4.29742 3.95588 4.38009 3.89547 4.46242L3.84281 4.53516C3.79588 4.59989 3.74861 4.66437 3.70131 4.72883C3.63228 4.82936 3.63228 4.82936 3.65277 4.92395L3.68289 5.00101C3.68448 5.09669 3.68473 5.19241 3.68289 5.28808L3.77516 5.29833C3.91192 5.33563 3.96782 5.37984 4.05198 5.49313C4.05039 5.50746 4.04905 5.51956 4.0478 5.53006L4.134 5.32892L4.17501 5.45195C4.16219 5.35968 4.16219 5.35982 4.175 5.24705C4.26782 5.13183 4.34468 5.08967 4.48979 5.06234C4.49429 5.06187 4.49872 5.0614 4.50309 5.06095V5.04185C4.95032 4.92578 5.38353 4.91031 5.84362 4.92651L6.00672 4.93178C6.24685 4.94221 6.44989 4.95716 6.67665 5.04185V5.06694C6.69376 5.0689 6.71086 5.07084 6.72797 5.07275C7.21256 5.13978 7.76036 5.30295 8.13771 5.6264C8.21933 5.78964 8.22507 5.92938 8.1941 6.10827C8.09715 6.3059 7.97989 6.41851 7.78399 6.51838C7.53823 6.55412 7.4095 6.48472 7.20985 6.35433L7.22459 6.42642C7.25304 6.59883 7.26176 6.69784 7.1919 6.86184C7.0086 7.04961 6.86112 7.08995 6.6059 7.09637C6.28695 7.08864 5.96899 7.06009 5.69246 6.88747C5.60018 6.78751 5.60018 6.78751 5.56942 6.68242C5.62961 6.47793 5.72272 6.40095 5.89767 6.28977C6.14351 6.17278 6.41138 6.1226 6.67671 6.06726L6.2666 5.98524L6.2529 5.94414C6.22791 5.97448 6.19637 6.00039 6.15441 6.02242C5.96348 6.07829 5.80599 6.0587 5.61038 6.0261C5.52823 6.03899 5.44618 6.05256 5.36431 6.06711L5.28742 6.04661C5.14705 6.01358 5.01081 6.03448 4.87219 6.06711L4.76966 6.13119C4.61986 6.21733 4.51056 6.20139 4.33905 6.19014L4.25703 6.14913L4.2314 6.24141C4.15581 6.39259 4.07878 6.44189 3.92894 6.51823C3.84574 6.52608 3.76814 6.52605 3.6893 6.52049Z" fill="white"/>
<path d="M11.498 7.51803C11.2636 7.61756 11.0327 7.68851 10.7777 7.7077L10.6957 7.66669C10.6875 7.81909 10.6895 7.8624 10.7777 7.99478C10.8 8.12028 10.801 8.23845 10.7777 8.36387L10.6726 8.46384C10.5616 8.55638 10.5616 8.55638 10.5725 8.6652C10.5828 8.73758 10.5937 8.80989 10.605 8.88211C10.6171 9.01755 10.5741 9.07973 10.4906 9.18408L10.4214 9.29943L10.3676 9.38914C10.4154 9.45747 10.4154 9.45747 10.4906 9.51217C10.7318 9.49104 10.8563 9.35523 11.0075 9.17661C11.3556 8.72344 11.823 8.08967 11.844 7.50265L11.803 7.42063C11.6861 7.42063 11.6044 7.47013 11.498 7.51803Z" fill="white"/>
<path d="M4.9335 12.3007L4.99523 12.3419V12.5059L5.13107 12.4444C5.2823 12.3829 5.2823 12.3829 5.40533 12.3829C5.34545 12.2432 5.28077 12.1475 5.15927 12.0548L4.87222 12.0547L4.95424 12.3007H4.9335Z" fill="white"/>
</g>
<defs>
<clipPath id="clip0_71_43">
<rect width="16" height="16" fill="white"/>
</clipPath>
</defs>
</svg>
