<svg width="1024" height="1024" viewBox="0 0 1024 1024" fill="none" xmlns="http://www.w3.org/2000/svg">
<path d="M263.236 515.017C263.747 510.219 264.257 505.421 264.783 500.478C346.182 469.975 346.182 469.975 375.772 479.939C380.896 483.608 380.896 483.608 383.568 489.59C383.43 497.57 382.333 504.925 381.093 512.852C383.634 512.986 386.174 513.12 388.792 513.258C416.298 515.316 416.298 515.316 428.568 522.682C442.146 538.637 452.125 552.628 451.995 574.35C448.192 614.069 434.954 641.815 408.314 671.603C406.768 673.376 405.222 675.148 403.63 676.975C385.788 695.651 357.127 710.89 331.044 711.524C313.482 710.051 300.476 707.923 287.188 695.854C272.995 678.903 267.982 661.153 269.67 639.393C274.598 598.273 297.974 563.263 329.743 537.715C332.508 535.632 335.273 533.55 338.122 531.404C341.202 529.019 341.202 529.019 344.344 526.586C344.446 525.627 344.548 524.667 344.653 523.679C342.382 523.542 340.112 523.405 337.772 523.263C327.528 522.636 317.285 521.984 307.042 521.332C301.68 521.008 301.68 521.008 296.21 520.679C292.803 520.459 289.396 520.238 285.885 520.011C282.734 519.815 279.583 519.618 276.336 519.415C268.742 518.543 268.742 518.543 263.236 515.017ZM371.998 570.698C381.492 572.678 390.985 574.659 400.766 576.699C400.317 571.799 399.868 566.899 399.405 561.851C386.259 561.912 382.647 562.097 371.998 570.698Z" fill="#00252B"/>
<path d="M649.074 496.54C661.009 484.934 675.323 477.689 692.153 477.402C716.753 478.934 734.02 486.254 752.729 502.398C769.381 521.378 775.951 546.642 775.912 571.477C773.665 601.164 766.754 625.43 745.614 647.02C729.953 660.164 713.092 666.199 692.617 664.907C671.606 661.555 654.421 651.9 641.615 634.669C613.002 591.334 615.715 536.555 649.074 496.54ZM687.954 530.795C695.631 531.612 703.307 532.428 711.216 533.27C710.563 530.289 709.909 527.308 709.236 524.237C700.493 524.313 700.493 524.313 691.481 525.289C690.317 527.106 689.153 528.923 687.954 530.795Z" fill="#00252B"/>
<path d="M368.409 770.281C369.32 765.027 369.32 765.027 372.554 758.96C380.538 755.431 380.538 755.431 391.142 752.46C393.071 751.912 395 751.365 396.987 750.801C403.393 749.009 409.817 747.298 416.248 745.596C418.451 744.999 420.655 744.401 422.925 743.785C473.775 730.04 525.343 720.92 577.396 713.117C579.542 712.792 581.688 712.467 583.898 712.132C590.365 711.159 596.835 710.209 603.306 709.268C609 708.439 609 708.439 614.808 707.592C632.758 705.586 647.514 705.073 662.819 715.221L662.82 715.222C667.536 722.707 667.536 722.707 668.445 731.442C665.685 740.138 663.134 744.956 655.703 750.361C641.617 756.782 625.758 758.452 610.556 760.755C612.732 762.719 614.907 764.682 617.149 766.706C623.858 773.933 623.858 773.932 624.794 784.141C621.382 795.301 618.042 798.228 608.33 804.27C598.593 808.938 588.9 809.781 578.235 810.616C575.89 810.83 573.545 811.043 571.129 811.264C566.214 811.694 561.297 812.095 556.377 812.469C549.571 812.997 542.787 813.651 535.993 814.323C494.887 817.863 454.608 812.719 413.846 807.512C413.074 807.413 412.302 807.315 411.53 807.216C411.081 802.316 410.632 797.416 410.169 792.368C412.691 791.643 415.213 790.918 417.812 790.172C421.11 789.211 424.407 788.25 427.805 787.26C432.716 785.838 432.716 785.838 437.725 784.387C446.905 781.726 446.905 781.726 455.951 776.654C453.587 776.7 451.223 776.747 448.787 776.795C438.105 776.986 427.422 777.124 416.739 777.261C413.018 777.335 409.297 777.409 405.463 777.486C401.905 777.524 398.348 777.563 394.682 777.602C389.754 777.679 389.753 777.679 384.726 777.756C376.513 777.025 376.513 777.025 368.409 770.281Z" fill="#00252B"/>
<path d="M596.825 447.583C599.792 429.367 599.792 429.367 607.365 422.79C631.004 413.665 654.864 414.117 678.29 424.156C704.757 436.422 704.757 436.422 709.175 441.892C708.778 446.75 708.268 451.599 707.628 456.431C699.583 457.755 691.536 459.06 683.482 460.329C678.488 461.139 673.501 461.995 668.541 462.99C648.354 466.744 622.734 467.442 605.25 455.958C599.423 450.801 599.423 450.801 596.825 447.583Z" fill="#00252B"/>
<path d="M868.732 686.952C872.744 675.853 874.804 671.852 885.247 666.47C895.416 665.898 895.416 665.898 905.601 668.635C914.691 676.807 918.325 681.351 919.301 693.618C916.079 704.361 912.557 708.793 903.559 715.469C892.613 717.941 887.901 717.757 878.194 712.035C869.32 703.481 866.962 699.306 868.732 686.952Z" fill="#00252B"/>
<path d="M845.283 406.381C853.454 397.291 857.999 393.657 870.265 392.682C881.009 395.903 885.44 399.425 892.116 408.423C894.588 419.369 894.404 424.081 888.682 433.788C882.898 439.79 882.898 439.79 873.556 444.677C862.538 443.098 855.533 441.287 846.926 434.125C841.51 423.617 842.236 417.716 845.283 406.381Z" fill="#00252B"/>
<path d="M142.47 793.294C149.027 786.492 153.582 783.37 162.716 780.929C172.5 781.729 176.613 785.298 183.797 791.81C188.994 798.244 188.994 798.244 189.241 808.011C186.829 818.598 186.829 818.598 179.923 826.502C168.429 832.873 162.982 832.886 150.389 829.425C138.465 818.141 135.858 808.383 142.47 793.294Z" fill="#00252B"/>
<path d="M112.961 490.208C118.096 483.402 118.096 483.402 125.83 479.814C137.766 478.758 146.272 480.161 155.897 487.424C160.972 498.362 160.554 506.972 157.01 518.419C151.875 525.224 151.876 525.224 144.142 528.813C132.205 529.869 123.7 528.466 114.075 521.203C109 510.265 109.417 501.655 112.961 490.208Z" fill="#00252B"/>
<path fill-rule="evenodd" clip-rule="evenodd" d="M432.255 888.819L427.361 889.669C390.754 893.931 351.153 886.887 314.685 883.111L305.681 882.188C250.033 876.369 196.224 866.105 142.099 852.068C140.862 846.423 140.862 846.423 140.429 840.128C150.178 832.254 160.828 834.181 172.865 834.217L180.951 834.186C189.77 834.163 198.589 834.182 207.408 834.204L216.551 834.201C259.831 834.186 303.028 835.047 346.276 836.664C513.579 842.793 665.341 811.407 823.045 755.794C830.884 753.031 838.724 750.272 846.565 747.514C856.902 743.878 867.229 740.215 877.55 736.537C882.372 734.832 887.195 733.129 892.018 731.426L898.583 729.065C913.703 723.752 928.861 720.006 944.577 716.892C936.934 611.627 926.994 507.915 907.273 404.154C905.392 394.153 903.517 384.151 901.643 374.148C666.717 394.235 432.118 419.541 199.5 458.525C175.814 462.486 152.138 466.252 128.315 469.304L121.894 470.137C113.414 471.182 105.901 471.813 97.3709 470.905L100.41 481.969C126.341 579.56 136.986 679.038 136.887 779.916L136.881 788.277C136.366 795.307 135 800.478 132.201 806.905L120.26 808.576C113.761 784.587 108.628 760.297 103.352 736.017C101.948 729.583 100.544 723.149 99.1395 716.715C98.2136 712.468 97.29 708.22 96.3689 703.971C94.0602 693.33 91.7162 682.699 89.3019 672.081L87.8911 665.821C86.6102 660.146 85.3158 654.474 84.0204 648.803C82.3365 639.864 82.3365 639.864 83.2646 631.141L77.1397 633.43C61.8169 632.982 51.8264 630.994 40.267 620.685C36.8167 613.845 34.0757 606.924 31.3621 599.762C27.5648 590.71 21.9522 584.241 15.5203 576.883C6.22443 565.109 0.139277 555.613 1.78601 540.134C8.16342 524.61 18.9219 518.949 33.1259 511.474L33.2127 511.429C41.3053 508.638 46.5852 508.981 54.9299 510.5L52.4722 503.369L49.3233 494.097L46.1696 484.871C43.794 476.968 43.794 476.968 44.4127 471.152L35.2679 470.731C23.0576 468.831 17.0261 466.217 7.54001 458.408C1.98744 449.845 0.426584 444.449 0 434.264C2.82489 423.102 7.68204 417.43 15.7066 409.285C26.2154 403.787 31.0175 402.751 42.8045 403.346C55.3904 407.765 65.8844 413.055 76.1507 421.597C82.0977 422.151 82.0978 422.151 88.7607 421.298L96.7443 420.528L105.594 419.526L115.018 418.518C159.586 413.461 203.824 405.908 248.069 398.617C262.334 396.27 276.604 393.955 290.873 391.635C301.95 389.833 313.025 388.028 324.098 386.208C335.03 384.412 345.965 382.642 356.904 380.89L364.623 379.645C374.503 378.14 382.37 377.718 392.415 378.786L388.028 370.681C386.175 367.089 384.325 363.496 382.478 359.901L379.568 354.589C374.425 344.398 373.106 338.962 374.833 327.568C378.916 316.684 380.483 312.961 391.116 308.072C399.267 308.397 407.039 309.403 415.077 310.782C423.88 311.542 429.963 310.066 438.259 307.206L436.02 298.996C430.455 277.557 426.435 257.856 428.237 235.564L421.934 234.342C410.845 229.82 407.059 225.395 401.016 215.024C397.564 198.518 400.028 185.592 408.621 171.172C422.593 151.84 437.852 137.972 461.959 134C473.081 133.963 479.316 138.135 487.877 144.867C494.903 152.222 497.702 157.178 498.464 167.36C497.658 184.222 493.306 194.266 481.872 206.603C474.076 215.982 473.576 221.206 474.638 233.574C475.251 237.732 475.893 241.886 476.563 246.036L477.492 252.251C479.479 265.366 481.728 278.432 484.041 291.492L494.534 290.036C558.739 281.604 558.739 281.604 580.847 293.704C587.502 305.252 589.501 316.715 591.735 329.783C593.706 338.343 596.584 343.663 601.217 351.009L608.692 350.229C632.339 347.762 655.988 345.306 679.637 342.86C691.785 341.604 703.933 340.343 716.08 339.074C763.411 334.131 810.749 329.237 858.173 325.265L868.018 324.38C887.322 322.852 902.013 321.704 917.605 334.677L927.504 336.649C937.65 339.751 937.65 339.751 942.958 346.541C948.169 356.344 950.957 365.422 953.623 376.186L956.305 386.822L958.251 394.874C967.217 396.309 967.217 396.309 976.773 393.536C990.022 391.895 996.129 393.588 1007.68 400.133C1018.33 412.96 1019.65 423.123 1018.54 439.383L1017.5 448.745L1016.39 458.936L1015.19 469.486L1014.01 480.21C1013.05 488.928 1012.07 497.644 1011.09 506.359L1016.47 509.275C1022.1 513.412 1022.1 513.412 1024 523.171C1022.54 536.873 1019.62 541.173 1009.35 550.284C1003.18 553.009 1003.18 553.009 996.583 555.324L989.92 557.697L984.853 559.441L985.304 564.649C986.856 582.652 988.369 600.657 989.86 618.664C990.421 625.371 990.991 632.077 991.571 638.782C992.407 648.458 993.207 658.137 994 667.817L994.799 676.798C996.755 701.352 998.793 727.222 983.744 748.124C968.382 763.504 944.997 770.177 924.652 776.342C899.586 784.233 874.875 792.936 850.2 801.953C765.238 832.947 678.583 860.038 589.46 876.136L570 879L547.823 880.529C536.541 881.125 525.264 881.778 513.986 882.443L504.231 882.956L494.952 883.519L486.361 884.005L479.707 885.045L450 887.5L432.255 888.819ZM477.518 368.347C462.056 370.2 447.003 371.077 431.453 371.177L432.691 359.546C441.526 357.076 450.367 354.628 459.214 352.202L470.182 349.199C493.957 342.548 516.387 337.184 541.082 335.789L547.33 359.979C536.778 361.258 526.225 362.529 515.67 363.785C511.33 364.3 506.99 364.817 502.651 365.335C496.31 366.104 489.969 366.872 483.626 367.625L477.518 368.347Z" fill="#00252B"/>
<path fill-rule="evenodd" clip-rule="evenodd" d="M140.429 840.128C150.178 832.254 160.828 834.181 172.865 834.217L180.951 834.186C189.77 834.163 198.589 834.182 207.408 834.204L216.551 834.201C259.831 834.186 303.028 835.047 346.276 836.664C513.579 842.793 665.341 811.407 823.045 755.794C830.884 753.031 838.724 750.272 846.565 747.514C856.902 743.878 867.229 740.215 877.55 736.537C882.372 734.832 887.195 733.129 892.018 731.426L898.583 729.065C913.703 723.752 928.861 720.006 944.577 716.892C936.934 611.627 926.994 507.915 907.273 404.154C905.392 394.153 903.517 384.151 901.643 374.148C666.717 394.235 432.118 419.541 199.5 458.525C175.814 462.486 152.138 466.252 128.315 469.304L121.894 470.137C113.414 471.182 105.901 471.813 97.3709 470.905L100.41 481.969C126.341 579.56 136.986 679.038 136.887 779.916L136.881 788.277C136.366 795.307 135 800.478 132.201 806.905L140.429 840.128ZM264.783 500.478L263.236 515.017C268.742 518.543 268.742 518.543 276.336 519.415L285.885 520.011L296.21 520.679L307.042 521.332C317.285 521.984 327.528 522.636 337.772 523.263L344.653 523.679L344.344 526.586L338.122 531.404L329.743 537.715C297.974 563.263 274.598 598.273 269.67 639.393C267.982 661.153 272.995 678.903 287.188 695.854C300.476 707.923 313.482 710.051 331.044 711.524C357.127 710.89 385.788 695.651 403.63 676.975L408.314 671.603C434.954 641.815 448.192 614.069 451.995 574.35C452.125 552.628 442.146 538.637 428.568 522.682C416.298 515.316 416.298 515.316 388.792 513.258L381.093 512.852C382.333 504.925 383.43 497.57 383.568 489.59C380.896 483.608 380.896 483.608 375.772 479.939C346.182 469.975 346.182 469.975 264.783 500.478ZM692.153 477.402C675.323 477.689 661.009 484.934 649.074 496.54C615.715 536.555 613.002 591.334 641.615 634.669C654.421 651.9 671.606 661.555 692.617 664.907C713.092 666.199 729.953 660.164 745.614 647.02C766.754 625.43 773.665 601.164 775.912 571.477C775.951 546.642 769.381 521.378 752.729 502.398C734.02 486.254 716.753 478.934 692.153 477.402ZM372.554 758.96C369.32 765.027 369.32 765.027 368.409 770.281C376.513 777.025 376.513 777.025 384.726 777.756L394.682 777.602L405.463 777.486L416.739 777.261C427.422 777.124 438.105 776.986 448.787 776.795L455.951 776.654C446.905 781.725 446.904 781.726 437.725 784.387L427.805 787.26L417.812 790.172L410.169 792.368L411.53 807.216L413.846 807.512C454.608 812.719 494.887 817.863 535.993 814.323C542.787 813.651 549.571 812.997 556.377 812.469C561.297 812.095 566.214 811.694 571.129 811.264L578.235 810.616C588.9 809.781 598.593 808.938 608.33 804.27C618.042 798.228 621.382 795.301 624.794 784.141C623.858 773.932 623.858 773.933 617.149 766.706L610.556 760.755C625.758 758.452 641.617 756.782 655.703 750.361C663.134 744.956 665.685 740.138 668.445 731.442C667.536 722.707 667.536 722.707 662.82 715.222L662.819 715.221C647.514 705.073 632.758 705.586 614.808 707.592L603.306 709.268C596.835 710.209 590.365 711.159 583.898 712.132L577.396 713.117C525.343 720.92 473.775 730.04 422.925 743.785L416.248 745.596C409.817 747.298 403.393 749.009 396.987 750.801L391.142 752.46C380.538 755.431 380.538 755.431 372.554 758.96ZM607.365 422.79C599.792 429.367 599.792 429.367 596.825 447.583C599.423 450.801 599.423 450.801 605.25 455.958C622.734 467.442 648.354 466.744 668.541 462.99C673.501 461.995 678.488 461.139 683.482 460.329C691.536 459.06 699.583 457.755 707.628 456.431C708.268 451.599 708.778 446.75 709.175 441.892C704.757 436.422 704.757 436.422 678.29 424.156C654.864 414.117 631.004 413.665 607.365 422.79ZM885.247 666.47C874.804 671.852 872.744 675.853 868.732 686.952C866.962 699.306 869.32 703.481 878.194 712.035C887.901 717.757 892.613 717.941 903.559 715.469C912.557 708.793 916.079 704.361 919.301 693.618C918.325 681.351 914.691 676.807 905.601 668.635C895.416 665.898 895.416 665.898 885.247 666.47ZM870.265 392.682C857.999 393.657 853.454 397.291 845.283 406.381C842.236 417.716 841.51 423.617 846.926 434.125C855.533 441.287 862.538 443.098 873.556 444.677C882.898 439.79 882.898 439.79 888.682 433.788C894.404 424.081 894.588 419.369 892.116 408.423C885.44 399.425 881.009 395.903 870.265 392.682ZM162.716 780.929C153.582 783.37 149.027 786.492 142.47 793.294C135.858 808.383 138.465 818.141 150.389 829.425C162.982 832.886 168.429 832.873 179.923 826.502C186.829 818.598 186.829 818.598 189.241 808.011C188.994 798.244 188.994 798.244 183.797 791.81C176.613 785.298 172.5 781.729 162.716 780.929ZM112.961 490.208C109.417 501.655 109 510.265 114.075 521.203C123.7 528.466 132.205 529.869 144.142 528.813C151.876 525.224 151.875 525.224 157.01 518.419C160.554 506.972 160.972 498.362 155.897 487.424C146.272 480.161 137.766 478.758 125.83 479.814C118.096 483.402 118.096 483.402 112.961 490.208Z" fill="#007961"/>
<path d="M431.453 371.177C447.003 371.077 462.056 370.2 477.518 368.347L483.626 367.625C489.969 366.872 496.31 366.104 502.651 365.335C506.99 364.817 511.33 364.3 515.67 363.785C526.225 362.529 536.778 361.258 547.33 359.979L541.082 335.789C516.387 337.184 493.957 342.548 470.182 349.199L459.214 352.202C450.367 354.628 441.526 357.076 432.691 359.546L431.453 371.177Z" fill="#007961"/>
<path d="M371.998 570.698L400.766 576.699L399.405 561.851C386.259 561.912 382.647 562.097 371.998 570.698Z" fill="white"/>
<path d="M687.954 530.795L711.216 533.27L709.236 524.237C700.493 524.313 700.493 524.313 691.481 525.289L687.954 530.795Z" fill="white"/>
</svg>
